{"glyphs":{"0":{"ha":911,"x_min":51,"x_max":860,"o":"m 456 -36 q 219 19 308 -36 q 91 181 131 75 q 51 436 51 288 q 91 692 51 586 q 219 853 131 797 q 456 908 308 908 q 692 853 603 908 q 820 692 781 797 q 860 436 860 586 q 820 181 860 288 q 692 19 781 75 q 456 -36 603 -36 m 456 125 q 623 206 576 125 q 669 436 669 286 q 623 667 669 586 q 456 747 576 747 q 288 667 335 747 q 242 436 242 586 q 288 206 242 286 q 456 125 335 125 z "},"1":{"ha":464,"x_min":51,"x_max":385,"o":"m 197 0 l 197 725 l 51 701 l 51 858 l 385 908 l 385 0 l 197 0 z "},"2":{"ha":713,"x_min":51,"x_max":661,"o":"m 51 0 l 51 90 q 150 235 89 171 q 283 364 211 300 q 372 444 338 413 q 426 501 407 476 q 454 553 446 526 q 463 618 463 579 q 299 747 463 747 q 188 735 243 747 q 83 704 133 724 l 83 869 q 206 898 136 888 q 340 908 276 908 q 574 831 496 908 q 653 622 653 754 q 608 466 653 531 q 490 339 563 401 q 382 242 433 289 q 296 144 331 196 l 661 144 l 661 0 l 51 0 z "},"3":{"ha":728,"x_min":51,"x_max":675,"o":"m 318 -14 q 228 -8 278 -14 q 131 7 178 -3 q 51 29 83 17 l 51 193 q 170 158 108 169 q 290 147 232 147 q 437 174 389 147 q 485 274 485 201 q 442 358 485 333 q 321 383 400 383 l 181 383 l 194 521 l 311 521 q 429 548 392 521 q 467 633 467 575 q 424 720 467 692 q 289 749 382 749 q 170 736 229 749 q 67 704 111 724 l 67 864 q 181 896 111 883 q 321 908 251 908 q 572 839 488 908 q 657 660 657 769 q 627 537 657 594 q 535 453 597 479 q 641 378 607 431 q 675 254 675 326 q 630 103 675 163 q 505 15 585 43 q 318 -14 425 -14 z "},"4":{"ha":757,"x_min":24,"x_max":732,"o":"m 457 0 l 457 188 l 24 188 l 24 315 l 481 894 l 644 894 l 644 339 l 732 339 l 732 188 l 644 188 l 644 0 l 457 0 m 203 332 l 489 332 l 489 688 l 203 332 z "},"5":{"ha":719,"x_min":51,"x_max":667,"o":"m 315 -14 q 227 -9 275 -14 q 134 6 179 -4 q 56 29 89 15 l 56 192 q 170 159 104 171 q 289 147 236 147 q 430 178 383 147 q 476 282 476 208 q 445 378 476 347 q 321 408 414 408 l 51 408 l 51 514 l 75 894 l 607 894 l 593 750 l 235 750 l 222 553 l 357 553 q 593 482 519 553 q 667 275 667 411 q 578 65 667 143 q 315 -14 490 -14 z "},"6":{"ha":803,"x_min":51,"x_max":751,"o":"m 403 -14 q 140 72 228 -14 q 51 338 51 158 l 51 529 q 99 726 51 640 q 236 860 147 811 q 446 908 325 908 q 567 900 515 908 q 665 875 618 892 l 665 714 q 458 749 578 749 q 286 699 344 749 q 228 567 228 649 l 228 524 q 332 572 272 556 q 442 588 392 588 q 676 510 601 588 q 751 290 751 432 q 715 133 751 201 q 601 25 678 64 q 403 -14 525 -14 m 404 125 q 539 168 494 125 q 583 283 583 211 q 544 403 583 361 q 407 444 506 444 q 314 428 361 444 q 228 385 267 411 l 228 300 q 404 125 228 125 z "},"7":{"ha":692,"x_min":38,"x_max":653,"o":"m 129 0 l 447 750 l 38 750 l 38 894 l 653 894 l 653 779 l 324 0 l 129 0 z "},"8":{"ha":829,"x_min":51,"x_max":776,"o":"m 414 -14 q 51 249 51 -14 q 90 379 51 321 q 196 463 128 438 q 104 540 133 490 q 75 647 75 590 q 157 838 75 767 q 414 908 239 908 q 673 838 593 908 q 753 647 753 767 q 724 535 753 588 q 628 453 696 482 q 776 249 776 400 q 414 -14 776 -14 m 450 510 q 545 556 515 528 q 575 643 575 585 q 535 733 575 706 q 414 761 496 761 q 293 734 333 761 q 253 643 253 707 q 358 528 253 549 l 450 510 m 414 132 q 553 160 508 132 q 599 251 599 188 q 568 334 599 308 q 468 374 538 360 l 361 396 q 265 352 301 382 q 229 257 229 322 q 275 160 229 189 q 414 132 321 132 z "},"9":{"ha":803,"x_min":51,"x_max":751,"o":"m 357 -14 q 236 -6 288 -14 q 138 19 185 3 l 138 181 q 344 146 225 146 q 517 196 460 146 q 575 328 575 246 l 575 371 q 471 324 531 340 q 361 307 411 307 q 126 385 201 307 q 51 604 51 463 q 88 763 51 694 q 202 869 125 831 q 400 908 279 908 q 663 822 575 908 q 751 557 751 736 l 751 365 q 703 169 751 254 q 567 35 656 83 q 357 -14 479 -14 m 396 450 q 489 467 442 450 q 575 510 536 483 l 575 594 q 399 769 575 769 q 265 726 310 769 q 219 611 219 683 q 258 492 219 535 q 396 450 297 450 z "},"A":{"ha":990,"x_min":51,"x_max":939,"o":"m 51 0 l 393 894 l 599 894 l 939 0 l 744 0 l 660 215 l 331 215 l 247 0 l 51 0 m 358 360 l 632 360 l 494 719 l 358 360 z "},"Á":{"ha":990,"x_min":51,"x_max":939,"o":"m 413 956 l 524 1215 l 686 1215 l 564 956 l 413 956 m 51 0 l 393 894 l 599 894 l 939 0 l 744 0 l 660 215 l 331 215 l 247 0 l 51 0 m 358 360 l 632 360 l 494 719 l 358 360 z "},"Ă":{"ha":990,"x_min":51,"x_max":939,"o":"m 494 956 q 337 1014 397 956 q 276 1174 276 1072 l 401 1174 q 424 1097 401 1131 q 494 1064 447 1064 q 567 1097 543 1064 q 590 1174 590 1131 l 715 1174 q 654 1014 715 1072 q 494 956 593 956 m 51 0 l 393 894 l 599 894 l 939 0 l 744 0 l 660 215 l 331 215 l 247 0 l 51 0 m 358 360 l 632 360 l 494 719 l 358 360 z "},"Ắ":{"ha":990,"x_min":51,"x_max":939,"o":"m 419 1136 l 511 1332 l 653 1332 l 551 1136 l 419 1136 m 496 956 q 333 1006 399 956 q 267 1172 267 1057 l 378 1172 q 409 1085 378 1115 q 496 1054 440 1054 q 582 1085 551 1054 q 613 1172 613 1115 l 724 1172 q 658 1006 724 1057 q 496 956 593 956 m 51 0 l 393 894 l 599 894 l 939 0 l 744 0 l 660 215 l 331 215 l 247 0 l 51 0 m 358 360 l 632 360 l 494 719 l 358 360 z "},"Ặ":{"ha":990,"x_min":51,"x_max":939,"o":"m 493 956 q 335 1014 396 956 q 275 1174 275 1072 l 400 1174 q 423 1097 400 1131 q 493 1064 446 1064 q 565 1097 542 1064 q 589 1174 589 1131 l 714 1174 q 653 1014 714 1072 q 493 956 592 956 m 51 0 l 393 894 l 599 894 l 939 0 l 744 0 l 660 215 l 331 215 l 247 0 l 51 0 m 358 360 l 632 360 l 494 719 l 358 360 m 421 -251 l 421 -114 l 569 -114 l 569 -251 l 421 -251 z "},"Ằ":{"ha":990,"x_min":51,"x_max":939,"o":"m 439 1136 l 338 1332 l 479 1332 l 571 1136 l 439 1136 m 494 956 q 332 1006 397 956 q 267 1172 267 1057 l 378 1172 q 408 1085 378 1115 q 494 1054 439 1054 q 582 1085 551 1054 q 613 1172 613 1115 l 724 1172 q 658 1006 724 1057 q 494 956 593 956 m 51 0 l 393 894 l 599 894 l 939 0 l 744 0 l 660 215 l 331 215 l 247 0 l 51 0 m 358 360 l 632 360 l 494 719 l 358 360 z "},"Ẳ":{"ha":990,"x_min":51,"x_max":939,"o":"m 426 1149 l 426 1232 q 513 1249 490 1235 q 536 1289 536 1264 q 519 1324 536 1315 q 467 1333 503 1333 q 427 1328 446 1333 q 392 1317 408 1324 l 392 1396 q 447 1408 415 1403 q 514 1413 479 1413 q 622 1382 583 1413 q 660 1301 660 1351 q 635 1230 660 1256 q 554 1193 611 1204 l 554 1149 l 426 1149 m 496 956 q 333 1006 399 956 q 267 1172 267 1057 l 378 1172 q 409 1085 378 1115 q 496 1054 440 1054 q 582 1085 551 1054 q 613 1172 613 1115 l 724 1172 q 658 1006 724 1057 q 496 956 593 956 m 51 0 l 393 894 l 599 894 l 939 0 l 744 0 l 660 215 l 331 215 l 247 0 l 51 0 m 358 360 l 632 360 l 494 719 l 358 360 z "},"Ẵ":{"ha":990,"x_min":51,"x_max":939,"o":"m 615 1201 q 536 1215 575 1201 q 462 1243 497 1229 q 392 1257 426 1257 q 267 1206 314 1257 l 267 1325 q 319 1356 286 1344 q 388 1368 351 1368 q 467 1354 431 1368 q 538 1326 503 1340 q 611 1313 572 1313 q 726 1365 689 1313 l 726 1246 q 683 1215 713 1228 q 615 1201 654 1201 m 496 956 q 333 1006 399 956 q 267 1172 267 1057 l 378 1172 q 409 1085 378 1115 q 496 1054 440 1054 q 582 1085 551 1054 q 613 1172 613 1115 l 724 1172 q 658 1006 724 1057 q 496 956 593 956 m 51 0 l 393 894 l 599 894 l 939 0 l 744 0 l 660 215 l 331 215 l 247 0 l 51 0 m 358 360 l 632 360 l 494 719 l 358 360 z "},"Ǎ":{"ha":990,"x_min":51,"x_max":939,"o":"m 435 956 l 247 1197 l 394 1197 l 494 1058 l 597 1197 l 742 1197 l 554 956 l 435 956 m 51 0 l 393 894 l 599 894 l 939 0 l 744 0 l 660 215 l 331 215 l 247 0 l 51 0 m 358 360 l 632 360 l 494 719 l 358 360 z "},"Â":{"ha":990,"x_min":51,"x_max":939,"o":"m 247 956 l 435 1197 l 554 1197 l 742 956 l 597 956 l 494 1094 l 394 956 l 247 956 m 51 0 l 393 894 l 599 894 l 939 0 l 744 0 l 660 215 l 331 215 l 247 0 l 51 0 m 358 360 l 632 360 l 494 719 l 358 360 z "},"Ấ":{"ha":990,"x_min":51,"x_max":939,"o":"m 629 1118 l 721 1314 l 863 1314 l 761 1118 l 629 1118 m 242 956 l 417 1143 l 560 1143 l 735 956 l 583 956 l 489 1068 l 396 956 l 242 956 m 51 0 l 393 894 l 599 894 l 939 0 l 744 0 l 660 215 l 331 215 l 247 0 l 51 0 m 358 360 l 632 360 l 494 719 l 358 360 z "},"Ậ":{"ha":990,"x_min":51,"x_max":939,"o":"m 247 956 l 435 1197 l 554 1197 l 742 956 l 597 956 l 494 1094 l 394 956 l 247 956 m 51 0 l 393 894 l 599 894 l 939 0 l 744 0 l 660 215 l 331 215 l 247 0 l 51 0 m 358 360 l 632 360 l 494 719 l 358 360 m 421 -251 l 421 -114 l 569 -114 l 569 -251 l 421 -251 z "},"Ầ":{"ha":990,"x_min":51,"x_max":939,"o":"m 221 1118 l 119 1314 l 261 1314 l 353 1118 l 221 1118 m 247 956 l 422 1143 l 565 1143 l 740 956 l 586 956 l 493 1068 l 399 956 l 247 956 m 51 0 l 393 894 l 599 894 l 939 0 l 744 0 l 660 215 l 331 215 l 247 0 l 51 0 m 358 360 l 632 360 l 494 719 l 358 360 z "},"Ẩ":{"ha":990,"x_min":51,"x_max":939,"o":"m 647 1088 l 647 1185 q 732 1199 713 1188 q 751 1233 751 1211 q 689 1271 751 1271 q 648 1266 667 1271 q 614 1254 629 1261 l 614 1340 q 663 1352 636 1347 q 729 1357 690 1357 q 842 1326 803 1357 q 882 1244 882 1294 q 857 1171 882 1199 q 776 1135 832 1143 l 776 1088 l 647 1088 m 247 956 l 422 1143 l 565 1143 l 740 956 l 589 956 l 494 1068 l 401 956 l 247 956 m 51 0 l 393 894 l 599 894 l 939 0 l 744 0 l 660 215 l 331 215 l 247 0 l 51 0 m 358 360 l 632 360 l 494 719 l 358 360 z "},"Ẫ":{"ha":990,"x_min":51,"x_max":939,"o":"m 625 1164 q 546 1178 585 1164 q 472 1206 507 1192 q 401 1219 436 1219 q 276 1168 324 1219 l 276 1288 q 328 1319 296 1307 q 397 1331 361 1331 q 476 1317 440 1331 q 547 1289 513 1303 q 621 1275 582 1275 q 736 1328 699 1275 l 736 1208 q 693 1177 722 1190 q 625 1164 664 1164 m 247 956 l 422 1143 l 565 1143 l 740 956 l 589 956 l 494 1068 l 401 956 l 247 956 m 51 0 l 393 894 l 599 894 l 939 0 l 744 0 l 660 215 l 331 215 l 247 0 l 51 0 m 358 360 l 632 360 l 494 719 l 358 360 z "},"Ä":{"ha":990,"x_min":51,"x_max":939,"o":"m 285 989 l 285 1125 l 432 1125 l 432 989 l 285 989 m 557 989 l 557 1125 l 704 1125 l 704 989 l 557 989 m 51 0 l 393 894 l 599 894 l 939 0 l 744 0 l 660 215 l 331 215 l 247 0 l 51 0 m 358 360 l 632 360 l 494 719 l 358 360 z "},"Ạ":{"ha":990,"x_min":51,"x_max":939,"o":"m 51 0 l 393 894 l 599 894 l 939 0 l 744 0 l 660 215 l 331 215 l 247 0 l 51 0 m 358 360 l 632 360 l 494 719 l 358 360 m 421 -251 l 421 -114 l 569 -114 l 569 -251 l 421 -251 z "},"À":{"ha":990,"x_min":51,"x_max":939,"o":"m 417 956 l 294 1215 l 457 1215 l 568 956 l 417 956 m 51 0 l 393 894 l 599 894 l 939 0 l 744 0 l 660 215 l 331 215 l 247 0 l 51 0 m 358 360 l 632 360 l 494 719 l 358 360 z "},"Ả":{"ha":990,"x_min":51,"x_max":939,"o":"m 426 956 l 426 1068 q 527 1088 503 1072 q 551 1135 551 1104 q 526 1176 551 1163 q 456 1189 500 1189 q 411 1185 436 1189 q 369 1174 386 1181 l 369 1267 q 508 1285 424 1285 q 644 1249 597 1285 q 690 1151 690 1213 q 663 1063 690 1093 q 569 1019 636 1032 l 569 956 l 426 956 m 51 0 l 393 894 l 599 894 l 939 0 l 744 0 l 660 215 l 331 215 l 247 0 l 51 0 m 358 360 l 632 360 l 494 719 l 358 360 z "},"Ā":{"ha":990,"x_min":51,"x_max":939,"o":"m 281 982 l 281 1097 l 708 1097 l 708 982 l 281 982 m 51 0 l 393 894 l 599 894 l 939 0 l 744 0 l 660 215 l 331 215 l 247 0 l 51 0 m 358 360 l 632 360 l 494 719 l 358 360 z "},"Ą":{"ha":990,"x_min":51,"x_max":951,"o":"m 51 0 l 393 894 l 599 894 l 939 0 l 914 0 q 847 -67 872 -31 q 821 -144 821 -104 q 838 -185 821 -174 q 883 -196 856 -196 q 920 -192 901 -196 q 951 -181 939 -187 l 951 -286 q 901 -300 933 -294 q 833 -306 868 -306 q 722 -274 769 -306 q 674 -179 674 -243 q 700 -80 674 -126 q 775 0 726 -33 l 744 0 l 660 215 l 331 215 l 247 0 l 51 0 m 358 360 l 632 360 l 494 719 l 358 360 z "},"Å":{"ha":990,"x_min":51,"x_max":939,"o":"m 51 0 l 381 863 q 322 992 322 910 q 369 1110 322 1061 q 494 1158 415 1158 q 622 1110 576 1158 q 668 992 668 1061 q 610 864 668 910 l 939 0 l 744 0 l 660 215 l 331 215 l 247 0 l 51 0 m 494 913 q 555 935 533 913 q 576 992 576 958 q 555 1048 576 1025 q 494 1071 533 1071 q 436 1048 458 1071 q 414 992 414 1025 q 436 935 414 958 q 494 913 458 913 m 358 360 l 632 360 l 494 719 l 358 360 z "},"Ǻ":{"ha":990,"x_min":51,"x_max":939,"o":"m 407 1186 l 518 1446 l 681 1446 l 558 1186 l 407 1186 m 51 0 l 381 863 q 322 992 322 910 q 369 1110 322 1061 q 494 1158 415 1158 q 622 1110 576 1158 q 668 992 668 1061 q 610 864 668 910 l 939 0 l 744 0 l 660 215 l 331 215 l 247 0 l 51 0 m 494 913 q 555 935 533 913 q 576 992 576 958 q 555 1048 576 1025 q 494 1071 533 1071 q 436 1048 458 1071 q 414 992 414 1025 q 436 935 414 958 q 494 913 458 913 m 358 360 l 632 360 l 494 719 l 358 360 z "},"Ã":{"ha":990,"x_min":51,"x_max":939,"o":"m 614 957 q 535 971 574 957 q 460 999 496 985 q 390 1013 425 1013 q 265 961 313 1013 l 265 1094 q 317 1126 285 1114 q 386 1138 350 1138 q 465 1124 429 1138 q 536 1096 501 1110 q 610 1082 571 1082 q 725 1135 688 1082 l 725 1001 q 682 970 711 983 q 614 957 653 957 m 51 0 l 393 894 l 599 894 l 939 0 l 744 0 l 660 215 l 331 215 l 247 0 l 51 0 m 358 360 l 632 360 l 494 719 l 358 360 z "},"Æ":{"ha":1179,"x_min":51,"x_max":1128,"o":"m 51 0 l 393 894 l 1128 894 l 1128 749 l 747 749 l 747 519 l 1076 519 l 1076 375 l 747 375 l 747 144 l 1128 144 l 1128 0 l 560 0 l 560 217 l 338 217 l 254 0 l 51 0 m 381 361 l 560 361 l 560 756 l 524 756 l 381 361 z "},"Ǽ":{"ha":1179,"x_min":51,"x_max":1128,"o":"m 585 956 l 696 1215 l 858 1215 l 736 956 l 585 956 m 51 0 l 393 894 l 1128 894 l 1128 749 l 747 749 l 747 519 l 1076 519 l 1076 375 l 747 375 l 747 144 l 1128 144 l 1128 0 l 560 0 l 560 217 l 338 217 l 254 0 l 51 0 m 381 361 l 560 361 l 560 756 l 524 756 l 381 361 z "},"B":{"ha":883,"x_min":79,"x_max":832,"o":"m 79 0 l 79 894 l 532 894 q 733 831 667 894 q 799 653 799 768 q 771 533 799 581 q 696 458 743 485 q 795 394 758 439 q 832 261 832 349 q 759 66 832 132 q 549 0 686 0 l 79 0 m 267 524 l 497 524 q 594 553 565 524 q 624 638 624 583 q 594 726 624 697 q 483 756 564 756 l 267 756 l 267 524 m 267 138 l 504 138 q 608 167 575 138 q 642 269 642 196 q 609 358 642 329 q 492 388 576 388 l 267 388 l 267 138 z "},"C":{"ha":833,"x_min":51,"x_max":782,"o":"m 515 -14 q 171 108 290 -14 q 51 439 51 229 q 167 785 51 661 q 514 908 283 908 q 659 897 594 908 q 781 864 724 885 l 781 700 q 528 749 663 749 q 308 672 375 749 q 242 439 242 596 q 531 144 242 144 q 660 156 596 144 q 782 192 724 168 l 782 26 q 660 -3 725 8 q 515 -14 596 -14 z "},"Ć":{"ha":833,"x_min":51,"x_max":782,"o":"m 419 956 l 531 1215 l 693 1215 l 571 956 l 419 956 m 515 -14 q 171 108 290 -14 q 51 439 51 229 q 167 785 51 661 q 514 908 283 908 q 659 897 594 908 q 781 864 724 885 l 781 700 q 528 749 663 749 q 308 672 375 749 q 242 439 242 596 q 531 144 242 144 q 660 156 596 144 q 782 192 724 168 l 782 26 q 660 -3 725 8 q 515 -14 596 -14 z "},"Č":{"ha":833,"x_min":51,"x_max":782,"o":"m 458 956 l 271 1197 l 418 1197 l 518 1058 l 621 1197 l 765 1197 l 578 956 l 458 956 m 515 -14 q 171 108 290 -14 q 51 439 51 229 q 167 785 51 661 q 514 908 283 908 q 659 897 594 908 q 781 864 724 885 l 781 700 q 528 749 663 749 q 308 672 375 749 q 242 439 242 596 q 531 144 242 144 q 660 156 596 144 q 782 192 724 168 l 782 26 q 660 -3 725 8 q 515 -14 596 -14 z "},"Ç":{"ha":833,"x_min":51,"x_max":782,"o":"m 483 -333 q 426 -330 460 -333 q 378 -322 393 -326 l 378 -228 q 463 -239 418 -239 q 549 -230 524 -239 q 574 -187 574 -221 q 544 -144 574 -151 q 467 -136 515 -136 l 406 -136 l 443 -10 q 152 128 253 10 q 51 439 51 247 q 167 785 51 661 q 514 908 283 908 q 659 897 594 908 q 781 864 724 885 l 781 700 q 528 749 663 749 q 308 672 375 749 q 242 439 242 596 q 531 144 242 144 q 660 156 596 144 q 782 192 724 168 l 782 26 q 680 1 733 11 q 564 -12 626 -10 l 547 -62 q 658 -97 621 -62 q 694 -189 694 -131 q 644 -295 694 -257 q 483 -333 593 -333 z "},"Ĉ":{"ha":833,"x_min":51,"x_max":782,"o":"m 229 956 l 417 1197 l 536 1197 l 724 956 l 579 956 l 476 1094 l 376 956 l 229 956 m 515 -14 q 171 108 290 -14 q 51 439 51 229 q 167 785 51 661 q 514 908 283 908 q 659 897 594 908 q 781 864 724 885 l 781 700 q 528 749 663 749 q 308 672 375 749 q 242 439 242 596 q 531 144 242 144 q 660 156 596 144 q 782 192 724 168 l 782 26 q 660 -3 725 8 q 515 -14 596 -14 z "},"Ċ":{"ha":833,"x_min":51,"x_max":782,"o":"m 422 990 l 422 1126 l 568 1126 l 568 990 l 422 990 m 515 -14 q 171 108 290 -14 q 51 439 51 229 q 167 785 51 661 q 514 908 283 908 q 659 897 594 908 q 781 864 724 885 l 781 700 q 528 749 663 749 q 308 672 375 749 q 242 439 242 596 q 531 144 242 144 q 660 156 596 144 q 782 192 724 168 l 782 26 q 660 -3 725 8 q 515 -14 596 -14 z "},"D":{"ha":911,"x_min":79,"x_max":860,"o":"m 79 0 l 79 894 l 454 894 q 758 791 656 894 q 860 443 860 688 q 759 106 860 213 q 454 0 658 0 l 79 0 m 267 144 l 428 144 q 561 169 507 144 q 642 258 615 193 q 669 443 669 322 q 644 628 669 564 q 567 715 619 692 q 428 739 514 739 l 267 739 l 267 144 z "},"Ð":{"ha":979,"x_min":53,"x_max":928,"o":"m 147 0 l 147 367 l 53 367 l 53 511 l 147 511 l 147 894 l 522 894 q 826 791 724 894 q 928 443 928 688 q 827 106 928 213 q 522 0 726 0 l 147 0 m 335 144 l 496 144 q 629 169 575 144 q 710 258 683 193 q 738 443 738 322 q 713 628 738 564 q 635 715 688 692 q 496 739 582 739 l 335 739 l 335 511 l 542 511 l 542 367 l 335 367 l 335 144 z "},"Ď":{"ha":911,"x_min":79,"x_max":860,"o":"m 367 986 l 179 1228 l 326 1228 l 426 1089 l 529 1228 l 674 1228 l 486 986 l 367 986 m 79 0 l 79 894 l 454 894 q 758 791 656 894 q 860 443 860 688 q 759 106 860 213 q 454 0 658 0 l 79 0 m 267 144 l 428 144 q 561 169 507 144 q 642 258 615 193 q 669 443 669 322 q 644 628 669 564 q 567 715 619 692 q 428 739 514 739 l 267 739 l 267 144 z "},"Đ":{"ha":979,"x_min":53,"x_max":928,"o":"m 147 0 l 147 367 l 53 367 l 53 511 l 147 511 l 147 894 l 522 894 q 826 791 724 894 q 928 443 928 688 q 827 106 928 213 q 522 0 726 0 l 147 0 m 335 144 l 496 144 q 629 169 575 144 q 710 258 683 193 q 738 443 738 322 q 713 628 738 564 q 635 715 688 692 q 496 739 582 739 l 335 739 l 335 511 l 542 511 l 542 367 l 335 367 l 335 144 z "},"Ḍ":{"ha":911,"x_min":79,"x_max":860,"o":"m 79 0 l 79 894 l 454 894 q 758 791 656 894 q 860 443 860 688 q 759 106 860 213 q 454 0 658 0 l 79 0 m 267 144 l 428 144 q 561 169 507 144 q 642 258 615 193 q 669 443 669 322 q 644 628 669 564 q 567 715 619 692 q 428 739 514 739 l 267 739 l 267 144 m 371 -251 l 371 -114 l 519 -114 l 519 -251 l 371 -251 z "},"Ḏ":{"ha":911,"x_min":79,"x_max":860,"o":"m 79 0 l 79 894 l 454 894 q 758 791 656 894 q 860 443 860 688 q 759 106 860 213 q 454 0 658 0 l 79 0 m 267 144 l 428 144 q 561 169 507 144 q 642 258 615 193 q 669 443 669 322 q 644 628 669 564 q 567 715 619 692 q 428 739 514 739 l 267 739 l 267 144 m 172 -253 l 172 -137 l 600 -137 l 600 -253 l 172 -253 z "},"E":{"ha":772,"x_min":79,"x_max":721,"o":"m 79 0 l 79 894 l 721 894 l 721 749 l 267 749 l 267 519 l 669 519 l 669 375 l 267 375 l 267 144 l 721 144 l 721 0 l 79 0 z "},"É":{"ha":772,"x_min":79,"x_max":721,"o":"m 308 956 l 419 1215 l 582 1215 l 460 956 l 308 956 m 79 0 l 79 894 l 721 894 l 721 749 l 267 749 l 267 519 l 669 519 l 669 375 l 267 375 l 267 144 l 721 144 l 721 0 l 79 0 z "},"Ĕ":{"ha":772,"x_min":79,"x_max":721,"o":"m 410 956 q 252 1014 313 956 q 192 1174 192 1072 l 317 1174 q 340 1097 317 1131 q 410 1064 363 1064 q 482 1097 458 1064 q 506 1174 506 1131 l 631 1174 q 569 1014 631 1072 q 410 956 508 956 m 79 0 l 79 894 l 721 894 l 721 749 l 267 749 l 267 519 l 669 519 l 669 375 l 267 375 l 267 144 l 721 144 l 721 0 l 79 0 z "},"Ě":{"ha":772,"x_min":79,"x_max":721,"o":"m 353 956 l 165 1197 l 313 1197 l 413 1058 l 515 1197 l 660 1197 l 472 956 l 353 956 m 79 0 l 79 894 l 721 894 l 721 749 l 267 749 l 267 519 l 669 519 l 669 375 l 267 375 l 267 144 l 721 144 l 721 0 l 79 0 z "},"Ê":{"ha":772,"x_min":79,"x_max":721,"o":"m 151 956 l 339 1197 l 458 1197 l 646 956 l 501 956 l 399 1094 l 299 956 l 151 956 m 79 0 l 79 894 l 721 894 l 721 749 l 267 749 l 267 519 l 669 519 l 669 375 l 267 375 l 267 144 l 721 144 l 721 0 l 79 0 z "},"Ế":{"ha":765,"x_min":79,"x_max":776,"o":"m 543 1117 l 635 1313 l 776 1313 l 675 1117 l 543 1117 m 156 954 l 331 1142 l 474 1142 l 649 954 l 497 954 l 403 1067 l 310 954 l 156 954 m 79 0 l 79 894 l 721 894 l 721 749 l 267 749 l 267 519 l 669 519 l 669 375 l 267 375 l 267 144 l 721 144 l 721 0 l 79 0 z "},"Ệ":{"ha":772,"x_min":79,"x_max":721,"o":"m 146 956 l 333 1197 l 453 1197 l 640 956 l 496 956 l 393 1094 l 293 956 l 146 956 m 79 0 l 79 894 l 721 894 l 721 749 l 267 749 l 267 519 l 669 519 l 669 375 l 267 375 l 267 144 l 721 144 l 721 0 l 79 0 m 319 -251 l 319 -114 l 468 -114 l 468 -251 l 319 -251 z "},"Ề":{"ha":772,"x_min":31,"x_max":721,"o":"m 132 1117 l 31 1313 l 172 1313 l 264 1117 l 132 1117 m 158 954 l 333 1142 l 476 1142 l 651 954 l 497 954 l 404 1067 l 310 954 l 158 954 m 79 0 l 79 894 l 721 894 l 721 749 l 267 749 l 267 519 l 669 519 l 669 375 l 267 375 l 267 144 l 721 144 l 721 0 l 79 0 z "},"Ể":{"ha":765,"x_min":79,"x_max":790,"o":"m 556 1086 l 556 1183 q 640 1198 621 1186 q 660 1232 660 1210 q 597 1269 660 1269 q 556 1265 575 1269 q 522 1253 538 1260 l 522 1339 q 572 1351 544 1346 q 638 1356 599 1356 q 751 1324 711 1356 q 790 1243 790 1293 q 765 1169 790 1197 q 685 1133 740 1142 l 685 1086 l 556 1086 m 156 954 l 331 1142 l 474 1142 l 649 954 l 497 954 l 403 1067 l 310 954 l 156 954 m 79 0 l 79 894 l 721 894 l 721 749 l 267 749 l 267 519 l 669 519 l 669 375 l 267 375 l 267 144 l 721 144 l 721 0 l 79 0 z "},"Ễ":{"ha":772,"x_min":79,"x_max":721,"o":"m 535 1163 q 456 1176 494 1163 q 381 1204 417 1190 q 311 1218 346 1218 q 186 1167 233 1218 l 186 1286 q 238 1317 206 1306 q 307 1329 271 1329 q 386 1315 350 1329 q 457 1288 422 1301 q 531 1274 492 1274 q 646 1326 608 1274 l 646 1207 q 603 1176 632 1189 q 535 1163 574 1163 m 157 954 l 332 1142 l 475 1142 l 650 954 l 499 954 l 404 1067 l 311 954 l 157 954 m 79 0 l 79 894 l 721 894 l 721 749 l 267 749 l 267 519 l 669 519 l 669 375 l 267 375 l 267 144 l 721 144 l 721 0 l 79 0 z "},"Ë":{"ha":772,"x_min":79,"x_max":721,"o":"m 196 990 l 196 1126 l 343 1126 l 343 990 l 196 990 m 468 990 l 468 1126 l 615 1126 l 615 990 l 468 990 m 79 0 l 79 894 l 721 894 l 721 749 l 267 749 l 267 519 l 669 519 l 669 375 l 267 375 l 267 144 l 721 144 l 721 0 l 79 0 z "},"Ė":{"ha":772,"x_min":79,"x_max":721,"o":"m 328 990 l 328 1126 l 474 1126 l 474 990 l 328 990 m 79 0 l 79 894 l 721 894 l 721 749 l 267 749 l 267 519 l 669 519 l 669 375 l 267 375 l 267 144 l 721 144 l 721 0 l 79 0 z "},"Ẹ":{"ha":772,"x_min":79,"x_max":721,"o":"m 79 0 l 79 894 l 721 894 l 721 749 l 267 749 l 267 519 l 669 519 l 669 375 l 267 375 l 267 144 l 721 144 l 721 0 l 79 0 m 321 -251 l 321 -114 l 469 -114 l 469 -251 l 321 -251 z "},"È":{"ha":772,"x_min":79,"x_max":721,"o":"m 346 956 l 224 1215 l 386 1215 l 497 956 l 346 956 m 79 0 l 79 894 l 721 894 l 721 749 l 267 749 l 267 519 l 669 519 l 669 375 l 267 375 l 267 144 l 721 144 l 721 0 l 79 0 z "},"Ẻ":{"ha":772,"x_min":79,"x_max":721,"o":"m 326 954 l 326 1067 q 427 1087 403 1071 q 451 1133 451 1103 q 426 1174 451 1161 q 356 1188 400 1188 q 311 1183 336 1188 q 269 1172 286 1179 l 269 1265 q 408 1283 324 1283 q 544 1247 497 1283 q 590 1150 590 1211 q 563 1061 590 1092 q 469 1018 536 1031 l 469 954 l 326 954 m 79 0 l 79 894 l 721 894 l 721 749 l 267 749 l 267 519 l 669 519 l 669 375 l 267 375 l 267 144 l 721 144 l 721 0 l 79 0 z "},"Ē":{"ha":772,"x_min":79,"x_max":721,"o":"m 178 1003 l 178 1118 l 606 1118 l 606 1003 l 178 1003 m 79 0 l 79 894 l 721 894 l 721 749 l 267 749 l 267 519 l 669 519 l 669 375 l 267 375 l 267 144 l 721 144 l 721 0 l 79 0 z "},"Ę":{"ha":772,"x_min":79,"x_max":721,"o":"m 79 0 l 79 894 l 721 894 l 721 749 l 267 749 l 267 519 l 669 519 l 669 375 l 267 375 l 267 144 l 721 144 l 721 0 l 661 0 q 594 -67 619 -31 q 568 -144 568 -104 q 585 -185 568 -174 q 631 -196 603 -196 q 667 -192 649 -196 q 699 -181 686 -187 l 699 -286 q 648 -300 681 -294 q 581 -306 615 -306 q 469 -274 517 -306 q 421 -179 421 -243 q 447 -80 421 -126 q 522 0 474 -33 l 79 0 z "},"Ẽ":{"ha":772,"x_min":79,"x_max":721,"o":"m 519 972 q 440 986 479 972 q 366 1014 401 1000 q 296 1028 331 1028 q 171 976 218 1028 l 171 1110 q 223 1141 190 1129 q 292 1153 256 1153 q 371 1139 335 1153 q 442 1111 407 1125 q 515 1097 476 1097 q 631 1150 593 1097 l 631 1017 q 588 985 617 999 q 519 972 558 972 m 79 0 l 79 894 l 721 894 l 721 749 l 267 749 l 267 519 l 669 519 l 669 375 l 267 375 l 267 144 l 721 144 l 721 0 l 79 0 z "},"F":{"ha":732,"x_min":79,"x_max":708,"o":"m 79 0 l 79 894 l 708 894 l 708 749 l 267 749 l 267 519 l 657 519 l 657 375 l 267 375 l 267 0 l 79 0 z "},"G":{"ha":894,"x_min":51,"x_max":843,"o":"m 510 -14 q 168 104 285 -14 q 51 432 51 222 q 169 781 51 654 q 521 908 288 908 q 667 899 601 908 q 790 871 732 890 l 790 710 q 667 740 732 731 q 535 749 603 749 q 308 670 375 749 q 242 432 242 592 q 513 144 242 144 q 605 152 560 144 q 685 172 650 160 l 685 381 l 476 381 l 476 500 l 843 500 l 843 63 q 715 10 797 33 q 510 -14 633 -14 z "},"Ğ":{"ha":894,"x_min":51,"x_max":843,"o":"m 511 956 q 353 1014 414 956 q 293 1174 293 1072 l 418 1174 q 441 1097 418 1131 q 511 1064 464 1064 q 583 1097 560 1064 q 607 1174 607 1131 l 732 1174 q 671 1014 732 1072 q 511 956 610 956 m 510 -14 q 168 104 285 -14 q 51 432 51 222 q 169 781 51 654 q 521 908 288 908 q 667 899 601 908 q 790 871 732 890 l 790 710 q 667 740 732 731 q 535 749 603 749 q 308 670 375 749 q 242 432 242 592 q 513 144 242 144 q 605 152 560 144 q 685 172 650 160 l 685 381 l 476 381 l 476 500 l 843 500 l 843 63 q 715 10 797 33 q 510 -14 633 -14 z "},"Ǧ":{"ha":894,"x_min":51,"x_max":843,"o":"m 450 954 l 263 1196 l 410 1196 l 510 1057 l 613 1196 l 757 1196 l 569 954 l 450 954 m 510 -14 q 168 104 285 -14 q 51 432 51 222 q 169 781 51 654 q 521 908 288 908 q 667 899 601 908 q 790 871 732 890 l 790 710 q 667 740 732 731 q 535 749 603 749 q 308 670 375 749 q 242 432 242 592 q 513 144 242 144 q 605 152 560 144 q 685 172 650 160 l 685 381 l 476 381 l 476 500 l 843 500 l 843 63 q 715 10 797 33 q 510 -14 633 -14 z "},"Ĝ":{"ha":894,"x_min":51,"x_max":843,"o":"m 253 956 l 440 1197 l 560 1197 l 747 956 l 603 956 l 500 1094 l 400 956 l 253 956 m 510 -14 q 168 104 285 -14 q 51 432 51 222 q 169 781 51 654 q 521 908 288 908 q 667 899 601 908 q 790 871 732 890 l 790 710 q 667 740 732 731 q 535 749 603 749 q 308 670 375 749 q 242 432 242 592 q 513 144 242 144 q 605 152 560 144 q 685 172 650 160 l 685 381 l 476 381 l 476 500 l 843 500 l 843 63 q 715 10 797 33 q 510 -14 633 -14 z "},"Ģ":{"ha":894,"x_min":51,"x_max":843,"o":"m 510 -14 q 168 104 285 -14 q 51 432 51 222 q 169 781 51 654 q 521 908 288 908 q 667 899 601 908 q 790 871 732 890 l 790 710 q 667 740 732 731 q 535 749 603 749 q 308 670 375 749 q 242 432 242 592 q 513 144 242 144 q 605 152 560 144 q 685 172 650 160 l 685 381 l 476 381 l 476 500 l 843 500 l 843 63 q 715 10 797 33 q 510 -14 633 -14 m 411 -331 l 454 -51 l 601 -51 l 532 -331 l 411 -331 z "},"Ġ":{"ha":894,"x_min":51,"x_max":843,"o":"m 447 990 l 447 1126 l 593 1126 l 593 990 l 447 990 m 510 -14 q 168 104 285 -14 q 51 432 51 222 q 169 781 51 654 q 521 908 288 908 q 667 899 601 908 q 790 871 732 890 l 790 710 q 667 740 732 731 q 535 749 603 749 q 308 670 375 749 q 242 432 242 592 q 513 144 242 144 q 605 152 560 144 q 685 172 650 160 l 685 381 l 476 381 l 476 500 l 843 500 l 843 63 q 715 10 797 33 q 510 -14 633 -14 z "},"Ḡ":{"ha":894,"x_min":51,"x_max":843,"o":"m 303 996 l 303 1111 l 731 1111 l 731 996 l 303 996 m 510 -14 q 168 104 285 -14 q 51 432 51 222 q 169 781 51 654 q 521 908 288 908 q 667 899 601 908 q 790 871 732 890 l 790 710 q 667 740 732 731 q 535 749 603 749 q 308 670 375 749 q 242 432 242 592 q 513 144 242 144 q 605 152 560 144 q 685 172 650 160 l 685 381 l 476 381 l 476 500 l 843 500 l 843 63 q 715 10 797 33 q 510 -14 633 -14 z "},"H":{"ha":924,"x_min":79,"x_max":844,"o":"m 79 0 l 79 894 l 267 894 l 267 519 l 657 519 l 657 894 l 844 894 l 844 0 l 657 0 l 657 375 l 267 375 l 267 0 l 79 0 z "},"Ħ":{"ha":925,"x_min":22,"x_max":903,"o":"m 79 0 l 79 626 l 22 626 l 22 772 l 79 772 l 79 894 l 267 894 l 267 772 l 657 772 l 657 894 l 844 894 l 844 772 l 903 772 l 903 626 l 844 626 l 844 0 l 657 0 l 657 375 l 267 375 l 267 0 l 79 0 m 267 519 l 657 519 l 657 626 l 267 626 l 267 519 z "},"Ḫ":{"ha":924,"x_min":79,"x_max":844,"o":"m 79 0 l 79 894 l 267 894 l 267 519 l 657 519 l 657 894 l 844 894 l 844 0 l 657 0 l 657 375 l 267 375 l 267 0 l 79 0 m 458 -301 q 301 -243 361 -301 q 240 -83 240 -185 l 365 -83 q 388 -160 365 -126 q 458 -193 411 -193 q 531 -160 507 -193 q 554 -83 554 -126 l 679 -83 q 618 -243 679 -185 q 458 -301 557 -301 z "},"Ĥ":{"ha":924,"x_min":79,"x_max":844,"o":"m 214 956 l 401 1197 l 521 1197 l 708 956 l 564 956 l 461 1094 l 361 956 l 214 956 m 79 0 l 79 894 l 267 894 l 267 519 l 657 519 l 657 894 l 844 894 l 844 0 l 657 0 l 657 375 l 267 375 l 267 0 l 79 0 z "},"Ḥ":{"ha":924,"x_min":79,"x_max":844,"o":"m 79 0 l 79 894 l 267 894 l 267 519 l 657 519 l 657 894 l 844 894 l 844 0 l 657 0 l 657 375 l 267 375 l 267 0 l 79 0 m 386 -251 l 386 -114 l 535 -114 l 535 -251 l 386 -251 z "},"I":{"ha":346,"x_min":79,"x_max":267,"o":"m 79 0 l 79 894 l 267 894 l 267 0 l 79 0 z "},"Ĳ":{"ha":936,"x_min":79,"x_max":863,"o":"m 553 -14 q 353 18 440 -14 l 353 176 q 515 146 422 146 q 638 181 601 146 q 675 297 675 217 l 675 894 l 863 894 l 863 256 q 553 -14 863 -14 m 79 0 l 79 894 l 267 894 l 267 0 l 79 0 z "},"Í":{"ha":347,"x_min":79,"x_max":371,"o":"m 97 956 l 208 1215 l 371 1215 l 249 956 l 97 956 m 79 0 l 79 894 l 267 894 l 267 0 l 79 0 z "},"Ĭ":{"ha":347,"x_min":-46,"x_max":393,"o":"m 172 974 q 15 1032 75 974 q -46 1192 -46 1090 l 79 1192 q 102 1115 79 1149 q 172 1082 125 1082 q 244 1115 221 1082 q 268 1192 268 1149 l 393 1192 q 332 1032 393 1090 q 172 974 271 974 m 79 0 l 79 894 l 267 894 l 267 0 l 79 0 z "},"Ǐ":{"ha":347,"x_min":-74,"x_max":421,"o":"m 114 956 l -74 1197 l 74 1197 l 174 1058 l 276 1197 l 421 1197 l 233 956 l 114 956 m 79 0 l 79 894 l 267 894 l 267 0 l 79 0 z "},"Î":{"ha":347,"x_min":-74,"x_max":421,"o":"m -74 956 l 114 1197 l 233 1197 l 421 956 l 276 956 l 174 1094 l 74 956 l -74 956 m 79 0 l 79 894 l 267 894 l 267 0 l 79 0 z "},"Ï":{"ha":346,"x_min":-36,"x_max":383,"o":"m -36 997 l -36 1133 l 111 1133 l 111 997 l -36 997 m 236 997 l 236 1133 l 383 1133 l 383 997 l 236 997 m 79 0 l 79 894 l 267 894 l 267 0 l 79 0 z "},"İ":{"ha":346,"x_min":79,"x_max":267,"o":"m 100 997 l 100 1133 l 246 1133 l 246 997 l 100 997 m 79 0 l 79 894 l 267 894 l 267 0 l 79 0 z "},"Ị":{"ha":346,"x_min":79,"x_max":267,"o":"m 79 0 l 79 894 l 267 894 l 267 0 l 79 0 m 99 -251 l 99 -114 l 247 -114 l 247 -251 l 99 -251 z "},"Ì":{"ha":346,"x_min":-26,"x_max":267,"o":"m 96 956 l -26 1215 l 136 1215 l 247 956 l 96 956 m 79 0 l 79 894 l 267 894 l 267 0 l 79 0 z "},"Ỉ":{"ha":347,"x_min":43,"x_max":364,"o":"m 100 954 l 100 1067 q 201 1087 176 1071 q 225 1133 225 1103 q 199 1174 225 1161 q 129 1188 174 1188 q 85 1183 110 1188 q 43 1172 60 1179 l 43 1265 q 182 1283 97 1283 q 317 1247 271 1283 q 364 1150 364 1211 q 337 1061 364 1092 q 243 1018 310 1031 l 243 954 l 100 954 m 79 0 l 79 894 l 267 894 l 267 0 l 79 0 z "},"Ī":{"ha":347,"x_min":-40,"x_max":388,"o":"m -40 1003 l -40 1118 l 388 1118 l 388 1003 l -40 1003 m 79 0 l 79 894 l 267 894 l 267 0 l 79 0 z "},"Į":{"ha":347,"x_min":8,"x_max":286,"o":"m 79 0 l 79 894 l 267 894 l 267 0 l 249 0 q 181 -67 207 -31 q 156 -144 156 -104 q 173 -185 156 -174 q 218 -196 190 -196 q 255 -192 236 -196 q 286 -181 274 -187 l 286 -286 q 235 -300 268 -294 q 168 -306 203 -306 q 56 -274 104 -306 q 8 -179 8 -243 q 35 -80 8 -126 q 110 0 61 -33 l 79 0 z "},"Ĩ":{"ha":347,"x_min":-57,"x_max":403,"o":"m 292 972 q 213 986 251 972 q 138 1014 174 1000 q 68 1028 103 1028 q -57 976 -10 1028 l -57 1110 q -5 1141 -37 1129 q 64 1153 28 1153 q 143 1139 107 1153 q 214 1111 179 1125 q 288 1097 249 1097 q 403 1150 365 1097 l 403 1017 q 360 985 389 999 q 292 972 331 972 m 79 0 l 79 894 l 267 894 l 267 0 l 79 0 z "},"J":{"ha":606,"x_min":24,"x_max":533,"o":"m 224 -14 q 24 18 111 -14 l 24 176 q 186 146 93 146 q 309 181 272 146 q 346 297 346 217 l 346 894 l 533 894 l 533 256 q 224 -14 533 -14 z "},"Ĵ":{"ha":606,"x_min":24,"x_max":689,"o":"m 194 956 l 382 1197 l 501 1197 l 689 956 l 544 956 l 442 1094 l 342 956 l 194 956 m 224 -14 q 24 18 111 -14 l 24 176 q 186 146 93 146 q 309 181 272 146 q 346 297 346 217 l 346 894 l 533 894 l 533 256 q 224 -14 533 -14 z "},"K":{"ha":894,"x_min":79,"x_max":843,"o":"m 79 0 l 79 894 l 267 894 l 267 515 l 611 894 l 826 894 l 503 532 l 843 0 l 643 0 l 386 413 l 267 283 l 267 0 l 79 0 z "},"Ķ":{"ha":894,"x_min":79,"x_max":843,"o":"m 79 0 l 79 894 l 267 894 l 267 515 l 611 894 l 826 894 l 503 532 l 843 0 l 643 0 l 386 413 l 267 283 l 267 0 l 79 0 m 336 -331 l 379 -51 l 526 -51 l 457 -331 l 336 -331 z "},"L":{"ha":731,"x_min":79,"x_max":707,"o":"m 79 0 l 79 894 l 267 894 l 267 144 l 707 144 l 707 0 l 79 0 z "},"Ĺ":{"ha":731,"x_min":79,"x_max":707,"o":"m 101 956 l 213 1215 l 375 1215 l 253 956 l 101 956 m 79 0 l 79 894 l 267 894 l 267 144 l 707 144 l 707 0 l 79 0 z "},"Ľ":{"ha":731,"x_min":79,"x_max":707,"o":"m 79 0 l 79 894 l 267 894 l 267 144 l 707 144 l 707 0 l 79 0 m 447 615 l 490 894 l 638 894 l 568 615 l 447 615 z "},"Ļ":{"ha":731,"x_min":79,"x_max":707,"o":"m 79 0 l 79 894 l 267 894 l 267 144 l 707 144 l 707 0 l 79 0 m 299 -331 l 342 -51 l 489 -51 l 419 -331 l 299 -331 z "},"Ŀ":{"ha":731,"x_min":79,"x_max":707,"o":"m 79 0 l 79 894 l 267 894 l 267 144 l 707 144 l 707 0 l 79 0 m 471 383 l 471 519 l 617 519 l 617 383 l 471 383 z "},"Ḷ":{"ha":731,"x_min":79,"x_max":707,"o":"m 79 0 l 79 894 l 267 894 l 267 144 l 707 144 l 707 0 l 79 0 m 308 -251 l 308 -114 l 457 -114 l 457 -251 l 308 -251 z "},"Ḹ":{"ha":732,"x_min":-14,"x_max":708,"o":"m -14 996 l -14 1111 l 414 1111 l 414 996 l -14 996 m 81 0 l 81 894 l 268 894 l 268 144 l 708 144 l 708 0 l 81 0 m 310 -251 l 310 -114 l 458 -114 l 458 -251 l 310 -251 z "},"Ḻ":{"ha":731,"x_min":79,"x_max":707,"o":"m 79 0 l 79 894 l 267 894 l 267 144 l 707 144 l 707 0 l 79 0 m 171 -219 l 171 -104 l 599 -104 l 599 -219 l 171 -219 z "},"Ł":{"ha":731,"x_min":-25,"x_max":707,"o":"m 79 0 l 79 358 l -25 313 l -25 447 l 79 493 l 79 894 l 267 894 l 267 575 l 440 651 l 440 517 l 267 440 l 267 144 l 707 144 l 707 0 l 79 0 z "},"M":{"ha":1060,"x_min":79,"x_max":981,"o":"m 79 0 l 79 894 l 268 894 l 531 357 l 793 894 l 981 894 l 981 0 l 793 0 l 793 582 l 585 154 l 476 154 l 267 582 l 267 0 l 79 0 z "},"Ṃ":{"ha":1060,"x_min":79,"x_max":981,"o":"m 79 0 l 79 894 l 268 894 l 531 357 l 793 894 l 981 894 l 981 0 l 793 0 l 793 582 l 585 154 l 476 154 l 267 582 l 267 0 l 79 0 m 474 -251 l 474 -114 l 622 -114 l 622 -251 l 474 -251 z "},"N":{"ha":932,"x_min":79,"x_max":853,"o":"m 79 0 l 79 894 l 242 894 l 665 299 l 665 894 l 853 894 l 853 0 l 690 0 l 267 596 l 267 0 l 79 0 z "},"Ń":{"ha":932,"x_min":79,"x_max":853,"o":"m 375 956 l 486 1215 l 649 1215 l 526 956 l 375 956 m 79 0 l 79 894 l 242 894 l 665 299 l 665 894 l 853 894 l 853 0 l 690 0 l 267 596 l 267 0 l 79 0 z "},"Ň":{"ha":932,"x_min":79,"x_max":853,"o":"m 410 956 l 222 1197 l 369 1197 l 469 1058 l 572 1197 l 717 1197 l 529 956 l 410 956 m 79 0 l 79 894 l 242 894 l 665 299 l 665 894 l 853 894 l 853 0 l 690 0 l 267 596 l 267 0 l 79 0 z "},"Ņ":{"ha":932,"x_min":79,"x_max":853,"o":"m 79 0 l 79 894 l 242 894 l 665 299 l 665 894 l 853 894 l 853 0 l 690 0 l 267 596 l 267 0 l 79 0 m 361 -331 l 404 -51 l 551 -51 l 482 -331 l 361 -331 z "},"Ṅ":{"ha":932,"x_min":79,"x_max":853,"o":"m 404 990 l 404 1126 l 550 1126 l 550 990 l 404 990 m 79 0 l 79 894 l 242 894 l 665 299 l 665 894 l 853 894 l 853 0 l 690 0 l 267 596 l 267 0 l 79 0 z "},"Ṇ":{"ha":932,"x_min":79,"x_max":853,"o":"m 79 0 l 79 894 l 242 894 l 665 299 l 665 894 l 853 894 l 853 0 l 690 0 l 267 596 l 267 0 l 79 0 m 394 -251 l 394 -114 l 543 -114 l 543 -251 l 394 -251 z "},"Ŋ":{"ha":932,"x_min":79,"x_max":853,"o":"m 625 -325 q 475 -300 538 -325 l 475 -171 q 519 -181 497 -178 q 558 -185 540 -185 q 640 -162 615 -185 q 665 -89 665 -139 l 665 35 l 267 596 l 267 0 l 79 0 l 79 894 l 242 894 l 665 299 l 665 894 l 853 894 l 853 -107 q 797 -265 853 -204 q 625 -325 740 -325 z "},"Ṉ":{"ha":932,"x_min":79,"x_max":853,"o":"m 79 0 l 79 894 l 242 894 l 665 299 l 665 894 l 853 894 l 853 0 l 690 0 l 267 596 l 267 0 l 79 0 m 257 -215 l 257 -100 l 685 -100 l 685 -215 l 257 -215 z "},"Ñ":{"ha":932,"x_min":79,"x_max":853,"o":"m 596 972 q 517 986 556 972 q 442 1014 478 1000 q 372 1028 407 1028 q 247 976 294 1028 l 247 1110 q 299 1141 267 1129 q 368 1153 332 1153 q 447 1139 411 1153 q 518 1111 483 1125 q 592 1097 553 1097 q 707 1150 669 1097 l 707 1017 q 664 985 693 999 q 596 972 635 972 m 79 0 l 79 894 l 242 894 l 665 299 l 665 894 l 853 894 l 853 0 l 690 0 l 267 596 l 267 0 l 79 0 z "},"O":{"ha":972,"x_min":51,"x_max":921,"o":"m 486 -14 q 51 443 51 -14 q 161 799 51 689 q 486 908 271 908 q 811 799 701 908 q 921 443 921 689 q 486 -14 921 -14 m 486 146 q 672 219 613 146 q 731 443 731 292 q 672 680 731 611 q 486 749 613 749 q 301 680 360 749 q 242 443 242 611 q 301 219 242 292 q 486 146 360 146 z "},"Ó":{"ha":972,"x_min":51,"x_max":921,"o":"m 400 956 l 511 1215 l 674 1215 l 551 956 l 400 956 m 486 -14 q 51 443 51 -14 q 161 799 51 689 q 486 908 271 908 q 811 799 701 908 q 921 443 921 689 q 486 -14 921 -14 m 486 146 q 672 219 613 146 q 731 443 731 292 q 672 680 731 611 q 486 749 613 749 q 301 680 360 749 q 242 443 242 611 q 301 219 242 292 q 486 146 360 146 z "},"Ŏ":{"ha":972,"x_min":51,"x_max":921,"o":"m 486 956 q 328 1014 389 956 q 268 1174 268 1072 l 393 1174 q 416 1097 393 1131 q 486 1064 439 1064 q 558 1097 535 1064 q 582 1174 582 1131 l 707 1174 q 646 1014 707 1072 q 486 956 585 956 m 486 -14 q 51 443 51 -14 q 161 799 51 689 q 486 908 271 908 q 811 799 701 908 q 921 443 921 689 q 486 -14 921 -14 m 486 146 q 672 219 613 146 q 731 443 731 292 q 672 680 731 611 q 486 749 613 749 q 301 680 360 749 q 242 443 242 611 q 301 219 242 292 q 486 146 360 146 z "},"Ǒ":{"ha":972,"x_min":51,"x_max":921,"o":"m 426 956 l 239 1197 l 386 1197 l 486 1058 l 589 1197 l 733 1197 l 546 956 l 426 956 m 486 -14 q 51 443 51 -14 q 161 799 51 689 q 486 908 271 908 q 811 799 701 908 q 921 443 921 689 q 486 -14 921 -14 m 486 146 q 672 219 613 146 q 731 443 731 292 q 672 680 731 611 q 486 749 613 749 q 301 680 360 749 q 242 443 242 611 q 301 219 242 292 q 486 146 360 146 z "},"Ô":{"ha":972,"x_min":51,"x_max":921,"o":"m 239 956 l 426 1197 l 546 1197 l 733 956 l 589 956 l 486 1094 l 386 956 l 239 956 m 486 -14 q 51 443 51 -14 q 161 799 51 689 q 486 908 271 908 q 811 799 701 908 q 921 443 921 689 q 486 -14 921 -14 m 486 146 q 672 219 613 146 q 731 443 731 292 q 672 680 731 611 q 486 749 613 749 q 301 680 360 749 q 242 443 242 611 q 301 219 242 292 q 486 146 360 146 z "},"Ố":{"ha":972,"x_min":51,"x_max":921,"o":"m 631 1117 l 722 1313 l 864 1313 l 763 1117 l 631 1117 m 243 954 l 418 1142 l 561 1142 l 736 954 l 585 954 l 490 1067 l 397 954 l 243 954 m 486 -14 q 51 443 51 -14 q 161 799 51 689 q 486 908 271 908 q 811 799 701 908 q 921 443 921 689 q 486 -14 921 -14 m 486 146 q 672 219 613 146 q 731 443 731 292 q 672 680 731 611 q 486 749 613 749 q 301 680 360 749 q 242 443 242 611 q 301 219 242 292 q 486 146 360 146 z "},"Ộ":{"ha":972,"x_min":51,"x_max":921,"o":"m 239 969 l 426 1211 l 546 1211 l 733 969 l 589 969 l 486 1108 l 386 969 l 239 969 m 486 -14 q 51 443 51 -14 q 161 799 51 689 q 486 908 271 908 q 811 799 701 908 q 921 443 921 689 q 486 -14 921 -14 m 486 146 q 672 219 613 146 q 731 443 731 292 q 672 680 731 611 q 486 749 613 749 q 301 680 360 749 q 242 443 242 611 q 301 219 242 292 q 486 146 360 146 m 413 -251 l 413 -114 l 561 -114 l 561 -251 l 413 -251 z "},"Ồ":{"ha":972,"x_min":51,"x_max":921,"o":"m 210 1117 l 108 1313 l 250 1313 l 342 1117 l 210 1117 m 236 954 l 411 1142 l 554 1142 l 729 954 l 575 954 l 482 1067 l 388 954 l 236 954 m 486 -14 q 51 443 51 -14 q 161 799 51 689 q 486 908 271 908 q 811 799 701 908 q 921 443 921 689 q 486 -14 921 -14 m 486 146 q 672 219 613 146 q 731 443 731 292 q 672 680 731 611 q 486 749 613 749 q 301 680 360 749 q 242 443 242 611 q 301 219 242 292 q 486 146 360 146 z "},"Ổ":{"ha":972,"x_min":51,"x_max":921,"o":"m 635 1086 l 635 1183 q 719 1198 700 1186 q 739 1232 739 1210 q 676 1269 739 1269 q 635 1265 654 1269 q 601 1253 617 1260 l 601 1339 q 651 1351 624 1346 q 717 1356 678 1356 q 830 1324 790 1356 q 869 1243 869 1293 q 844 1169 869 1197 q 764 1133 819 1142 l 764 1086 l 635 1086 m 235 954 l 410 1142 l 553 1142 l 728 954 l 576 954 l 482 1067 l 389 954 l 235 954 m 486 -14 q 51 443 51 -14 q 161 799 51 689 q 486 908 271 908 q 811 799 701 908 q 921 443 921 689 q 486 -14 921 -14 m 486 146 q 672 219 613 146 q 731 443 731 292 q 672 680 731 611 q 486 749 613 749 q 301 680 360 749 q 242 443 242 611 q 301 219 242 292 q 486 146 360 146 z "},"Ỗ":{"ha":972,"x_min":51,"x_max":921,"o":"m 604 1164 q 525 1178 564 1164 q 451 1206 486 1192 q 381 1219 415 1219 q 256 1168 303 1219 l 256 1288 q 308 1319 275 1307 q 376 1331 340 1331 q 456 1317 419 1331 q 526 1289 492 1303 q 600 1275 561 1275 q 715 1328 678 1275 l 715 1208 q 672 1177 701 1190 q 604 1164 643 1164 m 239 954 l 414 1142 l 557 1142 l 732 954 l 581 954 l 486 1067 l 393 954 l 239 954 m 486 -14 q 51 443 51 -14 q 161 799 51 689 q 486 908 271 908 q 811 799 701 908 q 921 443 921 689 q 486 -14 921 -14 m 486 146 q 672 219 613 146 q 731 443 731 292 q 672 680 731 611 q 486 749 613 749 q 301 680 360 749 q 242 443 242 611 q 301 219 242 292 q 486 146 360 146 z "},"Ö":{"ha":972,"x_min":51,"x_max":921,"o":"m 276 990 l 276 1126 l 424 1126 l 424 990 l 276 990 m 549 990 l 549 1126 l 696 1126 l 696 990 l 549 990 m 486 -14 q 51 443 51 -14 q 161 799 51 689 q 486 908 271 908 q 811 799 701 908 q 921 443 921 689 q 486 -14 921 -14 m 486 146 q 672 219 613 146 q 731 443 731 292 q 672 680 731 611 q 486 749 613 749 q 301 680 360 749 q 242 443 242 611 q 301 219 242 292 q 486 146 360 146 z "},"Ọ":{"ha":972,"x_min":51,"x_max":921,"o":"m 486 -14 q 51 443 51 -14 q 161 799 51 689 q 486 908 271 908 q 811 799 701 908 q 921 443 921 689 q 486 -14 921 -14 m 486 146 q 672 219 613 146 q 731 443 731 292 q 672 680 731 611 q 486 749 613 749 q 301 680 360 749 q 242 443 242 611 q 301 219 242 292 q 486 146 360 146 m 413 -251 l 413 -114 l 561 -114 l 561 -251 l 413 -251 z "},"Ò":{"ha":972,"x_min":51,"x_max":921,"o":"m 418 956 l 296 1215 l 458 1215 l 569 956 l 418 956 m 486 -14 q 51 443 51 -14 q 161 799 51 689 q 486 908 271 908 q 811 799 701 908 q 921 443 921 689 q 486 -14 921 -14 m 486 146 q 672 219 613 146 q 731 443 731 292 q 672 680 731 611 q 486 749 613 749 q 301 680 360 749 q 242 443 242 611 q 301 219 242 292 q 486 146 360 146 z "},"Ỏ":{"ha":972,"x_min":51,"x_max":921,"o":"m 415 954 l 415 1067 q 516 1087 492 1071 q 540 1133 540 1103 q 515 1174 540 1161 q 444 1188 489 1188 q 400 1183 425 1188 q 358 1172 375 1179 l 358 1265 q 497 1283 413 1283 q 633 1247 586 1283 q 679 1150 679 1211 q 652 1061 679 1092 q 558 1018 625 1031 l 558 954 l 415 954 m 486 -14 q 51 443 51 -14 q 161 799 51 689 q 486 908 271 908 q 811 799 701 908 q 921 443 921 689 q 486 -14 921 -14 m 486 146 q 672 219 613 146 q 731 443 731 292 q 672 680 731 611 q 486 749 613 749 q 301 680 360 749 q 242 443 242 611 q 301 219 242 292 q 486 146 360 146 z "},"Ơ":{"ha":1079,"x_min":51,"x_max":1065,"o":"m 486 -14 q 51 443 51 -14 q 161 799 51 689 q 486 908 271 908 q 797 806 693 908 q 901 840 871 808 q 931 956 931 872 l 1065 956 q 1019 765 1065 825 q 879 689 974 704 q 921 443 921 593 q 486 -14 921 -14 m 486 146 q 672 219 613 146 q 731 443 731 292 q 672 680 731 611 q 486 749 613 749 q 301 680 360 749 q 242 443 242 611 q 301 219 242 292 q 486 146 360 146 z "},"Ớ":{"ha":1079,"x_min":51,"x_max":1065,"o":"m 424 956 l 535 1215 l 697 1215 l 575 956 l 424 956 m 486 -14 q 51 443 51 -14 q 161 799 51 689 q 486 908 271 908 q 797 806 693 908 q 901 840 871 808 q 931 956 931 872 l 1065 956 q 1019 765 1065 825 q 879 689 974 704 q 921 443 921 593 q 486 -14 921 -14 m 486 146 q 672 219 613 146 q 731 443 731 292 q 672 680 731 611 q 486 749 613 749 q 301 680 360 749 q 242 443 242 611 q 301 219 242 292 q 486 146 360 146 z "},"Ợ":{"ha":1079,"x_min":51,"x_max":1065,"o":"m 486 -14 q 51 443 51 -14 q 161 799 51 689 q 486 908 271 908 q 797 806 693 908 q 901 840 871 808 q 931 956 931 872 l 1065 956 q 1019 765 1065 825 q 879 689 974 704 q 921 443 921 593 q 486 -14 921 -14 m 486 146 q 672 219 613 146 q 731 443 731 292 q 672 680 731 611 q 486 749 613 749 q 301 680 360 749 q 242 443 242 611 q 301 219 242 292 q 486 146 360 146 m 417 -251 l 417 -114 l 565 -114 l 565 -251 l 417 -251 z "},"Ờ":{"ha":1079,"x_min":51,"x_max":1065,"o":"m 446 956 l 324 1215 l 486 1215 l 597 956 l 446 956 m 486 -14 q 51 443 51 -14 q 161 799 51 689 q 486 908 271 908 q 797 806 693 908 q 901 840 871 808 q 931 956 931 872 l 1065 956 q 1019 765 1065 825 q 879 689 974 704 q 921 443 921 593 q 486 -14 921 -14 m 486 146 q 672 219 613 146 q 731 443 731 292 q 672 680 731 611 q 486 749 613 749 q 301 680 360 749 q 242 443 242 611 q 301 219 242 292 q 486 146 360 146 z "},"Ở":{"ha":1079,"x_min":51,"x_max":1065,"o":"m 421 954 l 421 1067 q 522 1087 497 1071 q 546 1133 546 1103 q 520 1174 546 1161 q 450 1188 494 1188 q 406 1183 431 1188 q 364 1172 381 1179 l 364 1265 q 503 1283 418 1283 q 638 1247 592 1283 q 685 1150 685 1211 q 658 1061 685 1092 q 564 1018 631 1031 l 564 954 l 421 954 m 486 -14 q 51 443 51 -14 q 161 799 51 689 q 486 908 271 908 q 797 806 693 908 q 901 840 871 808 q 931 956 931 872 l 1065 956 q 1019 765 1065 825 q 879 689 974 704 q 921 443 921 593 q 486 -14 921 -14 m 486 146 q 672 219 613 146 q 731 443 731 292 q 672 680 731 611 q 486 749 613 749 q 301 680 360 749 q 242 443 242 611 q 301 219 242 292 q 486 146 360 146 z "},"Ỡ":{"ha":1079,"x_min":51,"x_max":1065,"o":"m 621 968 q 542 982 581 968 q 467 1010 503 996 q 397 1024 432 1024 q 272 972 319 1024 l 272 1106 q 324 1137 292 1125 q 393 1149 357 1149 q 472 1135 436 1149 q 543 1107 508 1121 q 617 1093 578 1093 q 732 1146 694 1093 l 732 1013 q 689 981 718 994 q 621 968 660 968 m 486 -14 q 51 443 51 -14 q 161 799 51 689 q 486 908 271 908 q 797 806 693 908 q 901 840 871 808 q 931 956 931 872 l 1065 956 q 1019 765 1065 825 q 879 689 974 704 q 921 443 921 593 q 486 -14 921 -14 m 486 146 q 672 219 613 146 q 731 443 731 292 q 672 680 731 611 q 486 749 613 749 q 301 680 360 749 q 242 443 242 611 q 301 219 242 292 q 486 146 360 146 z "},"Ő":{"ha":972,"x_min":51,"x_max":921,"o":"m 214 954 l 324 1199 l 490 1199 l 363 954 l 214 954 m 531 954 l 640 1199 l 807 1199 l 679 954 l 531 954 m 486 -14 q 51 443 51 -14 q 161 799 51 689 q 486 908 271 908 q 811 799 701 908 q 921 443 921 689 q 486 -14 921 -14 m 486 146 q 672 219 613 146 q 731 443 731 292 q 672 680 731 611 q 486 749 613 749 q 301 680 360 749 q 242 443 242 611 q 301 219 242 292 q 486 146 360 146 z "},"Ō":{"ha":972,"x_min":51,"x_max":921,"o":"m 268 1004 l 268 1119 l 696 1119 l 696 1004 l 268 1004 m 486 -14 q 51 443 51 -14 q 161 799 51 689 q 486 908 271 908 q 811 799 701 908 q 921 443 921 689 q 486 -14 921 -14 m 486 146 q 672 219 613 146 q 731 443 731 292 q 672 680 731 611 q 486 749 613 749 q 301 680 360 749 q 242 443 242 611 q 301 219 242 292 q 486 146 360 146 z "},"Ø":{"ha":972,"x_min":51,"x_max":921,"o":"m 224 -74 l 263 28 q 51 443 51 124 q 161 799 51 689 q 486 908 271 908 q 594 900 544 908 l 618 963 l 725 963 l 692 875 q 863 726 806 832 q 921 443 921 621 q 486 -14 921 -14 q 357 -1 415 -14 l 331 -74 l 224 -74 m 325 194 l 535 746 q 511 748 524 747 q 486 749 499 749 q 301 680 360 749 q 242 443 242 611 q 325 194 242 264 m 486 146 q 672 219 613 146 q 731 443 731 292 q 706 617 731 551 q 631 715 682 683 l 417 151 q 450 147 432 149 q 486 146 468 146 z "},"Ǿ":{"ha":972,"x_min":51,"x_max":921,"o":"m 374 956 l 485 1215 l 647 1215 l 525 956 l 374 956 m 224 -74 l 263 28 q 51 443 51 124 q 161 799 51 689 q 486 908 271 908 q 594 900 544 908 l 618 963 l 725 963 l 692 875 q 863 726 806 832 q 921 443 921 621 q 486 -14 921 -14 q 357 -1 415 -14 l 331 -74 l 224 -74 m 325 194 l 535 746 q 511 748 524 747 q 486 749 499 749 q 301 680 360 749 q 242 443 242 611 q 325 194 242 264 m 486 146 q 672 219 613 146 q 731 443 731 292 q 706 617 731 551 q 631 715 682 683 l 417 151 q 450 147 432 149 q 486 146 468 146 z "},"Õ":{"ha":972,"x_min":51,"x_max":921,"o":"m 606 986 q 526 1000 565 986 q 452 1028 488 1014 q 382 1042 417 1042 q 257 990 304 1042 l 257 1124 q 309 1155 276 1143 q 378 1167 342 1167 q 457 1153 421 1167 q 528 1125 493 1139 q 601 1111 563 1111 q 717 1164 679 1111 l 717 1031 q 674 999 703 1013 q 606 986 644 986 m 486 -14 q 51 443 51 -14 q 161 799 51 689 q 486 908 271 908 q 811 799 701 908 q 921 443 921 689 q 486 -14 921 -14 m 486 146 q 672 219 613 146 q 731 443 731 292 q 672 680 731 611 q 486 749 613 749 q 301 680 360 749 q 242 443 242 611 q 301 219 242 292 q 486 146 360 146 z "},"Œ":{"ha":1426,"x_min":51,"x_max":1375,"o":"m 486 -14 q 51 443 51 -14 q 161 799 51 689 q 486 908 271 908 q 733 857 638 908 l 733 894 l 1375 894 l 1375 749 l 921 749 l 921 519 l 1324 519 l 1324 375 l 921 375 l 921 144 l 1375 144 l 1375 0 l 733 0 l 733 40 q 486 -14 635 -14 m 486 146 q 672 219 613 146 q 731 443 731 292 q 672 680 731 611 q 486 749 613 749 q 301 680 360 749 q 242 443 242 611 q 301 219 242 292 q 486 146 360 146 z "},"P":{"ha":831,"x_min":79,"x_max":806,"o":"m 79 0 l 79 894 l 499 894 q 672 854 604 894 q 772 744 739 814 q 806 586 806 675 q 767 426 806 496 q 659 319 729 357 q 493 281 589 281 l 267 281 l 267 0 l 79 0 m 267 429 l 454 429 q 576 472 535 429 q 617 586 617 514 q 578 705 617 664 q 461 746 539 746 l 267 746 l 267 429 z "},"Þ":{"ha":857,"x_min":79,"x_max":806,"o":"m 79 0 l 79 894 l 267 894 l 267 753 l 499 753 q 672 713 604 753 q 772 603 739 672 q 806 444 806 533 q 767 284 806 353 q 659 177 729 215 q 493 139 589 139 l 267 139 l 267 0 l 79 0 m 267 288 l 454 288 q 576 330 535 288 q 617 444 617 372 q 578 563 617 522 q 461 604 539 604 l 267 604 l 267 288 z "},"Q":{"ha":972,"x_min":51,"x_max":921,"o":"m 613 -239 q 449 -179 501 -239 q 393 -8 396 -119 q 51 443 51 38 q 161 799 51 689 q 486 908 271 908 q 811 799 701 908 q 921 443 921 689 q 553 -11 921 22 q 580 -86 556 -67 q 656 -106 604 -106 q 706 -101 679 -106 q 754 -90 732 -97 l 754 -221 q 692 -233 731 -228 q 613 -239 653 -239 m 486 146 q 672 219 613 146 q 731 443 731 292 q 672 680 731 611 q 486 749 613 749 q 301 680 360 749 q 242 443 242 611 q 301 219 242 292 q 486 146 360 146 z "},"R":{"ha":858,"x_min":79,"x_max":807,"o":"m 79 0 l 79 894 l 508 894 q 735 813 663 894 q 807 594 807 732 q 760 439 807 504 q 629 344 714 374 q 665 306 651 326 q 692 250 678 285 l 800 0 l 606 0 l 500 240 q 469 283 486 271 q 414 296 453 296 l 267 296 l 267 0 l 79 0 m 267 451 l 460 451 q 575 484 533 451 q 617 594 617 517 q 581 704 617 669 q 471 739 544 739 l 267 739 l 267 451 z "},"Ŕ":{"ha":858,"x_min":79,"x_max":807,"o":"m 324 956 l 435 1215 l 597 1215 l 475 956 l 324 956 m 79 0 l 79 894 l 508 894 q 735 813 663 894 q 807 594 807 732 q 760 439 807 504 q 629 344 714 374 q 665 306 651 326 q 692 250 678 285 l 800 0 l 606 0 l 500 240 q 469 283 486 271 q 414 296 453 296 l 267 296 l 267 0 l 79 0 m 267 451 l 460 451 q 575 484 533 451 q 617 594 617 517 q 581 704 617 669 q 471 739 544 739 l 267 739 l 267 451 z "},"Ř":{"ha":858,"x_min":79,"x_max":807,"o":"m 358 956 l 171 1197 l 318 1197 l 418 1058 l 521 1197 l 665 1197 l 478 956 l 358 956 m 79 0 l 79 894 l 508 894 q 735 813 663 894 q 807 594 807 732 q 760 439 807 504 q 629 344 714 374 q 665 306 651 326 q 692 250 678 285 l 800 0 l 606 0 l 500 240 q 469 283 486 271 q 414 296 453 296 l 267 296 l 267 0 l 79 0 m 267 451 l 460 451 q 575 484 533 451 q 617 594 617 517 q 581 704 617 669 q 471 739 544 739 l 267 739 l 267 451 z "},"Ŗ":{"ha":858,"x_min":79,"x_max":807,"o":"m 79 0 l 79 894 l 508 894 q 735 813 663 894 q 807 594 807 732 q 760 439 807 504 q 629 344 714 374 q 665 306 651 326 q 692 250 678 285 l 800 0 l 606 0 l 500 240 q 469 283 486 271 q 414 296 453 296 l 267 296 l 267 0 l 79 0 m 267 451 l 460 451 q 575 484 533 451 q 617 594 617 517 q 581 704 617 669 q 471 739 544 739 l 267 739 l 267 451 m 299 -331 l 342 -51 l 489 -51 l 419 -331 l 299 -331 z "},"Ṛ":{"ha":858,"x_min":79,"x_max":807,"o":"m 79 0 l 79 894 l 508 894 q 735 813 663 894 q 807 594 807 732 q 760 439 807 504 q 629 344 714 374 q 665 306 651 326 q 692 250 678 285 l 800 0 l 606 0 l 500 240 q 469 283 486 271 q 414 296 453 296 l 267 296 l 267 0 l 79 0 m 267 451 l 460 451 q 575 484 533 451 q 617 594 617 517 q 581 704 617 669 q 471 739 544 739 l 267 739 l 267 451 m 358 -251 l 358 -114 l 507 -114 l 507 -251 l 358 -251 z "},"Ṝ":{"ha":858,"x_min":79,"x_max":807,"o":"m 196 996 l 196 1111 l 624 1111 l 624 996 l 196 996 m 79 0 l 79 894 l 508 894 q 735 813 663 894 q 807 594 807 732 q 760 439 807 504 q 629 344 714 374 q 665 306 651 326 q 692 250 678 285 l 800 0 l 606 0 l 500 240 q 469 283 486 271 q 414 296 453 296 l 267 296 l 267 0 l 79 0 m 267 451 l 460 451 q 575 484 533 451 q 617 594 617 517 q 581 704 617 669 q 471 739 544 739 l 267 739 l 267 451 m 335 -251 l 335 -114 l 483 -114 l 483 -251 l 335 -251 z "},"Ṟ":{"ha":858,"x_min":79,"x_max":807,"o":"m 79 0 l 79 894 l 508 894 q 735 813 663 894 q 807 594 807 732 q 760 439 807 504 q 629 344 714 374 q 665 306 651 326 q 692 250 678 285 l 800 0 l 606 0 l 500 240 q 469 283 486 271 q 414 296 453 296 l 267 296 l 267 0 l 79 0 m 267 451 l 460 451 q 575 484 533 451 q 617 594 617 517 q 581 704 617 669 q 471 739 544 739 l 267 739 l 267 451 m 200 -215 l 200 -100 l 628 -100 l 628 -215 l 200 -215 z "},"S":{"ha":771,"x_min":51,"x_max":719,"o":"m 357 -14 q 197 -1 271 -14 q 68 35 122 11 l 68 200 q 200 160 129 175 q 339 144 271 144 q 482 163 436 144 q 528 244 528 181 q 508 308 528 285 q 441 351 489 332 q 306 393 393 369 q 108 490 165 432 q 51 651 51 549 q 142 842 51 775 q 404 908 232 908 q 554 897 485 908 q 667 871 624 886 l 667 706 q 429 749 553 749 q 292 730 342 749 q 242 651 242 711 q 260 596 242 617 q 322 558 278 575 q 444 521 365 542 q 614 451 554 492 q 697 360 674 411 q 719 244 719 308 q 631 57 719 128 q 357 -14 542 -14 z "},"Ś":{"ha":771,"x_min":51,"x_max":719,"o":"m 294 964 l 406 1224 l 568 1224 l 446 964 l 294 964 m 357 -14 q 197 -1 271 -14 q 68 35 122 11 l 68 200 q 200 160 129 175 q 339 144 271 144 q 482 163 436 144 q 528 244 528 181 q 508 308 528 285 q 441 351 489 332 q 306 393 393 369 q 108 490 165 432 q 51 651 51 549 q 142 842 51 775 q 404 908 232 908 q 554 897 485 908 q 667 871 624 886 l 667 706 q 429 749 553 749 q 292 730 342 749 q 242 651 242 711 q 260 596 242 617 q 322 558 278 575 q 444 521 365 542 q 614 451 554 492 q 697 360 674 411 q 719 244 719 308 q 631 57 719 128 q 357 -14 542 -14 z "},"Š":{"ha":771,"x_min":51,"x_max":719,"o":"m 336 956 l 149 1197 l 296 1197 l 396 1058 l 499 1197 l 643 1197 l 456 956 l 336 956 m 357 -14 q 197 -1 271 -14 q 68 35 122 11 l 68 200 q 200 160 129 175 q 339 144 271 144 q 482 163 436 144 q 528 244 528 181 q 508 308 528 285 q 441 351 489 332 q 306 393 393 369 q 108 490 165 432 q 51 651 51 549 q 142 842 51 775 q 404 908 232 908 q 554 897 485 908 q 667 871 624 886 l 667 706 q 429 749 553 749 q 292 730 342 749 q 242 651 242 711 q 260 596 242 617 q 322 558 278 575 q 444 521 365 542 q 614 451 554 492 q 697 360 674 411 q 719 244 719 308 q 631 57 719 128 q 357 -14 542 -14 z "},"Ş":{"ha":771,"x_min":51,"x_max":719,"o":"m 344 -333 q 288 -330 321 -333 q 239 -322 254 -326 l 239 -228 q 324 -239 279 -239 q 410 -230 385 -239 q 435 -187 435 -221 q 406 -144 435 -151 q 328 -136 376 -136 l 267 -136 l 303 -12 q 68 35 160 -6 l 68 200 q 200 160 129 175 q 339 144 271 144 q 482 163 436 144 q 528 244 528 181 q 508 308 528 285 q 441 351 489 332 q 306 393 393 369 q 108 490 165 432 q 51 651 51 549 q 142 842 51 775 q 404 908 232 908 q 554 897 485 908 q 667 871 624 886 l 667 706 q 429 749 553 749 q 292 730 342 749 q 242 651 242 711 q 260 596 242 617 q 322 558 278 575 q 444 521 365 542 q 614 451 554 492 q 697 360 674 411 q 719 244 719 308 q 647 71 719 139 q 425 -11 575 3 l 408 -62 q 519 -97 482 -62 q 556 -189 556 -131 q 505 -295 556 -257 q 344 -333 454 -333 z "},"Ŝ":{"ha":771,"x_min":51,"x_max":719,"o":"m 128 978 l 315 1219 l 435 1219 l 622 978 l 478 978 l 375 1117 l 275 978 l 128 978 m 357 -14 q 197 -1 271 -14 q 68 35 122 11 l 68 200 q 200 160 129 175 q 339 144 271 144 q 482 163 436 144 q 528 244 528 181 q 508 308 528 285 q 441 351 489 332 q 306 393 393 369 q 108 490 165 432 q 51 651 51 549 q 142 842 51 775 q 404 908 232 908 q 554 897 485 908 q 667 871 624 886 l 667 706 q 429 749 553 749 q 292 730 342 749 q 242 651 242 711 q 260 596 242 617 q 322 558 278 575 q 444 521 365 542 q 614 451 554 492 q 697 360 674 411 q 719 244 719 308 q 631 57 719 128 q 357 -14 542 -14 z "},"Ș":{"ha":771,"x_min":51,"x_max":719,"o":"m 357 -14 q 197 -1 271 -14 q 68 35 122 11 l 68 200 q 200 160 129 175 q 339 144 271 144 q 482 163 436 144 q 528 244 528 181 q 508 308 528 285 q 441 351 489 332 q 306 393 393 369 q 108 490 165 432 q 51 651 51 549 q 142 842 51 775 q 404 908 232 908 q 554 897 485 908 q 667 871 624 886 l 667 706 q 429 749 553 749 q 292 730 342 749 q 242 651 242 711 q 260 596 242 617 q 322 558 278 575 q 444 521 365 542 q 614 451 554 492 q 697 360 674 411 q 719 244 719 308 q 631 57 719 128 q 357 -14 542 -14 m 271 -314 l 311 -65 l 474 -65 l 414 -314 l 271 -314 z "},"Ṡ":{"ha":771,"x_min":51,"x_max":719,"o":"m 304 990 l 304 1126 l 450 1126 l 450 990 l 304 990 m 357 -14 q 197 -1 271 -14 q 68 35 122 11 l 68 200 q 200 160 129 175 q 339 144 271 144 q 482 163 436 144 q 528 244 528 181 q 508 308 528 285 q 441 351 489 332 q 306 393 393 369 q 108 490 165 432 q 51 651 51 549 q 142 842 51 775 q 404 908 232 908 q 554 897 485 908 q 667 871 624 886 l 667 706 q 429 749 553 749 q 292 730 342 749 q 242 651 242 711 q 260 596 242 617 q 322 558 278 575 q 444 521 365 542 q 614 451 554 492 q 697 360 674 411 q 719 244 719 308 q 631 57 719 128 q 357 -14 542 -14 z "},"Ṣ":{"ha":771,"x_min":51,"x_max":719,"o":"m 357 -14 q 197 -1 271 -14 q 68 35 122 11 l 68 200 q 200 160 129 175 q 339 144 271 144 q 482 163 436 144 q 528 244 528 181 q 508 308 528 285 q 441 351 489 332 q 306 393 393 369 q 108 490 165 432 q 51 651 51 549 q 142 842 51 775 q 404 908 232 908 q 554 897 485 908 q 667 871 624 886 l 667 706 q 429 749 553 749 q 292 730 342 749 q 242 651 242 711 q 260 596 242 617 q 322 558 278 575 q 444 521 365 542 q 614 451 554 492 q 697 360 674 411 q 719 244 719 308 q 631 57 719 128 q 357 -14 542 -14 m 307 -251 l 307 -114 l 456 -114 l 456 -251 l 307 -251 z "},"ẞ":{"ha":871,"x_min":72,"x_max":819,"o":"m 544 -14 q 344 18 432 -14 l 344 176 q 422 154 378 163 q 507 146 467 146 q 644 260 644 146 q 608 334 644 313 q 515 356 572 356 l 385 356 l 385 503 l 613 644 q 569 722 613 689 q 436 756 526 756 q 295 713 340 756 q 250 588 250 671 l 250 0 l 72 0 l 72 579 q 166 822 72 735 q 436 908 260 908 q 639 867 561 908 q 753 755 717 825 q 789 601 789 685 l 572 471 l 607 471 q 716 444 668 471 q 792 368 764 417 q 819 257 819 319 q 786 119 819 181 q 691 22 753 58 q 544 -14 629 -14 z "},"Ə":{"ha":943,"x_min":51,"x_max":892,"o":"m 457 -14 q 153 91 256 -14 q 51 368 51 196 l 51 531 l 719 531 q 677 672 714 621 q 567 746 640 724 q 378 768 494 768 q 285 761 336 768 q 187 742 235 754 q 103 714 139 729 l 103 851 q 247 892 164 875 q 418 908 331 908 q 772 786 653 908 q 892 436 892 664 q 847 197 892 299 q 706 41 801 96 q 457 -14 610 -14 m 457 121 q 719 394 719 121 l 215 394 l 215 329 q 281 175 215 229 q 457 121 346 121 z "},"T":{"ha":783,"x_min":24,"x_max":760,"o":"m 299 0 l 299 750 l 24 750 l 24 894 l 760 894 l 760 750 l 486 750 l 486 0 l 299 0 z "},"Ŧ":{"ha":783,"x_min":24,"x_max":760,"o":"m 299 0 l 299 407 l 129 407 l 129 544 l 299 544 l 299 750 l 24 750 l 24 894 l 760 894 l 760 750 l 486 750 l 486 544 l 643 544 l 643 407 l 486 407 l 486 0 l 299 0 z "},"Ť":{"ha":783,"x_min":24,"x_max":760,"o":"m 332 978 l 144 1219 l 292 1219 l 392 1081 l 494 1219 l 639 1219 l 451 978 l 332 978 m 299 0 l 299 750 l 24 750 l 24 894 l 760 894 l 760 750 l 486 750 l 486 0 l 299 0 z "},"Ţ":{"ha":783,"x_min":24,"x_max":760,"o":"m 299 0 l 299 750 l 24 750 l 24 894 l 760 894 l 760 750 l 486 750 l 486 0 l 450 0 l 429 -62 q 540 -97 503 -62 q 576 -189 576 -131 q 526 -295 576 -257 q 365 -333 475 -333 q 308 -330 342 -333 q 260 -322 275 -326 l 260 -228 q 344 -239 300 -239 q 431 -230 406 -239 q 456 -187 456 -221 q 426 -144 456 -151 q 349 -136 397 -136 l 288 -136 l 328 0 l 299 0 z "},"Ț":{"ha":783,"x_min":24,"x_max":760,"o":"m 299 0 l 299 750 l 24 750 l 24 894 l 760 894 l 760 750 l 486 750 l 486 0 l 299 0 m 282 -344 l 325 -65 l 472 -65 l 403 -344 l 282 -344 z "},"Ṭ":{"ha":783,"x_min":24,"x_max":760,"o":"m 299 0 l 299 750 l 24 750 l 24 894 l 760 894 l 760 750 l 486 750 l 486 0 l 299 0 m 314 -237 l 314 -100 l 463 -100 l 463 -237 l 314 -237 z "},"Ṯ":{"ha":783,"x_min":24,"x_max":760,"o":"m 299 0 l 299 750 l 24 750 l 24 894 l 760 894 l 760 750 l 486 750 l 486 0 l 299 0 m 178 -201 l 178 -86 l 606 -86 l 606 -201 l 178 -201 z "},"U":{"ha":943,"x_min":72,"x_max":871,"o":"m 472 -14 q 180 76 288 -14 q 72 336 72 165 l 72 894 l 260 894 l 260 350 q 315 197 260 247 q 472 146 371 146 q 628 197 574 146 q 683 350 683 247 l 683 894 l 871 894 l 871 336 q 764 76 871 165 q 472 -14 657 -14 z "},"Ú":{"ha":943,"x_min":72,"x_max":871,"o":"m 390 956 l 501 1215 l 664 1215 l 542 956 l 390 956 m 472 -14 q 180 76 288 -14 q 72 336 72 165 l 72 894 l 260 894 l 260 350 q 315 197 260 247 q 472 146 371 146 q 628 197 574 146 q 683 350 683 247 l 683 894 l 871 894 l 871 336 q 764 76 871 165 q 472 -14 657 -14 z "},"Ŭ":{"ha":943,"x_min":72,"x_max":871,"o":"m 464 956 q 306 1014 367 956 q 246 1174 246 1072 l 371 1174 q 394 1097 371 1131 q 464 1064 417 1064 q 536 1097 513 1064 q 560 1174 560 1131 l 685 1174 q 624 1014 685 1072 q 464 956 563 956 m 472 -14 q 180 76 288 -14 q 72 336 72 165 l 72 894 l 260 894 l 260 350 q 315 197 260 247 q 472 146 371 146 q 628 197 574 146 q 683 350 683 247 l 683 894 l 871 894 l 871 336 q 764 76 871 165 q 472 -14 657 -14 z "},"Ǔ":{"ha":943,"x_min":72,"x_max":871,"o":"m 413 956 l 225 1197 l 372 1197 l 472 1058 l 575 1197 l 719 1197 l 532 956 l 413 956 m 472 -14 q 180 76 288 -14 q 72 336 72 165 l 72 894 l 260 894 l 260 350 q 315 197 260 247 q 472 146 371 146 q 628 197 574 146 q 683 350 683 247 l 683 894 l 871 894 l 871 336 q 764 76 871 165 q 472 -14 657 -14 z "},"Û":{"ha":943,"x_min":72,"x_max":871,"o":"m 225 956 l 413 1197 l 532 1197 l 719 956 l 575 956 l 472 1094 l 372 956 l 225 956 m 472 -14 q 180 76 288 -14 q 72 336 72 165 l 72 894 l 260 894 l 260 350 q 315 197 260 247 q 472 146 371 146 q 628 197 574 146 q 683 350 683 247 l 683 894 l 871 894 l 871 336 q 764 76 871 165 q 472 -14 657 -14 z "},"Ü":{"ha":943,"x_min":72,"x_max":871,"o":"m 263 990 l 263 1126 l 410 1126 l 410 990 l 263 990 m 535 990 l 535 1126 l 682 1126 l 682 990 l 535 990 m 472 -14 q 180 76 288 -14 q 72 336 72 165 l 72 894 l 260 894 l 260 350 q 315 197 260 247 q 472 146 371 146 q 628 197 574 146 q 683 350 683 247 l 683 894 l 871 894 l 871 336 q 764 76 871 165 q 472 -14 657 -14 z "},"Ǘ":{"ha":943,"x_min":72,"x_max":871,"o":"m 403 1113 l 485 1292 l 626 1292 l 535 1113 l 403 1113 m 263 956 l 263 1085 l 403 1085 l 403 956 l 263 956 m 542 956 l 542 1085 l 682 1085 l 682 956 l 542 956 m 472 -14 q 180 76 288 -14 q 72 336 72 165 l 72 894 l 260 894 l 260 350 q 315 197 260 247 q 472 146 371 146 q 628 197 574 146 q 683 350 683 247 l 683 894 l 871 894 l 871 336 q 764 76 871 165 q 472 -14 657 -14 z "},"Ǚ":{"ha":943,"x_min":72,"x_max":871,"o":"m 408 1108 l 251 1276 l 390 1276 l 474 1175 l 558 1276 l 694 1276 l 538 1108 l 408 1108 m 263 956 l 263 1085 l 403 1085 l 403 956 l 263 956 m 542 956 l 542 1085 l 682 1085 l 682 956 l 542 956 m 472 -14 q 180 76 288 -14 q 72 336 72 165 l 72 894 l 260 894 l 260 350 q 315 197 260 247 q 472 146 371 146 q 628 197 574 146 q 683 350 683 247 l 683 894 l 871 894 l 871 336 q 764 76 871 165 q 472 -14 657 -14 z "},"Ǜ":{"ha":943,"x_min":72,"x_max":871,"o":"m 408 1113 l 317 1292 l 458 1292 l 540 1113 l 408 1113 m 261 956 l 261 1085 l 401 1085 l 401 956 l 261 956 m 540 956 l 540 1085 l 681 1085 l 681 956 l 540 956 m 472 -14 q 180 76 288 -14 q 72 336 72 165 l 72 894 l 260 894 l 260 350 q 315 197 260 247 q 472 146 371 146 q 628 197 574 146 q 683 350 683 247 l 683 894 l 871 894 l 871 336 q 764 76 871 165 q 472 -14 657 -14 z "},"Ǖ":{"ha":943,"x_min":72,"x_max":871,"o":"m 258 1194 l 258 1310 l 686 1310 l 686 1194 l 258 1194 m 263 975 l 263 1111 l 410 1111 l 410 975 l 263 975 m 535 975 l 535 1111 l 682 1111 l 682 975 l 535 975 m 472 -14 q 180 76 288 -14 q 72 336 72 165 l 72 894 l 260 894 l 260 350 q 315 197 260 247 q 472 146 371 146 q 628 197 574 146 q 683 350 683 247 l 683 894 l 871 894 l 871 336 q 764 76 871 165 q 472 -14 657 -14 z "},"Ụ":{"ha":943,"x_min":72,"x_max":871,"o":"m 472 -14 q 180 76 288 -14 q 72 336 72 165 l 72 894 l 260 894 l 260 350 q 315 197 260 247 q 472 146 371 146 q 628 197 574 146 q 683 350 683 247 l 683 894 l 871 894 l 871 336 q 764 76 871 165 q 472 -14 657 -14 m 397 -251 l 397 -114 l 546 -114 l 546 -251 l 397 -251 z "},"Ù":{"ha":943,"x_min":72,"x_max":871,"o":"m 413 956 l 290 1215 l 453 1215 l 564 956 l 413 956 m 472 -14 q 180 76 288 -14 q 72 336 72 165 l 72 894 l 260 894 l 260 350 q 315 197 260 247 q 472 146 371 146 q 628 197 574 146 q 683 350 683 247 l 683 894 l 871 894 l 871 336 q 764 76 871 165 q 472 -14 657 -14 z "},"Ủ":{"ha":943,"x_min":72,"x_max":871,"o":"m 399 954 l 399 1067 q 499 1087 475 1071 q 524 1133 524 1103 q 498 1174 524 1161 q 428 1188 472 1188 q 383 1183 408 1188 q 342 1172 358 1179 l 342 1265 q 481 1283 396 1283 q 616 1247 569 1283 q 663 1150 663 1211 q 635 1061 663 1092 q 542 1018 608 1031 l 542 954 l 399 954 m 472 -14 q 180 76 288 -14 q 72 336 72 165 l 72 894 l 260 894 l 260 350 q 315 197 260 247 q 472 146 371 146 q 628 197 574 146 q 683 350 683 247 l 683 894 l 871 894 l 871 336 q 764 76 871 165 q 472 -14 657 -14 z "},"Ư":{"ha":1139,"x_min":72,"x_max":1139,"o":"m 472 -14 q 180 76 288 -14 q 72 336 72 165 l 72 894 l 260 894 l 260 350 q 315 197 260 247 q 472 146 371 146 q 628 197 574 146 q 683 350 683 247 l 683 894 l 871 894 l 871 806 q 974 840 943 808 q 1004 956 1004 872 l 1139 956 q 1111 793 1139 853 q 1024 708 1083 733 q 871 681 965 682 l 871 336 q 764 76 871 165 q 472 -14 657 -14 z "},"Ứ":{"ha":1139,"x_min":72,"x_max":1139,"o":"m 406 956 l 517 1215 l 679 1215 l 557 956 l 406 956 m 472 -14 q 180 76 288 -14 q 72 336 72 165 l 72 894 l 260 894 l 260 350 q 315 197 260 247 q 472 146 371 146 q 628 197 574 146 q 683 350 683 247 l 683 894 l 871 894 l 871 806 q 974 840 943 808 q 1004 956 1004 872 l 1139 956 q 1111 793 1139 853 q 1024 708 1083 733 q 871 681 965 682 l 871 336 q 764 76 871 165 q 472 -14 657 -14 z "},"Ự":{"ha":1139,"x_min":72,"x_max":1139,"o":"m 472 -14 q 180 76 288 -14 q 72 336 72 165 l 72 894 l 260 894 l 260 350 q 315 197 260 247 q 472 146 371 146 q 628 197 574 146 q 683 350 683 247 l 683 894 l 871 894 l 871 806 q 974 840 943 808 q 1004 956 1004 872 l 1139 956 q 1111 793 1139 853 q 1024 708 1083 733 q 871 681 965 682 l 871 336 q 764 76 871 165 q 472 -14 657 -14 m 396 -251 l 396 -114 l 544 -114 l 544 -251 l 396 -251 z "},"Ừ":{"ha":1139,"x_min":72,"x_max":1139,"o":"m 410 956 l 288 1215 l 450 1215 l 561 956 l 410 956 m 472 -14 q 180 76 288 -14 q 72 336 72 165 l 72 894 l 260 894 l 260 350 q 315 197 260 247 q 472 146 371 146 q 628 197 574 146 q 683 350 683 247 l 683 894 l 871 894 l 871 806 q 974 840 943 808 q 1004 956 1004 872 l 1139 956 q 1111 793 1139 853 q 1024 708 1083 733 q 871 681 965 682 l 871 336 q 764 76 871 165 q 472 -14 657 -14 z "},"Ử":{"ha":1139,"x_min":72,"x_max":1139,"o":"m 407 954 l 407 1067 q 508 1087 483 1071 q 532 1133 532 1103 q 506 1174 532 1161 q 436 1188 481 1188 q 392 1183 417 1188 q 350 1172 367 1179 l 350 1265 q 489 1283 404 1283 q 624 1247 578 1283 q 671 1150 671 1211 q 644 1061 671 1092 q 550 1018 617 1031 l 550 954 l 407 954 m 472 -14 q 180 76 288 -14 q 72 336 72 165 l 72 894 l 260 894 l 260 350 q 315 197 260 247 q 472 146 371 146 q 628 197 574 146 q 683 350 683 247 l 683 894 l 871 894 l 871 806 q 974 840 943 808 q 1004 956 1004 872 l 1139 956 q 1111 793 1139 853 q 1024 708 1083 733 q 871 681 965 682 l 871 336 q 764 76 871 165 q 472 -14 657 -14 z "},"Ữ":{"ha":1139,"x_min":72,"x_max":1139,"o":"m 592 968 q 513 982 551 968 q 438 1010 474 996 q 368 1024 403 1024 q 243 972 290 1024 l 243 1106 q 295 1137 263 1125 q 364 1149 328 1149 q 443 1135 407 1149 q 514 1107 479 1121 q 588 1093 549 1093 q 703 1146 665 1093 l 703 1013 q 660 981 689 994 q 592 968 631 968 m 472 -14 q 180 76 288 -14 q 72 336 72 165 l 72 894 l 260 894 l 260 350 q 315 197 260 247 q 472 146 371 146 q 628 197 574 146 q 683 350 683 247 l 683 894 l 871 894 l 871 806 q 974 840 943 808 q 1004 956 1004 872 l 1139 956 q 1111 793 1139 853 q 1024 708 1083 733 q 871 681 965 682 l 871 336 q 764 76 871 165 q 472 -14 657 -14 z "},"Ű":{"ha":943,"x_min":72,"x_max":871,"o":"m 208 954 l 318 1199 l 485 1199 l 357 954 l 208 954 m 525 954 l 635 1199 l 801 1199 l 674 954 l 525 954 m 472 -14 q 180 76 288 -14 q 72 336 72 165 l 72 894 l 260 894 l 260 350 q 315 197 260 247 q 472 146 371 146 q 628 197 574 146 q 683 350 683 247 l 683 894 l 871 894 l 871 336 q 764 76 871 165 q 472 -14 657 -14 z "},"Ū":{"ha":943,"x_min":72,"x_max":871,"o":"m 258 1003 l 258 1118 l 686 1118 l 686 1003 l 258 1003 m 472 -14 q 180 76 288 -14 q 72 336 72 165 l 72 894 l 260 894 l 260 350 q 315 197 260 247 q 472 146 371 146 q 628 197 574 146 q 683 350 683 247 l 683 894 l 871 894 l 871 336 q 764 76 871 165 q 472 -14 657 -14 z "},"Ų":{"ha":943,"x_min":72,"x_max":871,"o":"m 517 -306 q 405 -274 453 -306 q 357 -179 357 -243 q 440 -12 357 -81 q 171 83 269 -6 q 72 336 72 172 l 72 894 l 260 894 l 260 350 q 315 197 260 247 q 472 146 371 146 q 628 197 574 146 q 683 350 683 247 l 683 894 l 871 894 l 871 336 q 797 110 871 196 q 594 -3 724 24 q 529 -69 554 -33 q 504 -144 504 -106 q 522 -185 504 -174 q 567 -196 539 -196 q 603 -192 585 -196 q 635 -181 622 -187 l 635 -286 q 584 -300 617 -294 q 517 -306 551 -306 z "},"Ů":{"ha":943,"x_min":72,"x_max":871,"o":"m 471 956 q 345 1003 392 956 q 299 1121 299 1051 q 345 1239 299 1190 q 471 1288 392 1288 q 599 1239 553 1288 q 644 1121 644 1190 q 599 1003 644 1051 q 471 956 553 956 m 471 1042 q 531 1065 510 1042 q 553 1121 553 1088 q 531 1177 553 1154 q 471 1200 510 1200 q 413 1177 435 1200 q 390 1121 390 1154 q 413 1065 390 1088 q 471 1042 435 1042 m 472 -14 q 180 76 288 -14 q 72 336 72 165 l 72 894 l 260 894 l 260 350 q 315 197 260 247 q 472 146 371 146 q 628 197 574 146 q 683 350 683 247 l 683 894 l 871 894 l 871 336 q 764 76 871 165 q 472 -14 657 -14 z "},"Ũ":{"ha":943,"x_min":72,"x_max":871,"o":"m 590 972 q 511 986 550 972 q 437 1014 472 1000 q 367 1028 401 1028 q 242 976 289 1028 l 242 1110 q 294 1141 261 1129 q 363 1153 326 1153 q 442 1139 406 1153 q 513 1111 478 1125 q 586 1097 547 1097 q 701 1150 664 1097 l 701 1017 q 658 985 688 999 q 590 972 629 972 m 472 -14 q 180 76 288 -14 q 72 336 72 165 l 72 894 l 260 894 l 260 350 q 315 197 260 247 q 472 146 371 146 q 628 197 574 146 q 683 350 683 247 l 683 894 l 871 894 l 871 336 q 764 76 871 165 q 472 -14 657 -14 z "},"V":{"ha":990,"x_min":51,"x_max":939,"o":"m 393 0 l 51 894 l 247 894 l 494 210 l 743 894 l 939 894 l 599 0 l 393 0 z "},"W":{"ha":1215,"x_min":51,"x_max":1164,"o":"m 260 0 l 51 894 l 236 894 l 371 290 l 517 778 l 517 894 l 669 894 l 842 289 l 981 894 l 1164 894 l 957 0 l 779 0 l 615 572 l 439 0 l 260 0 z "},"Ẃ":{"ha":1215,"x_min":51,"x_max":1164,"o":"m 522 956 l 633 1215 l 796 1215 l 674 956 l 522 956 m 260 0 l 51 894 l 236 894 l 371 290 l 517 778 l 517 894 l 669 894 l 842 289 l 981 894 l 1164 894 l 957 0 l 779 0 l 615 572 l 439 0 l 260 0 z "},"Ŵ":{"ha":1215,"x_min":51,"x_max":1164,"o":"m 368 956 l 556 1197 l 675 1197 l 863 956 l 718 956 l 615 1094 l 515 956 l 368 956 m 260 0 l 51 894 l 236 894 l 371 290 l 517 778 l 517 894 l 669 894 l 842 289 l 981 894 l 1164 894 l 957 0 l 779 0 l 615 572 l 439 0 l 260 0 z "},"Ẅ":{"ha":1215,"x_min":51,"x_max":1164,"o":"m 406 990 l 406 1126 l 553 1126 l 553 990 l 406 990 m 678 990 l 678 1126 l 825 1126 l 825 990 l 678 990 m 260 0 l 51 894 l 236 894 l 371 290 l 517 778 l 517 894 l 669 894 l 842 289 l 981 894 l 1164 894 l 957 0 l 779 0 l 615 572 l 439 0 l 260 0 z "},"Ẁ":{"ha":1215,"x_min":51,"x_max":1164,"o":"m 524 956 l 401 1215 l 564 1215 l 675 956 l 524 956 m 260 0 l 51 894 l 236 894 l 371 290 l 517 778 l 517 894 l 669 894 l 842 289 l 981 894 l 1164 894 l 957 0 l 779 0 l 615 572 l 439 0 l 260 0 z "},"X":{"ha":975,"x_min":51,"x_max":924,"o":"m 51 0 l 375 449 l 60 894 l 281 894 l 488 596 l 694 894 l 915 894 l 600 449 l 924 0 l 700 0 l 488 299 l 275 0 l 51 0 z "},"Y":{"ha":932,"x_min":51,"x_max":881,"o":"m 372 0 l 372 331 l 51 894 l 247 894 l 467 490 l 686 894 l 881 894 l 560 331 l 560 0 l 372 0 z "},"Ý":{"ha":932,"x_min":51,"x_max":881,"o":"m 379 956 l 490 1215 l 653 1215 l 531 956 l 379 956 m 372 0 l 372 331 l 51 894 l 247 894 l 467 490 l 686 894 l 881 894 l 560 331 l 560 0 l 372 0 z "},"Ŷ":{"ha":932,"x_min":51,"x_max":881,"o":"m 219 956 l 407 1197 l 526 1197 l 714 956 l 569 956 l 467 1094 l 367 956 l 219 956 m 372 0 l 372 331 l 51 894 l 247 894 l 467 490 l 686 894 l 881 894 l 560 331 l 560 0 l 372 0 z "},"Ÿ":{"ha":932,"x_min":51,"x_max":881,"o":"m 257 990 l 257 1126 l 404 1126 l 404 990 l 257 990 m 529 990 l 529 1126 l 676 1126 l 676 990 l 529 990 m 372 0 l 372 331 l 51 894 l 247 894 l 467 490 l 686 894 l 881 894 l 560 331 l 560 0 l 372 0 z "},"Ẏ":{"ha":932,"x_min":51,"x_max":881,"o":"m 393 990 l 393 1126 l 539 1126 l 539 990 l 393 990 m 372 0 l 372 331 l 51 894 l 247 894 l 467 490 l 686 894 l 881 894 l 560 331 l 560 0 l 372 0 z "},"Ỵ":{"ha":932,"x_min":51,"x_max":881,"o":"m 372 0 l 372 331 l 51 894 l 247 894 l 467 490 l 686 894 l 881 894 l 560 331 l 560 0 l 372 0 m 392 -237 l 392 -100 l 540 -100 l 540 -237 l 392 -237 z "},"Ỳ":{"ha":932,"x_min":51,"x_max":881,"o":"m 404 956 l 282 1215 l 444 1215 l 556 956 l 404 956 m 372 0 l 372 331 l 51 894 l 247 894 l 467 490 l 686 894 l 881 894 l 560 331 l 560 0 l 372 0 z "},"Ỷ":{"ha":932,"x_min":51,"x_max":881,"o":"m 388 954 l 388 1067 q 488 1087 464 1071 q 513 1133 513 1103 q 487 1174 513 1161 q 417 1188 461 1188 q 372 1183 397 1188 q 331 1172 347 1179 l 331 1265 q 469 1283 385 1283 q 605 1247 558 1283 q 651 1150 651 1211 q 624 1061 651 1092 q 531 1018 597 1031 l 531 954 l 388 954 m 372 0 l 372 331 l 51 894 l 247 894 l 467 490 l 686 894 l 881 894 l 560 331 l 560 0 l 372 0 z "},"Ỹ":{"ha":932,"x_min":51,"x_max":881,"o":"m 585 972 q 506 986 544 972 q 431 1014 467 1000 q 361 1028 396 1028 q 236 976 283 1028 l 236 1110 q 288 1141 256 1129 q 357 1153 321 1153 q 436 1139 400 1153 q 507 1111 472 1125 q 581 1097 542 1097 q 696 1150 658 1097 l 696 1017 q 653 985 682 999 q 585 972 624 972 m 372 0 l 372 331 l 51 894 l 247 894 l 467 490 l 686 894 l 881 894 l 560 331 l 560 0 l 372 0 z "},"Z":{"ha":804,"x_min":51,"x_max":753,"o":"m 51 0 l 51 97 l 501 739 l 74 739 l 74 894 l 746 894 l 746 781 l 300 144 l 753 144 l 753 0 l 51 0 z "},"Ź":{"ha":804,"x_min":51,"x_max":753,"o":"m 335 956 l 446 1215 l 608 1215 l 486 956 l 335 956 m 51 0 l 51 97 l 501 739 l 74 739 l 74 894 l 746 894 l 746 781 l 300 144 l 753 144 l 753 0 l 51 0 z "},"Ž":{"ha":804,"x_min":51,"x_max":753,"o":"m 375 956 l 188 1197 l 335 1197 l 435 1058 l 538 1197 l 682 1197 l 494 956 l 375 956 m 51 0 l 51 97 l 501 739 l 74 739 l 74 894 l 746 894 l 746 781 l 300 144 l 753 144 l 753 0 l 51 0 z "},"Ż":{"ha":804,"x_min":51,"x_max":753,"o":"m 350 990 l 350 1126 l 496 1126 l 496 990 l 350 990 m 51 0 l 51 97 l 501 739 l 74 739 l 74 894 l 746 894 l 746 781 l 300 144 l 753 144 l 753 0 l 51 0 z "},"Ẓ":{"ha":804,"x_min":51,"x_max":753,"o":"m 51 0 l 51 97 l 501 739 l 74 739 l 74 894 l 746 894 l 746 781 l 300 144 l 753 144 l 753 0 l 51 0 m 356 -251 l 356 -114 l 504 -114 l 504 -251 l 356 -251 z "},"a":{"ha":769,"x_min":51,"x_max":697,"o":"m 286 -14 q 170 9 224 -14 q 84 77 117 32 q 51 190 51 122 q 120 346 51 288 q 324 404 189 404 l 518 404 l 518 422 q 484 508 518 483 q 347 533 450 533 q 131 499 235 533 l 131 631 q 242 660 176 649 q 386 672 308 672 q 616 612 535 672 q 697 418 697 551 l 697 0 l 535 0 l 525 60 q 429 6 486 25 q 286 -14 372 -14 m 338 110 q 446 131 400 110 q 518 183 492 151 l 518 288 l 328 288 q 218 197 218 288 q 338 110 218 110 z "},"á":{"ha":769,"x_min":51,"x_max":697,"o":"m 318 725 l 429 985 l 592 985 l 469 725 l 318 725 m 286 -14 q 170 9 224 -14 q 84 77 117 32 q 51 190 51 122 q 120 346 51 288 q 324 404 189 404 l 518 404 l 518 422 q 484 508 518 483 q 347 533 450 533 q 131 499 235 533 l 131 631 q 242 660 176 649 q 386 672 308 672 q 616 612 535 672 q 697 418 697 551 l 697 0 l 535 0 l 525 60 q 429 6 486 25 q 286 -14 372 -14 m 338 110 q 446 131 400 110 q 518 183 492 151 l 518 288 l 328 288 q 218 197 218 288 q 338 110 218 110 z "},"ă":{"ha":769,"x_min":51,"x_max":697,"o":"m 417 725 q 259 783 319 725 q 199 943 199 842 l 324 943 q 347 867 324 900 q 417 833 369 833 q 489 867 465 833 q 513 943 513 900 l 638 943 q 576 783 638 842 q 417 725 515 725 m 286 -14 q 170 9 224 -14 q 84 77 117 32 q 51 190 51 122 q 120 346 51 288 q 324 404 189 404 l 518 404 l 518 422 q 484 508 518 483 q 347 533 450 533 q 131 499 235 533 l 131 631 q 242 660 176 649 q 386 672 308 672 q 616 612 535 672 q 697 418 697 551 l 697 0 l 535 0 l 525 60 q 429 6 486 25 q 286 -14 372 -14 m 338 110 q 446 131 400 110 q 518 183 492 151 l 518 288 l 328 288 q 218 197 218 288 q 338 110 218 110 z "},"ắ":{"ha":769,"x_min":51,"x_max":697,"o":"m 339 906 l 431 1101 l 572 1101 l 471 906 l 339 906 m 415 725 q 252 776 318 725 q 186 942 186 826 l 297 942 q 328 854 297 885 q 415 824 360 824 q 501 854 471 824 q 532 942 532 885 l 643 942 q 578 776 643 826 q 415 725 513 725 m 286 -14 q 170 9 224 -14 q 84 77 117 32 q 51 190 51 122 q 120 346 51 288 q 324 404 189 404 l 518 404 l 518 422 q 484 508 518 483 q 347 533 450 533 q 131 499 235 533 l 131 631 q 242 660 176 649 q 386 672 308 672 q 616 612 535 672 q 697 418 697 551 l 697 0 l 535 0 l 525 60 q 429 6 486 25 q 286 -14 372 -14 m 338 110 q 446 131 400 110 q 518 183 492 151 l 518 288 l 328 288 q 218 197 218 288 q 338 110 218 110 z "},"ặ":{"ha":769,"x_min":51,"x_max":697,"o":"m 417 725 q 259 783 319 725 q 199 943 199 842 l 324 943 q 347 867 324 900 q 417 833 369 833 q 489 867 465 833 q 513 943 513 900 l 638 943 q 576 783 638 842 q 417 725 515 725 m 286 -14 q 170 9 224 -14 q 84 77 117 32 q 51 190 51 122 q 120 346 51 288 q 324 404 189 404 l 518 404 l 518 422 q 484 508 518 483 q 347 533 450 533 q 131 499 235 533 l 131 631 q 242 660 176 649 q 386 672 308 672 q 616 612 535 672 q 697 418 697 551 l 697 0 l 535 0 l 525 60 q 429 6 486 25 q 286 -14 372 -14 m 338 110 q 446 131 400 110 q 518 183 492 151 l 518 288 l 328 288 q 218 197 218 288 q 338 110 218 110 m 344 -251 l 344 -114 l 493 -114 l 493 -251 l 344 -251 z "},"ằ":{"ha":769,"x_min":51,"x_max":697,"o":"m 353 906 l 251 1101 l 393 1101 l 485 906 l 353 906 m 408 725 q 246 776 311 725 q 181 942 181 826 l 292 942 q 322 854 292 885 q 408 824 353 824 q 496 854 465 824 q 526 942 526 885 l 638 942 q 572 776 638 826 q 408 725 507 725 m 286 -14 q 170 9 224 -14 q 84 77 117 32 q 51 190 51 122 q 120 346 51 288 q 324 404 189 404 l 518 404 l 518 422 q 484 508 518 483 q 347 533 450 533 q 131 499 235 533 l 131 631 q 242 660 176 649 q 386 672 308 672 q 616 612 535 672 q 697 418 697 551 l 697 0 l 535 0 l 525 60 q 429 6 486 25 q 286 -14 372 -14 m 338 110 q 446 131 400 110 q 518 183 492 151 l 518 288 l 328 288 q 218 197 218 288 q 338 110 218 110 z "},"ẳ":{"ha":769,"x_min":51,"x_max":697,"o":"m 349 918 l 349 1001 q 435 1019 413 1004 q 458 1058 458 1033 q 442 1094 458 1085 q 389 1103 425 1103 q 349 1098 368 1103 q 314 1086 331 1093 l 314 1165 q 369 1177 338 1172 q 436 1182 401 1182 q 544 1151 506 1182 q 582 1071 582 1121 q 558 999 582 1025 q 476 963 533 974 l 476 918 l 349 918 m 418 725 q 255 776 321 725 q 189 942 189 826 l 300 942 q 331 854 300 885 q 418 824 363 824 q 504 854 474 824 q 535 942 535 885 l 646 942 q 581 776 646 826 q 418 725 515 725 m 286 -14 q 170 9 224 -14 q 84 77 117 32 q 51 190 51 122 q 120 346 51 288 q 324 404 189 404 l 518 404 l 518 422 q 484 508 518 483 q 347 533 450 533 q 131 499 235 533 l 131 631 q 242 660 176 649 q 386 672 308 672 q 616 612 535 672 q 697 418 697 551 l 697 0 l 535 0 l 525 60 q 429 6 486 25 q 286 -14 372 -14 m 338 110 q 446 131 400 110 q 518 183 492 151 l 518 288 l 328 288 q 218 197 218 288 q 338 110 218 110 z "},"ẵ":{"ha":769,"x_min":51,"x_max":697,"o":"m 546 971 q 467 985 506 971 q 392 1013 428 999 q 322 1026 357 1026 q 197 975 244 1026 l 197 1094 q 249 1126 217 1114 q 318 1138 282 1138 q 397 1124 361 1138 q 468 1096 433 1110 q 542 1082 503 1082 q 657 1135 619 1082 l 657 1015 q 614 984 643 997 q 546 971 585 971 m 426 725 q 263 776 329 725 q 197 942 197 826 l 308 942 q 340 854 308 885 q 426 824 371 824 q 513 854 482 824 q 543 942 543 885 l 654 942 q 589 776 654 826 q 426 725 524 725 m 286 -14 q 170 9 224 -14 q 84 77 117 32 q 51 190 51 122 q 120 346 51 288 q 324 404 189 404 l 518 404 l 518 422 q 484 508 518 483 q 347 533 450 533 q 131 499 235 533 l 131 631 q 242 660 176 649 q 386 672 308 672 q 616 612 535 672 q 697 418 697 551 l 697 0 l 535 0 l 525 60 q 429 6 486 25 q 286 -14 372 -14 m 338 110 q 446 131 400 110 q 518 183 492 151 l 518 288 l 328 288 q 218 197 218 288 q 338 110 218 110 z "},"ǎ":{"ha":769,"x_min":51,"x_max":697,"o":"m 339 725 l 151 967 l 299 967 l 399 828 l 501 967 l 646 967 l 458 725 l 339 725 m 286 -14 q 170 9 224 -14 q 84 77 117 32 q 51 190 51 122 q 120 346 51 288 q 324 404 189 404 l 518 404 l 518 422 q 484 508 518 483 q 347 533 450 533 q 131 499 235 533 l 131 631 q 242 660 176 649 q 386 672 308 672 q 616 612 535 672 q 697 418 697 551 l 697 0 l 535 0 l 525 60 q 429 6 486 25 q 286 -14 372 -14 m 338 110 q 446 131 400 110 q 518 183 492 151 l 518 288 l 328 288 q 218 197 218 288 q 338 110 218 110 z "},"â":{"ha":781,"x_min":63,"x_max":708,"o":"m 165 725 l 353 967 l 472 967 l 660 725 l 515 725 l 413 864 l 313 725 l 165 725 m 297 -14 q 181 9 235 -14 q 95 77 128 32 q 63 190 63 122 q 131 346 63 288 q 335 404 200 404 l 529 404 l 529 422 q 495 508 529 483 q 358 533 461 533 q 142 499 246 533 l 142 631 q 253 660 188 649 q 397 672 319 672 q 627 612 546 672 q 708 418 708 551 l 708 0 l 546 0 l 536 60 q 440 6 497 25 q 297 -14 383 -14 m 349 110 q 457 131 411 110 q 529 183 503 151 l 529 288 l 339 288 q 229 197 229 288 q 349 110 229 110 z "},"ấ":{"ha":769,"x_min":51,"x_max":785,"o":"m 551 886 l 643 1082 l 785 1082 l 683 886 l 551 886 m 164 724 l 339 911 l 482 911 l 657 724 l 506 724 l 411 836 l 318 724 l 164 724 m 286 -14 q 170 9 224 -14 q 84 77 117 32 q 51 190 51 122 q 120 346 51 288 q 324 404 189 404 l 518 404 l 518 422 q 484 508 518 483 q 347 533 450 533 q 131 499 235 533 l 131 631 q 242 660 176 649 q 386 672 308 672 q 616 612 535 672 q 697 418 697 551 l 697 0 l 535 0 l 525 60 q 429 6 486 25 q 286 -14 372 -14 m 338 110 q 446 131 400 110 q 518 183 492 151 l 518 288 l 328 288 q 218 197 218 288 q 338 110 218 110 z "},"ậ":{"ha":769,"x_min":51,"x_max":697,"o":"m 158 725 l 346 967 l 465 967 l 653 725 l 508 725 l 406 864 l 306 725 l 158 725 m 286 -14 q 170 9 224 -14 q 84 77 117 32 q 51 190 51 122 q 120 346 51 288 q 324 404 189 404 l 518 404 l 518 422 q 484 508 518 483 q 347 533 450 533 q 131 499 235 533 l 131 631 q 242 660 176 649 q 386 672 308 672 q 616 612 535 672 q 697 418 697 551 l 697 0 l 535 0 l 525 60 q 429 6 486 25 q 286 -14 372 -14 m 338 110 q 446 131 400 110 q 518 183 492 151 l 518 288 l 328 288 q 218 197 218 288 q 338 110 218 110 m 332 -251 l 332 -114 l 481 -114 l 481 -251 l 332 -251 z "},"ầ":{"ha":769,"x_min":26,"x_max":697,"o":"m 128 886 l 26 1082 l 168 1082 l 260 886 l 128 886 m 154 724 l 329 911 l 472 911 l 647 724 l 493 724 l 400 836 l 306 724 l 154 724 m 286 -14 q 170 9 224 -14 q 84 77 117 32 q 51 190 51 122 q 120 346 51 288 q 324 404 189 404 l 518 404 l 518 422 q 484 508 518 483 q 347 533 450 533 q 131 499 235 533 l 131 631 q 242 660 176 649 q 386 672 308 672 q 616 612 535 672 q 697 418 697 551 l 697 0 l 535 0 l 525 60 q 429 6 486 25 q 286 -14 372 -14 m 338 110 q 446 131 400 110 q 518 183 492 151 l 518 288 l 328 288 q 218 197 218 288 q 338 110 218 110 z "},"ẩ":{"ha":779,"x_min":51,"x_max":788,"o":"m 553 856 l 553 953 q 638 967 618 956 q 657 1001 657 979 q 594 1039 657 1039 q 553 1034 572 1039 q 519 1022 535 1029 l 519 1108 q 569 1120 542 1115 q 635 1125 596 1125 q 748 1094 708 1125 q 788 1013 788 1063 q 763 939 788 967 q 682 903 738 911 l 682 856 l 553 856 m 153 724 l 328 911 l 471 911 l 646 724 l 494 724 l 400 836 l 307 724 l 153 724 m 286 -14 q 170 9 224 -14 q 84 77 117 32 q 51 190 51 122 q 120 346 51 288 q 324 404 189 404 l 518 404 l 518 422 q 484 508 518 483 q 347 533 450 533 q 131 499 235 533 l 131 631 q 242 660 176 649 q 386 672 308 672 q 616 612 535 672 q 697 418 697 551 l 697 0 l 535 0 l 525 60 q 429 6 486 25 q 286 -14 372 -14 m 338 110 q 446 131 400 110 q 518 183 492 151 l 518 288 l 328 288 q 218 197 218 288 q 338 110 218 110 z "},"ẫ":{"ha":769,"x_min":51,"x_max":697,"o":"m 533 932 q 454 946 493 932 q 380 974 415 960 q 310 988 344 988 q 185 936 232 988 l 185 1056 q 237 1087 204 1075 q 306 1099 269 1099 q 385 1085 349 1099 q 456 1057 421 1071 q 529 1043 490 1043 q 644 1096 607 1043 l 644 976 q 601 945 631 958 q 533 932 572 932 m 156 724 l 331 911 l 474 911 l 649 724 l 497 724 l 403 836 l 310 724 l 156 724 m 286 -14 q 170 9 224 -14 q 84 77 117 32 q 51 190 51 122 q 120 346 51 288 q 324 404 189 404 l 518 404 l 518 422 q 484 508 518 483 q 347 533 450 533 q 131 499 235 533 l 131 631 q 242 660 176 649 q 386 672 308 672 q 616 612 535 672 q 697 418 697 551 l 697 0 l 535 0 l 525 60 q 429 6 486 25 q 286 -14 372 -14 m 338 110 q 446 131 400 110 q 518 183 492 151 l 518 288 l 328 288 q 218 197 218 288 q 338 110 218 110 z "},"ä":{"ha":769,"x_min":51,"x_max":697,"o":"m 203 760 l 203 896 l 350 896 l 350 760 l 203 760 m 475 760 l 475 896 l 622 896 l 622 760 l 475 760 m 286 -14 q 170 9 224 -14 q 84 77 117 32 q 51 190 51 122 q 120 346 51 288 q 324 404 189 404 l 518 404 l 518 422 q 484 508 518 483 q 347 533 450 533 q 131 499 235 533 l 131 631 q 242 660 176 649 q 386 672 308 672 q 616 612 535 672 q 697 418 697 551 l 697 0 l 535 0 l 525 60 q 429 6 486 25 q 286 -14 372 -14 m 338 110 q 446 131 400 110 q 518 183 492 151 l 518 288 l 328 288 q 218 197 218 288 q 338 110 218 110 z "},"ạ":{"ha":769,"x_min":51,"x_max":697,"o":"m 286 -14 q 170 9 224 -14 q 84 77 117 32 q 51 190 51 122 q 120 346 51 288 q 324 404 189 404 l 518 404 l 518 422 q 484 508 518 483 q 347 533 450 533 q 131 499 235 533 l 131 631 q 242 660 176 649 q 386 672 308 672 q 616 612 535 672 q 697 418 697 551 l 697 0 l 535 0 l 525 60 q 429 6 486 25 q 286 -14 372 -14 m 338 110 q 446 131 400 110 q 518 183 492 151 l 518 288 l 328 288 q 218 197 218 288 q 338 110 218 110 m 340 -251 l 340 -114 l 489 -114 l 489 -251 l 340 -251 z "},"à":{"ha":769,"x_min":51,"x_max":697,"o":"m 336 725 l 214 985 l 376 985 l 488 725 l 336 725 m 286 -14 q 170 9 224 -14 q 84 77 117 32 q 51 190 51 122 q 120 346 51 288 q 324 404 189 404 l 518 404 l 518 422 q 484 508 518 483 q 347 533 450 533 q 131 499 235 533 l 131 631 q 242 660 176 649 q 386 672 308 672 q 616 612 535 672 q 697 418 697 551 l 697 0 l 535 0 l 525 60 q 429 6 486 25 q 286 -14 372 -14 m 338 110 q 446 131 400 110 q 518 183 492 151 l 518 288 l 328 288 q 218 197 218 288 q 338 110 218 110 z "},"ả":{"ha":769,"x_min":51,"x_max":697,"o":"m 319 724 l 319 836 q 420 856 396 840 q 444 903 444 872 q 419 944 444 931 q 349 957 393 957 q 304 953 329 957 q 263 942 279 949 l 263 1035 q 401 1053 317 1053 q 537 1017 490 1053 q 583 919 583 981 q 556 831 583 861 q 463 788 529 800 l 463 724 l 319 724 m 286 -14 q 170 9 224 -14 q 84 77 117 32 q 51 190 51 122 q 120 346 51 288 q 324 404 189 404 l 518 404 l 518 422 q 484 508 518 483 q 347 533 450 533 q 131 499 235 533 l 131 631 q 242 660 176 649 q 386 672 308 672 q 616 612 535 672 q 697 418 697 551 l 697 0 l 535 0 l 525 60 q 429 6 486 25 q 286 -14 372 -14 m 338 110 q 446 131 400 110 q 518 183 492 151 l 518 288 l 328 288 q 218 197 218 288 q 338 110 218 110 z "},"ɑ":{"ha":821,"x_min":51,"x_max":740,"o":"m 354 -14 q 198 17 267 -14 q 90 116 129 47 q 51 297 51 185 q 95 499 51 415 q 212 627 139 582 q 371 672 285 672 q 469 660 426 672 q 553 615 513 647 l 553 658 l 740 658 l 740 0 l 579 0 l 568 61 q 474 5 525 24 q 354 -14 424 -14 m 406 124 q 553 183 493 124 l 553 476 q 419 535 497 535 q 242 297 242 535 q 285 160 242 196 q 406 124 328 124 z "},"ā":{"ha":769,"x_min":51,"x_max":697,"o":"m 201 751 l 201 867 l 629 867 l 629 751 l 201 751 m 286 -14 q 170 9 224 -14 q 84 77 117 32 q 51 190 51 122 q 120 346 51 288 q 324 404 189 404 l 518 404 l 518 422 q 484 508 518 483 q 347 533 450 533 q 131 499 235 533 l 131 631 q 242 660 176 649 q 386 672 308 672 q 616 612 535 672 q 697 418 697 551 l 697 0 l 535 0 l 525 60 q 429 6 486 25 q 286 -14 372 -14 m 338 110 q 446 131 400 110 q 518 183 492 151 l 518 288 l 328 288 q 218 197 218 288 q 338 110 218 110 z "},"ą":{"ha":769,"x_min":51,"x_max":711,"o":"m 286 -14 q 170 9 224 -14 q 84 77 117 32 q 51 190 51 122 q 120 346 51 288 q 324 404 189 404 l 518 404 l 518 422 q 484 508 518 483 q 347 533 450 533 q 131 499 235 533 l 131 631 q 242 660 176 649 q 386 672 308 672 q 616 612 535 672 q 697 418 697 551 l 697 0 l 674 0 q 606 -67 632 -31 q 581 -144 581 -104 q 598 -185 581 -174 q 643 -196 615 -196 q 680 -192 661 -196 q 711 -181 699 -187 l 711 -286 q 660 -300 693 -294 q 593 -306 628 -306 q 481 -274 529 -306 q 433 -179 433 -243 q 460 -80 433 -126 q 535 0 486 -33 l 525 60 q 429 6 486 25 q 286 -14 372 -14 m 338 110 q 446 131 400 110 q 518 183 492 151 l 518 288 l 328 288 q 218 197 218 288 q 338 110 218 110 z "},"å":{"ha":769,"x_min":51,"x_max":697,"o":"m 418 725 q 292 773 339 725 q 246 890 246 821 q 292 1008 246 960 q 418 1057 339 1057 q 546 1008 500 1057 q 592 890 592 960 q 546 773 592 821 q 418 725 500 725 m 418 811 q 478 834 457 811 q 500 890 500 857 q 478 947 500 924 q 418 969 457 969 q 360 947 382 969 q 338 890 338 924 q 360 834 338 857 q 418 811 382 811 m 286 -14 q 170 9 224 -14 q 84 77 117 32 q 51 190 51 122 q 120 346 51 288 q 324 404 189 404 l 518 404 l 518 422 q 484 508 518 483 q 347 533 450 533 q 131 499 235 533 l 131 631 q 242 660 176 649 q 386 672 308 672 q 616 612 535 672 q 697 418 697 551 l 697 0 l 535 0 l 525 60 q 429 6 486 25 q 286 -14 372 -14 m 338 110 q 446 131 400 110 q 518 183 492 151 l 518 288 l 328 288 q 218 197 218 288 q 338 110 218 110 z "},"ǻ":{"ha":769,"x_min":51,"x_max":697,"o":"m 322 1092 l 433 1299 l 596 1299 l 474 1092 l 322 1092 m 404 718 q 278 766 325 718 q 232 883 232 814 q 278 1001 232 953 q 404 1050 325 1050 q 532 1001 486 1050 q 578 883 578 953 q 532 766 578 814 q 404 718 486 718 m 404 804 q 465 827 443 804 q 486 883 486 850 q 465 940 486 917 q 404 963 443 963 q 346 940 368 963 q 324 883 324 917 q 346 827 324 850 q 404 804 368 804 m 286 -14 q 170 9 224 -14 q 84 77 117 32 q 51 190 51 122 q 120 346 51 288 q 324 404 189 404 l 518 404 l 518 422 q 484 508 518 483 q 347 533 450 533 q 131 499 235 533 l 131 631 q 242 660 176 649 q 386 672 308 672 q 616 612 535 672 q 697 418 697 551 l 697 0 l 535 0 l 525 60 q 429 6 486 25 q 286 -14 372 -14 m 338 110 q 446 131 400 110 q 518 183 492 151 l 518 288 l 328 288 q 218 197 218 288 q 338 110 218 110 z "},"ã":{"ha":769,"x_min":51,"x_max":697,"o":"m 532 742 q 453 756 492 742 q 378 783 414 769 q 308 797 343 797 q 183 746 231 797 l 183 879 q 235 910 203 899 q 304 922 268 922 q 383 908 347 922 q 454 881 419 894 q 528 867 489 867 q 643 919 606 867 l 643 786 q 600 755 629 768 q 532 742 571 742 m 286 -14 q 170 9 224 -14 q 84 77 117 32 q 51 190 51 122 q 120 346 51 288 q 324 404 189 404 l 518 404 l 518 422 q 484 508 518 483 q 347 533 450 533 q 131 499 235 533 l 131 631 q 242 660 176 649 q 386 672 308 672 q 616 612 535 672 q 697 418 697 551 l 697 0 l 535 0 l 525 60 q 429 6 486 25 q 286 -14 372 -14 m 338 110 q 446 131 400 110 q 518 183 492 151 l 518 288 l 328 288 q 218 197 218 288 q 338 110 218 110 z "},"æ":{"ha":1225,"x_min":51,"x_max":1174,"o":"m 303 -14 q 177 9 235 -14 q 85 77 119 32 q 51 190 51 122 q 120 346 51 288 q 324 404 189 404 l 518 404 l 518 422 q 484 508 518 483 q 347 533 450 533 q 131 499 235 533 l 131 631 q 242 660 176 649 q 386 672 308 672 q 526 655 467 672 q 625 600 586 638 q 858 672 708 672 q 1092 592 1011 672 q 1174 383 1174 513 l 1174 264 l 697 264 q 770 153 713 185 q 933 122 828 122 q 1041 132 986 122 q 1135 157 1096 142 l 1135 28 q 1028 -3 1089 7 q 894 -14 967 -14 q 743 13 819 -14 q 625 93 667 40 q 540 35 585 58 q 440 -1 496 11 q 303 -14 383 -14 m 697 379 l 1010 379 l 1010 415 q 976 505 1010 472 q 864 538 943 538 q 734 500 771 538 q 697 379 697 463 m 338 110 q 444 128 400 110 q 518 178 488 147 l 518 288 l 328 288 q 218 197 218 288 q 338 110 218 110 z "},"ǽ":{"ha":1225,"x_min":51,"x_max":1174,"o":"m 532 725 l 643 985 l 806 985 l 683 725 l 532 725 m 303 -14 q 177 9 235 -14 q 85 77 119 32 q 51 190 51 122 q 120 346 51 288 q 324 404 189 404 l 518 404 l 518 422 q 484 508 518 483 q 347 533 450 533 q 131 499 235 533 l 131 631 q 242 660 176 649 q 386 672 308 672 q 526 655 467 672 q 625 600 586 638 q 858 672 708 672 q 1092 592 1011 672 q 1174 383 1174 513 l 1174 264 l 697 264 q 770 153 713 185 q 933 122 828 122 q 1041 132 986 122 q 1135 157 1096 142 l 1135 28 q 1028 -3 1089 7 q 894 -14 967 -14 q 743 13 819 -14 q 625 93 667 40 q 540 35 585 58 q 440 -1 496 11 q 303 -14 383 -14 m 697 379 l 1010 379 l 1010 415 q 976 505 1010 472 q 864 538 943 538 q 734 500 771 538 q 697 379 697 463 m 338 110 q 444 128 400 110 q 518 178 488 147 l 518 288 l 328 288 q 218 197 218 288 q 338 110 218 110 z "},"b":{"ha":819,"x_min":79,"x_max":768,"o":"m 467 -14 q 346 5 397 -14 q 251 61 294 24 l 242 0 l 79 0 l 79 936 l 267 936 l 267 622 q 357 660 307 647 q 461 672 407 672 q 685 592 603 672 q 768 335 768 513 q 687 72 768 157 q 467 -14 606 -14 m 414 124 q 541 176 504 124 q 578 335 578 229 q 538 490 578 444 q 413 535 499 535 q 331 522 369 535 q 267 486 293 510 l 267 183 q 333 139 294 154 q 414 124 371 124 z "},"c":{"ha":678,"x_min":51,"x_max":639,"o":"m 415 -14 q 145 74 239 -14 q 51 329 51 161 q 152 588 51 503 q 421 672 253 672 q 540 663 490 672 q 638 631 590 653 l 638 496 q 557 522 603 513 q 458 532 511 532 q 297 488 353 532 q 242 329 242 444 q 292 175 242 224 q 457 126 343 126 q 552 136 506 126 q 639 165 599 146 l 639 26 q 415 -14 546 -14 z "},"ć":{"ha":690,"x_min":51,"x_max":639,"o":"m 313 725 l 424 985 l 586 985 l 464 725 l 313 725 m 415 -14 q 145 74 239 -14 q 51 329 51 161 q 152 588 51 503 q 421 672 253 672 q 540 663 490 672 q 638 631 590 653 l 638 496 q 557 522 603 513 q 458 532 511 532 q 297 488 353 532 q 242 329 242 444 q 292 175 242 224 q 457 126 343 126 q 552 136 506 126 q 639 165 599 146 l 639 26 q 415 -14 546 -14 z "},"č":{"ha":692,"x_min":51,"x_max":640,"o":"m 333 725 l 146 967 l 293 967 l 393 828 l 496 967 l 640 967 l 453 725 l 333 725 m 415 -14 q 145 74 239 -14 q 51 329 51 161 q 152 588 51 503 q 421 672 253 672 q 540 663 490 672 q 638 631 590 653 l 638 496 q 557 522 603 513 q 458 532 511 532 q 297 488 353 532 q 242 329 242 444 q 292 175 242 224 q 457 126 343 126 q 552 136 506 126 q 639 165 599 146 l 639 26 q 415 -14 546 -14 z "},"ç":{"ha":690,"x_min":51,"x_max":639,"o":"m 369 -333 q 313 -330 346 -333 q 264 -322 279 -326 l 264 -228 q 349 -239 304 -239 q 435 -230 410 -239 q 460 -187 460 -221 q 431 -144 460 -151 q 353 -136 401 -136 l 292 -136 l 329 -8 q 123 97 194 13 q 51 329 51 182 q 152 588 51 503 q 421 672 253 672 q 540 663 490 672 q 638 631 590 653 l 638 496 q 557 522 603 513 q 458 532 511 532 q 297 488 353 532 q 242 329 242 444 q 292 175 242 224 q 457 126 343 126 q 552 136 506 126 q 639 165 599 146 l 639 26 q 450 -14 558 -8 l 433 -62 q 544 -97 507 -62 q 581 -189 581 -131 q 530 -295 581 -257 q 369 -333 479 -333 z "},"ĉ":{"ha":690,"x_min":51,"x_max":639,"o":"m 140 725 l 328 967 l 447 967 l 635 725 l 490 725 l 388 864 l 288 725 l 140 725 m 415 -14 q 145 74 239 -14 q 51 329 51 161 q 152 588 51 503 q 421 672 253 672 q 540 663 490 672 q 638 631 590 653 l 638 496 q 557 522 603 513 q 458 532 511 532 q 297 488 353 532 q 242 329 242 444 q 292 175 242 224 q 457 126 343 126 q 552 136 506 126 q 639 165 599 146 l 639 26 q 415 -14 546 -14 z "},"ċ":{"ha":690,"x_min":51,"x_max":639,"o":"m 317 760 l 317 896 l 463 896 l 463 760 l 317 760 m 415 -14 q 145 74 239 -14 q 51 329 51 161 q 152 588 51 503 q 421 672 253 672 q 540 663 490 672 q 638 631 590 653 l 638 496 q 557 522 603 513 q 458 532 511 532 q 297 488 353 532 q 242 329 242 444 q 292 175 242 224 q 457 126 343 126 q 552 136 506 126 q 639 165 599 146 l 639 26 q 415 -14 546 -14 z "},"d":{"ha":819,"x_min":51,"x_max":740,"o":"m 354 -14 q 198 17 267 -14 q 90 120 129 49 q 51 310 51 192 q 94 508 51 428 q 210 631 138 589 q 368 672 282 672 q 553 622 476 672 l 553 936 l 740 936 l 740 0 l 579 0 l 568 61 q 474 5 525 24 q 354 -14 424 -14 m 406 124 q 553 183 493 124 l 553 483 q 417 535 494 535 q 242 310 242 535 q 285 164 242 204 q 406 124 328 124 z "},"ð":{"ha":796,"x_min":51,"x_max":776,"o":"m 400 -14 q 135 64 218 -14 q 51 276 51 142 q 133 489 51 418 q 364 560 215 560 q 472 544 414 560 q 575 496 531 528 l 575 544 q 551 693 575 638 l 382 619 l 382 703 l 503 754 q 372 788 457 788 q 265 778 314 788 q 172 750 217 768 l 172 874 q 401 908 269 908 q 544 885 483 908 q 649 818 606 861 l 776 874 l 776 790 l 697 756 q 751 521 751 660 l 751 338 q 663 72 751 158 q 400 -14 575 -14 m 399 111 q 575 293 575 111 l 575 382 q 490 425 536 408 q 399 442 444 442 q 260 398 300 442 q 219 276 219 354 q 265 156 219 200 q 399 111 310 111 z "},"ď":{"ha":1021,"x_min":51,"x_max":1021,"o":"m 354 -14 q 198 17 267 -14 q 90 120 129 49 q 51 310 51 192 q 94 508 51 428 q 210 631 138 589 q 368 672 282 672 q 553 622 476 672 l 553 936 l 740 936 l 740 0 l 579 0 l 568 61 q 474 5 525 24 q 354 -14 424 -14 m 831 657 l 874 936 l 1021 936 l 951 657 l 831 657 m 406 124 q 553 183 493 124 l 553 483 q 417 535 494 535 q 242 310 242 535 q 285 164 242 204 q 406 124 328 124 z "},"đ":{"ha":821,"x_min":51,"x_max":811,"o":"m 354 -14 q 198 17 267 -14 q 90 120 129 49 q 51 310 51 192 q 94 508 51 428 q 210 631 138 589 q 368 672 282 672 q 553 622 476 672 l 553 732 l 360 732 l 360 857 l 553 857 l 553 936 l 740 936 l 740 857 l 811 857 l 811 732 l 740 732 l 740 0 l 579 0 l 568 61 q 474 5 525 24 q 354 -14 424 -14 m 406 124 q 553 183 493 124 l 553 483 q 417 535 494 535 q 242 310 242 535 q 285 164 242 204 q 406 124 328 124 z "},"ḍ":{"ha":819,"x_min":51,"x_max":740,"o":"m 354 -14 q 198 17 267 -14 q 90 120 129 49 q 51 310 51 192 q 94 508 51 428 q 210 631 138 589 q 368 672 282 672 q 553 622 476 672 l 553 936 l 740 936 l 740 0 l 579 0 l 568 61 q 474 5 525 24 q 354 -14 424 -14 m 406 124 q 553 183 493 124 l 553 483 q 417 535 494 535 q 242 310 242 535 q 285 164 242 204 q 406 124 328 124 m 333 -251 l 333 -114 l 482 -114 l 482 -251 l 333 -251 z "},"ḏ":{"ha":819,"x_min":51,"x_max":740,"o":"m 354 -14 q 198 17 267 -14 q 90 120 129 49 q 51 310 51 192 q 94 508 51 428 q 210 631 138 589 q 368 672 282 672 q 553 622 476 672 l 553 936 l 740 936 l 740 0 l 579 0 l 568 61 q 474 5 525 24 q 354 -14 424 -14 m 406 124 q 553 183 493 124 l 553 483 q 417 535 494 535 q 242 310 242 535 q 285 164 242 204 q 406 124 328 124 m 210 -254 l 210 -139 l 638 -139 l 638 -254 l 210 -254 z "},"e":{"ha":753,"x_min":51,"x_max":701,"o":"m 422 -14 q 151 72 251 -14 q 51 331 51 157 q 135 580 51 488 q 386 672 219 672 q 620 592 539 672 q 701 383 701 513 l 701 264 l 225 264 q 298 156 240 185 q 461 126 356 126 q 569 136 514 126 q 663 161 624 146 l 663 28 q 556 -3 617 7 q 422 -14 494 -14 m 225 379 l 538 379 l 538 415 q 504 505 538 472 q 392 538 471 538 q 262 500 299 538 q 225 379 225 463 z "},"é":{"ha":753,"x_min":51,"x_max":701,"o":"m 311 725 l 422 985 l 585 985 l 463 725 l 311 725 m 422 -14 q 151 72 251 -14 q 51 331 51 157 q 135 580 51 488 q 386 672 219 672 q 620 592 539 672 q 701 383 701 513 l 701 264 l 225 264 q 298 156 240 185 q 461 126 356 126 q 569 136 514 126 q 663 161 624 146 l 663 28 q 556 -3 617 7 q 422 -14 494 -14 m 225 379 l 538 379 l 538 415 q 504 505 538 472 q 392 538 471 538 q 262 500 299 538 q 225 379 225 463 z "},"ĕ":{"ha":753,"x_min":51,"x_max":701,"o":"m 393 725 q 235 783 296 725 q 175 943 175 842 l 300 943 q 323 867 300 900 q 393 833 346 833 q 465 867 442 833 q 489 943 489 900 l 614 943 q 553 783 614 842 q 393 725 492 725 m 422 -14 q 151 72 251 -14 q 51 331 51 157 q 135 580 51 488 q 386 672 219 672 q 620 592 539 672 q 701 383 701 513 l 701 264 l 225 264 q 298 156 240 185 q 461 126 356 126 q 569 136 514 126 q 663 161 624 146 l 663 28 q 556 -3 617 7 q 422 -14 494 -14 m 225 379 l 538 379 l 538 415 q 504 505 538 472 q 392 538 471 538 q 262 500 299 538 q 225 379 225 463 z "},"ě":{"ha":753,"x_min":51,"x_max":701,"o":"m 340 725 l 153 967 l 300 967 l 400 828 l 503 967 l 647 967 l 460 725 l 340 725 m 422 -14 q 151 72 251 -14 q 51 331 51 157 q 135 580 51 488 q 386 672 219 672 q 620 592 539 672 q 701 383 701 513 l 701 264 l 225 264 q 298 156 240 185 q 461 126 356 126 q 569 136 514 126 q 663 161 624 146 l 663 28 q 556 -3 617 7 q 422 -14 494 -14 m 225 379 l 538 379 l 538 415 q 504 505 538 472 q 392 538 471 538 q 262 500 299 538 q 225 379 225 463 z "},"ê":{"ha":753,"x_min":51,"x_max":701,"o":"m 142 725 l 329 967 l 449 967 l 636 725 l 492 725 l 389 864 l 289 725 l 142 725 m 422 -14 q 151 72 251 -14 q 51 331 51 157 q 135 580 51 488 q 386 672 219 672 q 620 592 539 672 q 701 383 701 513 l 701 264 l 225 264 q 298 156 240 185 q 461 126 356 126 q 569 136 514 126 q 663 161 624 146 l 663 28 q 556 -3 617 7 q 422 -14 494 -14 m 225 379 l 538 379 l 538 415 q 504 505 538 472 q 392 538 471 538 q 262 500 299 538 q 225 379 225 463 z "},"ế":{"ha":753,"x_min":51,"x_max":771,"o":"m 538 886 l 629 1082 l 771 1082 l 669 886 l 538 886 m 150 724 l 325 911 l 468 911 l 643 724 l 492 724 l 397 836 l 304 724 l 150 724 m 422 -14 q 151 72 251 -14 q 51 331 51 157 q 135 580 51 488 q 386 672 219 672 q 620 592 539 672 q 701 383 701 513 l 701 264 l 225 264 q 298 156 240 185 q 461 126 356 126 q 569 136 514 126 q 663 161 624 146 l 663 28 q 556 -3 617 7 q 422 -14 494 -14 m 225 379 l 538 379 l 538 415 q 504 505 538 472 q 392 538 471 538 q 262 500 299 538 q 225 379 225 463 z "},"ệ":{"ha":753,"x_min":51,"x_max":701,"o":"m 142 725 l 329 967 l 449 967 l 636 725 l 492 725 l 389 864 l 289 725 l 142 725 m 422 -14 q 151 72 251 -14 q 51 331 51 157 q 135 580 51 488 q 386 672 219 672 q 620 592 539 672 q 701 383 701 513 l 701 264 l 225 264 q 298 156 240 185 q 461 126 356 126 q 569 136 514 126 q 663 161 624 146 l 663 28 q 556 -3 617 7 q 422 -14 494 -14 m 225 379 l 538 379 l 538 415 q 504 505 538 472 q 392 538 471 538 q 262 500 299 538 q 225 379 225 463 m 315 -251 l 315 -114 l 464 -114 l 464 -251 l 315 -251 z "},"ề":{"ha":753,"x_min":22,"x_max":701,"o":"m 124 900 l 22 1096 l 164 1096 l 256 900 l 124 900 m 150 738 l 325 925 l 468 925 l 643 738 l 489 738 l 396 850 l 301 738 l 150 738 m 422 -14 q 151 72 251 -14 q 51 331 51 157 q 135 580 51 488 q 386 672 219 672 q 620 592 539 672 q 701 383 701 513 l 701 264 l 225 264 q 298 156 240 185 q 461 126 356 126 q 569 136 514 126 q 663 161 624 146 l 663 28 q 556 -3 617 7 q 422 -14 494 -14 m 225 379 l 538 379 l 538 415 q 504 505 538 472 q 392 538 471 538 q 262 500 299 538 q 225 379 225 463 z "},"ể":{"ha":753,"x_min":51,"x_max":778,"o":"m 543 856 l 543 953 q 628 967 608 956 q 647 1001 647 979 q 585 1039 647 1039 q 544 1034 563 1039 q 510 1022 525 1029 l 510 1108 q 559 1120 532 1115 q 625 1125 586 1125 q 738 1094 699 1125 q 778 1013 778 1063 q 753 939 778 967 q 672 903 728 911 l 672 856 l 543 856 m 143 724 l 318 911 l 461 911 l 636 724 l 485 724 l 390 836 l 297 724 l 143 724 m 422 -14 q 151 72 251 -14 q 51 331 51 157 q 135 580 51 488 q 386 672 219 672 q 620 592 539 672 q 701 383 701 513 l 701 264 l 225 264 q 298 156 240 185 q 461 126 356 126 q 569 136 514 126 q 663 161 624 146 l 663 28 q 556 -3 617 7 q 422 -14 494 -14 m 225 379 l 538 379 l 538 415 q 504 505 538 472 q 392 538 471 538 q 262 500 299 538 q 225 379 225 463 z "},"ễ":{"ha":753,"x_min":51,"x_max":701,"o":"m 525 932 q 446 946 485 932 q 372 974 407 960 q 301 988 336 988 q 176 936 224 988 l 176 1056 q 228 1087 196 1075 q 297 1099 261 1099 q 376 1085 340 1099 q 447 1057 413 1071 q 521 1043 482 1043 q 636 1096 599 1043 l 636 976 q 593 945 622 958 q 525 932 564 932 m 147 724 l 322 911 l 465 911 l 640 724 l 489 724 l 394 836 l 301 724 l 147 724 m 422 -14 q 151 72 251 -14 q 51 331 51 157 q 135 580 51 488 q 386 672 219 672 q 620 592 539 672 q 701 383 701 513 l 701 264 l 225 264 q 298 156 240 185 q 461 126 356 126 q 569 136 514 126 q 663 161 624 146 l 663 28 q 556 -3 617 7 q 422 -14 494 -14 m 225 379 l 538 379 l 538 415 q 504 505 538 472 q 392 538 471 538 q 262 500 299 538 q 225 379 225 463 z "},"ë":{"ha":753,"x_min":51,"x_max":701,"o":"m 178 760 l 178 896 l 325 896 l 325 760 l 178 760 m 450 760 l 450 896 l 597 896 l 597 760 l 450 760 m 422 -14 q 151 72 251 -14 q 51 331 51 157 q 135 580 51 488 q 386 672 219 672 q 620 592 539 672 q 701 383 701 513 l 701 264 l 225 264 q 298 156 240 185 q 461 126 356 126 q 569 136 514 126 q 663 161 624 146 l 663 28 q 556 -3 617 7 q 422 -14 494 -14 m 225 379 l 538 379 l 538 415 q 504 505 538 472 q 392 538 471 538 q 262 500 299 538 q 225 379 225 463 z "},"ė":{"ha":753,"x_min":51,"x_max":701,"o":"m 318 760 l 318 896 l 464 896 l 464 760 l 318 760 m 422 -14 q 151 72 251 -14 q 51 331 51 157 q 135 580 51 488 q 386 672 219 672 q 620 592 539 672 q 701 383 701 513 l 701 264 l 225 264 q 298 156 240 185 q 461 126 356 126 q 569 136 514 126 q 663 161 624 146 l 663 28 q 556 -3 617 7 q 422 -14 494 -14 m 225 379 l 538 379 l 538 415 q 504 505 538 472 q 392 538 471 538 q 262 500 299 538 q 225 379 225 463 z "},"ẹ":{"ha":753,"x_min":51,"x_max":701,"o":"m 422 -14 q 151 72 251 -14 q 51 331 51 157 q 135 580 51 488 q 386 672 219 672 q 620 592 539 672 q 701 383 701 513 l 701 264 l 225 264 q 298 156 240 185 q 461 126 356 126 q 569 136 514 126 q 663 161 624 146 l 663 28 q 556 -3 617 7 q 422 -14 494 -14 m 225 379 l 538 379 l 538 415 q 504 505 538 472 q 392 538 471 538 q 262 500 299 538 q 225 379 225 463 m 321 -251 l 321 -114 l 469 -114 l 469 -251 l 321 -251 z "},"è":{"ha":753,"x_min":51,"x_max":701,"o":"m 314 725 l 192 985 l 354 985 l 465 725 l 314 725 m 422 -14 q 151 72 251 -14 q 51 331 51 157 q 135 580 51 488 q 386 672 219 672 q 620 592 539 672 q 701 383 701 513 l 701 264 l 225 264 q 298 156 240 185 q 461 126 356 126 q 569 136 514 126 q 663 161 624 146 l 663 28 q 556 -3 617 7 q 422 -14 494 -14 m 225 379 l 538 379 l 538 415 q 504 505 538 472 q 392 538 471 538 q 262 500 299 538 q 225 379 225 463 z "},"ẻ":{"ha":753,"x_min":51,"x_max":701,"o":"m 322 724 l 322 836 q 423 856 399 840 q 447 903 447 872 q 422 944 447 931 q 351 957 396 957 q 307 953 332 957 q 265 942 282 949 l 265 1035 q 404 1053 319 1053 q 540 1017 493 1053 q 586 919 586 981 q 559 831 586 861 q 465 788 532 800 l 465 724 l 322 724 m 422 -14 q 151 72 251 -14 q 51 331 51 157 q 135 580 51 488 q 386 672 219 672 q 620 592 539 672 q 701 383 701 513 l 701 264 l 225 264 q 298 156 240 185 q 461 126 356 126 q 569 136 514 126 q 663 161 624 146 l 663 28 q 556 -3 617 7 q 422 -14 494 -14 m 225 379 l 538 379 l 538 415 q 504 505 538 472 q 392 538 471 538 q 262 500 299 538 q 225 379 225 463 z "},"ē":{"ha":753,"x_min":51,"x_max":701,"o":"m 186 772 l 186 888 l 614 888 l 614 772 l 186 772 m 422 -14 q 151 72 251 -14 q 51 331 51 157 q 135 580 51 488 q 386 672 219 672 q 620 592 539 672 q 701 383 701 513 l 701 264 l 225 264 q 298 156 240 185 q 461 126 356 126 q 569 136 514 126 q 663 161 624 146 l 663 28 q 556 -3 617 7 q 422 -14 494 -14 m 225 379 l 538 379 l 538 415 q 504 505 538 472 q 392 538 471 538 q 262 500 299 538 q 225 379 225 463 z "},"ę":{"ha":753,"x_min":51,"x_max":701,"o":"m 489 -306 q 377 -274 425 -306 q 329 -179 329 -243 q 413 -14 329 -82 q 149 74 246 -11 q 51 331 51 160 q 135 580 51 488 q 386 672 219 672 q 620 592 539 672 q 701 383 701 513 l 701 264 l 225 264 q 298 156 240 185 q 461 126 356 126 q 569 136 514 126 q 663 161 624 146 l 663 28 q 568 -1 622 10 q 501 -69 526 -32 q 476 -144 476 -106 q 494 -185 476 -174 q 539 -196 511 -196 q 576 -192 557 -196 q 607 -181 594 -187 l 607 -286 q 556 -300 589 -294 q 489 -306 524 -306 m 225 379 l 538 379 l 538 415 q 504 505 538 472 q 392 538 471 538 q 262 500 299 538 q 225 379 225 463 z "},"ẽ":{"ha":753,"x_min":51,"x_max":701,"o":"m 513 742 q 433 756 472 742 q 359 783 394 769 q 289 797 324 797 q 164 746 211 797 l 164 879 q 216 910 183 899 q 285 922 249 922 q 364 908 328 922 q 435 881 400 894 q 508 867 469 867 q 624 919 586 867 l 624 786 q 581 755 610 768 q 513 742 551 742 m 422 -14 q 151 72 251 -14 q 51 331 51 157 q 135 580 51 488 q 386 672 219 672 q 620 592 539 672 q 701 383 701 513 l 701 264 l 225 264 q 298 156 240 185 q 461 126 356 126 q 569 136 514 126 q 663 161 624 146 l 663 28 q 556 -3 617 7 q 422 -14 494 -14 m 225 379 l 538 379 l 538 415 q 504 505 538 472 q 392 538 471 538 q 262 500 299 538 q 225 379 225 463 z "},"ə":{"ha":753,"x_min":51,"x_max":701,"o":"m 367 -14 q 133 60 214 -14 q 51 275 51 135 l 51 394 l 528 394 q 460 503 514 474 q 292 532 407 532 q 185 522 240 532 q 90 497 129 513 l 90 631 q 197 662 136 651 q 331 672 258 672 q 701 328 701 672 q 662 151 701 229 q 547 30 622 74 q 367 -14 472 -14 m 361 121 q 491 158 454 121 q 528 279 528 196 l 215 279 l 215 243 q 249 154 215 188 q 361 121 282 121 z "},"f":{"ha":515,"x_min":22,"x_max":493,"o":"m 114 0 l 114 514 l 22 514 l 22 658 l 114 658 l 114 725 q 172 893 114 828 q 344 958 231 958 q 426 951 390 958 q 493 932 463 944 l 493 803 q 453 814 472 810 q 410 818 433 818 q 326 797 350 818 q 301 722 301 775 l 301 658 l 468 658 l 460 514 l 301 514 l 301 0 l 114 0 z "},"g":{"ha":781,"x_min":57,"x_max":746,"o":"m 357 -244 q 206 -235 283 -244 q 76 -207 129 -225 l 76 -67 q 207 -95 132 -85 q 347 -106 282 -106 q 486 -95 443 -106 q 529 -58 529 -85 q 510 -28 529 -36 q 432 -19 492 -19 l 253 -19 q 76 111 76 -19 q 99 185 76 151 q 169 238 121 218 q 57 429 57 294 q 136 615 57 557 q 371 672 215 672 q 441 667 403 672 q 499 658 479 663 l 746 658 l 742 540 l 638 540 q 681 428 681 500 q 617 266 681 326 q 428 206 553 206 q 385 208 406 206 q 344 213 365 210 q 274 193 303 207 q 246 156 246 179 q 303 124 246 124 l 489 124 q 643 78 589 124 q 697 -53 697 33 q 610 -197 697 -150 q 357 -244 522 -244 m 372 311 q 488 340 456 311 q 521 436 521 368 q 488 535 521 504 q 372 565 456 565 q 258 535 293 565 q 224 436 224 506 q 256 342 224 372 q 372 311 289 311 z "},"ğ":{"ha":781,"x_min":57,"x_max":746,"o":"m 375 725 q 217 783 278 725 q 157 943 157 842 l 282 943 q 305 867 282 900 q 375 833 328 833 q 447 867 424 833 q 471 943 471 900 l 596 943 q 535 783 596 842 q 375 725 474 725 m 357 -244 q 206 -235 283 -244 q 76 -207 129 -225 l 76 -67 q 207 -95 132 -85 q 347 -106 282 -106 q 486 -95 443 -106 q 529 -58 529 -85 q 510 -28 529 -36 q 432 -19 492 -19 l 253 -19 q 76 111 76 -19 q 99 185 76 151 q 169 238 121 218 q 57 429 57 294 q 136 615 57 557 q 371 672 215 672 q 441 667 403 672 q 499 658 479 663 l 746 658 l 742 540 l 638 540 q 681 428 681 500 q 617 266 681 326 q 428 206 553 206 q 385 208 406 206 q 344 213 365 210 q 274 193 303 207 q 246 156 246 179 q 303 124 246 124 l 489 124 q 643 78 589 124 q 697 -53 697 33 q 610 -197 697 -150 q 357 -244 522 -244 m 372 311 q 488 340 456 311 q 521 436 521 368 q 488 535 521 504 q 372 565 456 565 q 258 535 293 565 q 224 436 224 506 q 256 342 224 372 q 372 311 289 311 z "},"ǧ":{"ha":781,"x_min":57,"x_max":746,"o":"m 346 725 l 158 967 l 306 967 l 406 828 l 508 967 l 653 967 l 465 725 l 346 725 m 357 -244 q 206 -235 283 -244 q 76 -207 129 -225 l 76 -67 q 207 -95 132 -85 q 347 -106 282 -106 q 486 -95 443 -106 q 529 -58 529 -85 q 510 -28 529 -36 q 432 -19 492 -19 l 253 -19 q 76 111 76 -19 q 99 185 76 151 q 169 238 121 218 q 57 429 57 294 q 136 615 57 557 q 371 672 215 672 q 441 667 403 672 q 499 658 479 663 l 746 658 l 742 540 l 638 540 q 681 428 681 500 q 617 266 681 326 q 428 206 553 206 q 385 208 406 206 q 344 213 365 210 q 274 193 303 207 q 246 156 246 179 q 303 124 246 124 l 489 124 q 643 78 589 124 q 697 -53 697 33 q 610 -197 697 -150 q 357 -244 522 -244 m 372 311 q 488 340 456 311 q 521 436 521 368 q 488 535 521 504 q 372 565 456 565 q 258 535 293 565 q 224 436 224 506 q 256 342 224 372 q 372 311 289 311 z "},"ĝ":{"ha":781,"x_min":57,"x_max":746,"o":"m 135 725 l 322 967 l 442 967 l 629 725 l 485 725 l 382 864 l 282 725 l 135 725 m 357 -244 q 206 -235 283 -244 q 76 -207 129 -225 l 76 -67 q 207 -95 132 -85 q 347 -106 282 -106 q 486 -95 443 -106 q 529 -58 529 -85 q 510 -28 529 -36 q 432 -19 492 -19 l 253 -19 q 76 111 76 -19 q 99 185 76 151 q 169 238 121 218 q 57 429 57 294 q 136 615 57 557 q 371 672 215 672 q 441 667 403 672 q 499 658 479 663 l 746 658 l 742 540 l 638 540 q 681 428 681 500 q 617 266 681 326 q 428 206 553 206 q 385 208 406 206 q 344 213 365 210 q 274 193 303 207 q 246 156 246 179 q 303 124 246 124 l 489 124 q 643 78 589 124 q 697 -53 697 33 q 610 -197 697 -150 q 357 -244 522 -244 m 372 311 q 488 340 456 311 q 521 436 521 368 q 488 535 521 504 q 372 565 456 565 q 258 535 293 565 q 224 436 224 506 q 256 342 224 372 q 372 311 289 311 z "},"ģ":{"ha":781,"x_min":57,"x_max":746,"o":"m 296 725 l 365 1004 l 486 1004 l 443 725 l 296 725 m 357 -244 q 206 -235 283 -244 q 76 -207 129 -225 l 76 -67 q 207 -95 132 -85 q 347 -106 282 -106 q 486 -95 443 -106 q 529 -58 529 -85 q 510 -28 529 -36 q 432 -19 492 -19 l 253 -19 q 76 111 76 -19 q 99 185 76 151 q 169 238 121 218 q 57 429 57 294 q 136 615 57 557 q 371 672 215 672 q 441 667 403 672 q 499 658 479 663 l 746 658 l 742 540 l 638 540 q 681 428 681 500 q 617 266 681 326 q 428 206 553 206 q 385 208 406 206 q 344 213 365 210 q 274 193 303 207 q 246 156 246 179 q 303 124 246 124 l 489 124 q 643 78 589 124 q 697 -53 697 33 q 610 -197 697 -150 q 357 -244 522 -244 m 372 311 q 488 340 456 311 q 521 436 521 368 q 488 535 521 504 q 372 565 456 565 q 258 535 293 565 q 224 436 224 506 q 256 342 224 372 q 372 311 289 311 z "},"ġ":{"ha":781,"x_min":57,"x_max":746,"o":"m 293 746 l 293 882 l 439 882 l 439 746 l 293 746 m 357 -244 q 206 -235 283 -244 q 76 -207 129 -225 l 76 -67 q 207 -95 132 -85 q 347 -106 282 -106 q 486 -95 443 -106 q 529 -58 529 -85 q 510 -28 529 -36 q 432 -19 492 -19 l 253 -19 q 76 111 76 -19 q 99 185 76 151 q 169 238 121 218 q 57 429 57 294 q 136 615 57 557 q 371 672 215 672 q 441 667 403 672 q 499 658 479 663 l 746 658 l 742 540 l 638 540 q 681 428 681 500 q 617 266 681 326 q 428 206 553 206 q 385 208 406 206 q 344 213 365 210 q 274 193 303 207 q 246 156 246 179 q 303 124 246 124 l 489 124 q 643 78 589 124 q 697 -53 697 33 q 610 -197 697 -150 q 357 -244 522 -244 m 372 311 q 488 340 456 311 q 521 436 521 368 q 488 535 521 504 q 372 565 456 565 q 258 535 293 565 q 224 436 224 506 q 256 342 224 372 q 372 311 289 311 z "},"ḡ":{"ha":781,"x_min":57,"x_max":746,"o":"m 182 765 l 182 881 l 610 881 l 610 765 l 182 765 m 357 -244 q 206 -235 283 -244 q 76 -207 129 -225 l 76 -67 q 207 -95 132 -85 q 347 -106 282 -106 q 486 -95 443 -106 q 529 -58 529 -85 q 510 -28 529 -36 q 432 -19 492 -19 l 253 -19 q 76 111 76 -19 q 99 185 76 151 q 169 238 121 218 q 57 429 57 294 q 136 615 57 557 q 371 672 215 672 q 441 667 403 672 q 499 658 479 663 l 746 658 l 742 540 l 638 540 q 681 428 681 500 q 617 266 681 326 q 428 206 553 206 q 385 208 406 206 q 344 213 365 210 q 274 193 303 207 q 246 156 246 179 q 303 124 246 124 l 489 124 q 643 78 589 124 q 697 -53 697 33 q 610 -197 697 -150 q 357 -244 522 -244 m 372 311 q 488 340 456 311 q 521 436 521 368 q 488 535 521 504 q 372 565 456 565 q 258 535 293 565 q 224 436 224 506 q 256 342 224 372 q 372 311 289 311 z "},"h":{"ha":815,"x_min":79,"x_max":742,"o":"m 79 0 l 79 936 l 267 936 l 267 603 q 365 653 307 633 q 492 672 424 672 q 682 611 622 672 q 742 422 742 550 l 742 0 l 554 0 l 554 413 q 527 507 554 479 q 426 535 500 535 q 340 515 383 535 q 267 467 296 496 l 267 0 l 79 0 z "},"ħ":{"ha":815,"x_min":10,"x_max":742,"o":"m 79 0 l 79 735 l 10 735 l 10 863 l 79 863 l 79 936 l 267 936 l 267 863 l 453 863 l 453 735 l 267 735 l 267 603 q 365 653 307 633 q 492 672 424 672 q 682 611 622 672 q 742 422 742 550 l 742 0 l 554 0 l 554 413 q 527 507 554 479 q 426 535 500 535 q 340 515 383 535 q 267 467 296 496 l 267 0 l 79 0 z "},"ḫ":{"ha":815,"x_min":79,"x_max":742,"o":"m 79 0 l 79 936 l 267 936 l 267 603 q 365 653 307 633 q 492 672 424 672 q 682 611 622 672 q 742 422 742 550 l 742 0 l 554 0 l 554 413 q 527 507 554 479 q 426 535 500 535 q 340 515 383 535 q 267 467 296 496 l 267 0 l 79 0 m 421 -301 q 263 -243 324 -301 q 203 -83 203 -185 l 328 -83 q 351 -160 328 -126 q 421 -193 374 -193 q 493 -160 469 -193 q 517 -83 517 -126 l 642 -83 q 581 -243 642 -185 q 421 -301 519 -301 z "},"ĥ":{"ha":815,"x_min":79,"x_max":742,"o":"m 85 979 l 272 1221 l 392 1221 l 579 979 l 435 979 l 332 1118 l 232 979 l 85 979 m 79 0 l 79 936 l 267 936 l 267 603 q 365 653 307 633 q 492 672 424 672 q 682 611 622 672 q 742 422 742 550 l 742 0 l 554 0 l 554 413 q 527 507 554 479 q 426 535 500 535 q 340 515 383 535 q 267 467 296 496 l 267 0 l 79 0 z "},"ḥ":{"ha":815,"x_min":79,"x_max":742,"o":"m 79 0 l 79 936 l 267 936 l 267 603 q 365 653 307 633 q 492 672 424 672 q 682 611 622 672 q 742 422 742 550 l 742 0 l 554 0 l 554 413 q 527 507 554 479 q 426 535 500 535 q 340 515 383 535 q 267 467 296 496 l 267 0 l 79 0 m 344 -251 l 344 -114 l 493 -114 l 493 -251 l 344 -251 z "},"i":{"ha":408,"x_min":42,"x_max":329,"o":"m 125 779 l 125 926 l 329 926 l 329 779 l 125 779 m 140 0 l 140 519 l 42 519 l 58 658 l 328 658 l 328 0 l 140 0 z "},"ı":{"ha":408,"x_min":42,"x_max":328,"o":"m 140 0 l 140 519 l 42 519 l 58 658 l 328 658 l 328 0 l 140 0 z "},"í":{"ha":408,"x_min":42,"x_max":413,"o":"m 139 725 l 250 985 l 413 985 l 290 725 l 139 725 m 140 0 l 140 519 l 42 519 l 58 658 l 328 658 l 328 0 l 140 0 z "},"ĭ":{"ha":446,"x_min":14,"x_max":453,"o":"m 232 725 q 74 783 135 725 q 14 943 14 842 l 139 943 q 162 867 139 900 q 232 833 185 833 q 304 867 281 833 q 328 943 328 900 l 453 943 q 392 783 453 842 q 232 725 331 725 m 178 0 l 178 519 l 79 519 l 96 658 l 365 658 l 365 0 l 178 0 z "},"ǐ":{"ha":446,"x_min":0,"x_max":494,"o":"m 188 725 l 0 967 l 147 967 l 247 828 l 350 967 l 494 967 l 307 725 l 188 725 m 178 0 l 178 519 l 79 519 l 96 658 l 365 658 l 365 0 l 178 0 z "},"î":{"ha":446,"x_min":-10,"x_max":485,"o":"m -10 725 l 178 967 l 297 967 l 485 725 l 340 725 l 238 864 l 138 725 l -10 725 m 178 0 l 178 519 l 79 519 l 96 658 l 365 658 l 365 0 l 178 0 z "},"ï":{"ha":460,"x_min":33,"x_max":453,"o":"m 33 760 l 33 896 l 181 896 l 181 760 l 33 760 m 306 760 l 306 896 l 453 896 l 453 760 l 306 760 m 192 0 l 192 519 l 93 519 l 110 658 l 379 658 l 379 0 l 192 0 z "},"ị":{"ha":446,"x_min":79,"x_max":367,"o":"m 163 779 l 163 926 l 367 926 l 367 779 l 163 779 m 178 0 l 178 519 l 79 519 l 96 658 l 365 658 l 365 0 l 178 0 m 199 -251 l 199 -114 l 347 -114 l 347 -251 l 199 -251 z "},"ì":{"ha":446,"x_min":68,"x_max":365,"o":"m 190 725 l 68 985 l 231 985 l 342 725 l 190 725 m 178 0 l 178 519 l 79 519 l 96 658 l 365 658 l 365 0 l 178 0 z "},"ỉ":{"ha":446,"x_min":79,"x_max":431,"o":"m 167 724 l 167 836 q 267 856 243 840 q 292 903 292 872 q 266 944 292 931 q 196 957 240 957 q 151 953 176 957 q 110 942 126 949 l 110 1035 q 249 1053 164 1053 q 384 1017 338 1053 q 431 919 431 981 q 403 831 431 861 q 310 788 376 800 l 310 724 l 167 724 m 178 0 l 178 519 l 79 519 l 96 658 l 365 658 l 365 0 l 178 0 z "},"ĳ":{"ha":771,"x_min":42,"x_max":692,"o":"m 125 779 l 125 926 l 329 926 l 329 779 l 125 779 m 488 779 l 488 926 l 692 926 l 692 779 l 488 779 m 464 -325 q 314 -300 376 -325 l 314 -171 q 358 -181 336 -178 q 397 -185 379 -185 q 479 -162 454 -185 q 504 -89 504 -139 l 504 519 l 406 519 l 422 658 l 692 658 l 692 -107 q 635 -265 692 -204 q 464 -325 579 -325 m 140 0 l 140 519 l 42 519 l 58 658 l 328 658 l 328 0 l 140 0 z "},"ī":{"ha":446,"x_min":13,"x_max":440,"o":"m 13 792 l 13 907 l 440 907 l 440 792 l 13 792 m 178 0 l 178 519 l 79 519 l 96 658 l 365 658 l 365 0 l 178 0 z "},"į":{"ha":408,"x_min":42,"x_max":350,"o":"m 125 779 l 125 926 l 329 926 l 329 779 l 125 779 m 140 0 l 140 519 l 42 519 l 58 658 l 328 658 l 328 0 l 313 0 q 245 -67 271 -31 q 219 -144 219 -104 q 237 -185 219 -174 q 282 -196 254 -196 q 319 -192 300 -196 q 350 -181 338 -187 l 350 -286 q 299 -300 332 -294 q 232 -306 267 -306 q 120 -274 168 -306 q 72 -179 72 -243 q 99 -80 72 -126 q 174 0 125 -33 l 140 0 z "},"ĩ":{"ha":446,"x_min":-6,"x_max":454,"o":"m 343 740 q 264 754 303 740 q 190 782 225 768 q 119 796 154 796 q -6 744 42 796 l -6 878 q 47 909 14 897 q 115 921 79 921 q 194 907 158 921 q 265 879 231 893 q 339 865 300 865 q 454 918 417 865 l 454 785 q 411 753 440 767 q 343 740 382 740 m 178 0 l 178 519 l 79 519 l 96 658 l 365 658 l 365 0 l 178 0 z "},"j":{"ha":450,"x_min":-8,"x_max":369,"o":"m 165 779 l 165 926 l 369 926 l 369 779 l 165 779 m 142 -325 q -8 -300 54 -325 l -8 -171 q 35 -181 14 -178 q 75 -185 57 -185 q 157 -162 132 -185 q 182 -89 182 -139 l 182 519 l 83 519 l 100 658 l 369 658 l 369 -107 q 313 -265 369 -204 q 142 -325 257 -325 z "},"ȷ":{"ha":446,"x_min":-12,"x_max":365,"o":"m 138 -325 q -12 -300 50 -325 l -12 -171 q 31 -181 10 -178 q 71 -185 53 -185 q 153 -162 128 -185 q 178 -89 178 -139 l 178 519 l 79 519 l 96 658 l 365 658 l 365 -107 q 309 -265 365 -204 q 138 -325 253 -325 z "},"ĵ":{"ha":446,"x_min":-12,"x_max":483,"o":"m -11 725 l 176 967 l 296 967 l 483 725 l 339 725 l 236 864 l 136 725 l -11 725 m 138 -325 q -12 -300 50 -325 l -12 -171 q 31 -181 10 -178 q 71 -185 53 -185 q 153 -162 128 -185 q 178 -89 178 -139 l 178 519 l 79 519 l 96 658 l 365 658 l 365 -107 q 309 -265 365 -204 q 138 -325 253 -325 z "},"k":{"ha":783,"x_min":79,"x_max":742,"o":"m 79 0 l 79 936 l 267 936 l 267 421 l 513 658 l 726 658 l 461 389 l 742 0 l 543 0 l 343 290 l 267 217 l 267 0 l 79 0 z "},"ķ":{"ha":793,"x_min":79,"x_max":742,"o":"m 79 0 l 79 936 l 267 936 l 267 421 l 513 658 l 726 658 l 461 389 l 742 0 l 543 0 l 343 290 l 267 217 l 267 0 l 79 0 m 268 -331 l 311 -51 l 458 -51 l 389 -331 l 268 -331 z "},"ĸ":{"ha":793,"x_min":79,"x_max":742,"o":"m 79 0 l 79 658 l 267 658 l 267 399 l 513 658 l 726 658 l 461 372 l 742 0 l 543 0 l 344 272 l 267 192 l 267 0 l 79 0 z "},"l":{"ha":414,"x_min":79,"x_max":386,"o":"m 263 -14 q 123 31 167 -14 q 79 172 79 75 l 79 936 l 267 936 l 267 188 q 281 140 267 153 q 321 126 294 126 q 386 136 357 126 l 386 7 q 263 -14 333 -14 z "},"ĺ":{"ha":414,"x_min":79,"x_max":386,"o":"m 101 1024 l 213 1283 l 375 1283 l 253 1024 l 101 1024 m 263 -14 q 123 31 167 -14 q 79 172 79 75 l 79 936 l 267 936 l 267 188 q 281 140 267 153 q 321 126 294 126 q 386 136 357 126 l 386 7 q 263 -14 333 -14 z "},"ľ":{"ha":536,"x_min":81,"x_max":536,"o":"m 264 -14 q 124 31 168 -14 q 81 172 81 75 l 81 936 l 268 936 l 268 188 q 282 140 268 153 q 322 126 296 126 q 388 136 358 126 l 388 7 q 264 -14 335 -14 m 346 657 l 389 936 l 536 936 l 467 657 l 346 657 z "},"ļ":{"ha":414,"x_min":79,"x_max":386,"o":"m 263 -14 q 123 31 167 -14 q 79 172 79 75 l 79 936 l 267 936 l 267 188 q 281 140 267 153 q 321 126 294 126 q 386 136 357 126 l 386 7 q 263 -14 333 -14 m 143 -331 l 186 -51 l 333 -51 l 264 -331 l 143 -331 z "},"ŀ":{"ha":469,"x_min":79,"x_max":483,"o":"m 263 -14 q 123 31 167 -14 q 79 172 79 75 l 79 936 l 267 936 l 267 188 q 281 140 267 153 q 321 126 294 126 q 386 136 357 126 l 386 7 q 263 -14 333 -14 m 338 390 l 338 526 l 483 526 l 483 390 l 338 390 z "},"ḷ":{"ha":414,"x_min":79,"x_max":386,"o":"m 263 -14 q 123 31 167 -14 q 79 172 79 75 l 79 936 l 267 936 l 267 188 q 281 140 267 153 q 321 126 294 126 q 386 136 357 126 l 386 7 q 263 -14 333 -14 m 149 -251 l 149 -114 l 297 -114 l 297 -251 l 149 -251 z "},"ḹ":{"ha":414,"x_min":-40,"x_max":388,"o":"m -40 1006 l -40 1121 l 388 1121 l 388 1006 l -40 1006 m 263 -14 q 123 31 167 -14 q 79 172 79 75 l 79 936 l 267 936 l 267 188 q 281 140 267 153 q 321 126 294 126 q 386 136 357 126 l 386 7 q 263 -14 333 -14 m 149 -251 l 149 -114 l 297 -114 l 297 -251 l 149 -251 z "},"ḻ":{"ha":414,"x_min":0,"x_max":428,"o":"m 263 -14 q 123 31 167 -14 q 79 172 79 75 l 79 936 l 267 936 l 267 188 q 281 140 267 153 q 321 126 294 126 q 386 136 357 126 l 386 7 q 263 -14 333 -14 m 0 -219 l 0 -104 l 428 -104 l 428 -219 l 0 -219 z "},"ł":{"ha":414,"x_min":-40,"x_max":394,"o":"m 263 -14 q 123 31 167 -14 q 79 172 79 75 l 79 372 l -40 321 l -40 456 l 79 507 l 79 936 l 267 936 l 267 589 l 394 644 l 394 510 l 267 454 l 267 188 q 281 140 267 153 q 321 126 294 126 q 386 136 357 126 l 386 7 q 263 -14 333 -14 z "},"m":{"ha":1192,"x_min":79,"x_max":1118,"o":"m 79 0 l 79 658 l 253 658 l 260 594 q 363 651 307 631 q 485 672 419 672 q 592 651 554 672 q 651 592 631 631 q 756 650 697 628 q 896 672 815 672 q 1064 613 1010 672 q 1118 433 1118 554 l 1118 0 l 933 0 l 933 413 q 906 506 933 478 q 817 535 878 535 q 678 475 733 535 q 685 418 685 451 l 685 0 l 510 0 l 510 413 q 489 504 510 474 q 408 535 468 535 q 330 513 367 535 q 264 464 293 492 l 264 0 l 79 0 z "},"ṃ":{"ha":1192,"x_min":79,"x_max":1118,"o":"m 79 0 l 79 658 l 253 658 l 260 594 q 363 651 307 631 q 485 672 419 672 q 592 651 554 672 q 651 592 631 631 q 756 650 697 628 q 896 672 815 672 q 1064 613 1010 672 q 1118 433 1118 554 l 1118 0 l 933 0 l 933 413 q 906 506 933 478 q 817 535 878 535 q 678 475 733 535 q 685 418 685 451 l 685 0 l 510 0 l 510 413 q 489 504 510 474 q 408 535 468 535 q 330 513 367 535 q 264 464 293 492 l 264 0 l 79 0 m 542 -251 l 542 -114 l 690 -114 l 690 -251 l 542 -251 z "},"n":{"ha":815,"x_min":79,"x_max":742,"o":"m 79 0 l 79 658 l 253 658 l 260 596 q 362 649 300 626 q 492 672 424 672 q 682 611 622 672 q 742 422 742 550 l 742 0 l 554 0 l 554 413 q 527 507 554 479 q 426 535 500 535 q 340 515 383 535 q 267 467 296 496 l 267 0 l 79 0 z "},"ń":{"ha":815,"x_min":79,"x_max":742,"o":"m 310 725 l 421 985 l 583 985 l 461 725 l 310 725 m 79 0 l 79 658 l 253 658 l 260 596 q 362 649 300 626 q 492 672 424 672 q 682 611 622 672 q 742 422 742 550 l 742 0 l 554 0 l 554 413 q 527 507 554 479 q 426 535 500 535 q 340 515 383 535 q 267 467 296 496 l 267 0 l 79 0 z "},"ŉ":{"ha":850,"x_min":-93,"x_max":776,"o":"m -93 618 l -50 897 l 97 897 l 28 618 l -93 618 m 114 0 l 114 658 l 288 658 l 294 596 q 397 649 335 626 q 526 672 458 672 q 717 611 657 672 q 776 422 776 550 l 776 0 l 589 0 l 589 413 q 562 507 589 479 q 461 535 535 535 q 374 515 418 535 q 301 467 331 496 l 301 0 l 114 0 z "},"ň":{"ha":815,"x_min":79,"x_max":742,"o":"m 338 725 l 150 967 l 297 967 l 397 828 l 500 967 l 644 967 l 457 725 l 338 725 m 79 0 l 79 658 l 253 658 l 260 596 q 362 649 300 626 q 492 672 424 672 q 682 611 622 672 q 742 422 742 550 l 742 0 l 554 0 l 554 413 q 527 507 554 479 q 426 535 500 535 q 340 515 383 535 q 267 467 296 496 l 267 0 l 79 0 z "},"ņ":{"ha":815,"x_min":79,"x_max":742,"o":"m 79 0 l 79 658 l 253 658 l 260 596 q 362 649 300 626 q 492 672 424 672 q 682 611 622 672 q 742 422 742 550 l 742 0 l 554 0 l 554 413 q 527 507 554 479 q 426 535 500 535 q 340 515 383 535 q 267 467 296 496 l 267 0 l 79 0 m 310 -331 l 353 -51 l 500 -51 l 431 -331 l 310 -331 z "},"ṅ":{"ha":815,"x_min":79,"x_max":742,"o":"m 339 760 l 339 896 l 485 896 l 485 760 l 339 760 m 79 0 l 79 658 l 253 658 l 260 596 q 362 649 300 626 q 492 672 424 672 q 682 611 622 672 q 742 422 742 550 l 742 0 l 554 0 l 554 413 q 527 507 554 479 q 426 535 500 535 q 340 515 383 535 q 267 467 296 496 l 267 0 l 79 0 z "},"ṇ":{"ha":815,"x_min":79,"x_max":742,"o":"m 79 0 l 79 658 l 253 658 l 260 596 q 362 649 300 626 q 492 672 424 672 q 682 611 622 672 q 742 422 742 550 l 742 0 l 554 0 l 554 413 q 527 507 554 479 q 426 535 500 535 q 340 515 383 535 q 267 467 296 496 l 267 0 l 79 0 m 346 -251 l 346 -114 l 494 -114 l 494 -251 l 346 -251 z "},"ŋ":{"ha":815,"x_min":79,"x_max":742,"o":"m 514 -325 q 364 -300 426 -325 l 364 -171 q 408 -181 386 -178 q 447 -185 429 -185 q 529 -162 504 -185 q 554 -89 554 -139 l 554 413 q 527 507 554 479 q 426 535 500 535 q 340 515 383 535 q 267 467 296 496 l 267 0 l 79 0 l 79 658 l 253 658 l 260 596 q 362 649 300 626 q 492 672 424 672 q 682 611 622 672 q 742 422 742 550 l 742 -107 q 685 -265 742 -204 q 514 -325 629 -325 z "},"ṉ":{"ha":815,"x_min":79,"x_max":742,"o":"m 79 0 l 79 658 l 253 658 l 260 596 q 362 649 300 626 q 492 672 424 672 q 682 611 622 672 q 742 422 742 550 l 742 0 l 554 0 l 554 413 q 527 507 554 479 q 426 535 500 535 q 340 515 383 535 q 267 467 296 496 l 267 0 l 79 0 m 206 -215 l 206 -100 l 633 -100 l 633 -215 l 206 -215 z "},"ñ":{"ha":815,"x_min":79,"x_max":742,"o":"m 535 742 q 456 756 494 742 q 381 783 417 769 q 311 797 346 797 q 186 746 233 797 l 186 879 q 238 910 206 899 q 307 922 271 922 q 386 908 350 922 q 457 881 422 894 q 531 867 492 867 q 646 919 608 867 l 646 786 q 603 755 632 768 q 535 742 574 742 m 79 0 l 79 658 l 253 658 l 260 596 q 362 649 300 626 q 492 672 424 672 q 682 611 622 672 q 742 422 742 550 l 742 0 l 554 0 l 554 413 q 527 507 554 479 q 426 535 500 535 q 340 515 383 535 q 267 467 296 496 l 267 0 l 79 0 z "},"o":{"ha":818,"x_min":51,"x_max":767,"o":"m 408 -14 q 138 76 224 -14 q 51 329 51 165 q 138 583 51 493 q 408 672 225 672 q 680 583 593 672 q 767 329 767 493 q 681 76 767 165 q 408 -14 594 -14 m 408 146 q 538 187 499 146 q 576 329 576 228 q 538 472 576 431 q 408 513 499 513 q 281 472 319 513 q 242 329 242 431 q 281 187 242 228 q 408 146 319 146 z "},"ó":{"ha":818,"x_min":51,"x_max":767,"o":"m 322 725 l 433 985 l 596 985 l 474 725 l 322 725 m 408 -14 q 138 76 224 -14 q 51 329 51 165 q 138 583 51 493 q 408 672 225 672 q 680 583 593 672 q 767 329 767 493 q 681 76 767 165 q 408 -14 594 -14 m 408 146 q 538 187 499 146 q 576 329 576 228 q 538 472 576 431 q 408 513 499 513 q 281 472 319 513 q 242 329 242 431 q 281 187 242 228 q 408 146 319 146 z "},"ŏ":{"ha":818,"x_min":51,"x_max":767,"o":"m 408 725 q 251 783 311 725 q 190 943 190 842 l 315 943 q 338 867 315 900 q 408 833 361 833 q 481 867 457 833 q 504 943 504 900 l 629 943 q 568 783 629 842 q 408 725 507 725 m 408 -14 q 138 76 224 -14 q 51 329 51 165 q 138 583 51 493 q 408 672 225 672 q 680 583 593 672 q 767 329 767 493 q 681 76 767 165 q 408 -14 594 -14 m 408 146 q 538 187 499 146 q 576 329 576 228 q 538 472 576 431 q 408 513 499 513 q 281 472 319 513 q 242 329 242 431 q 281 187 242 228 q 408 146 319 146 z "},"ǒ":{"ha":818,"x_min":51,"x_max":767,"o":"m 349 725 l 161 967 l 308 967 l 408 828 l 511 967 l 656 967 l 468 725 l 349 725 m 408 -14 q 138 76 224 -14 q 51 329 51 165 q 138 583 51 493 q 408 672 225 672 q 680 583 593 672 q 767 329 767 493 q 681 76 767 165 q 408 -14 594 -14 m 408 146 q 538 187 499 146 q 576 329 576 228 q 538 472 576 431 q 408 513 499 513 q 281 472 319 513 q 242 329 242 431 q 281 187 242 228 q 408 146 319 146 z "},"ô":{"ha":818,"x_min":51,"x_max":767,"o":"m 161 725 l 349 967 l 468 967 l 656 725 l 511 725 l 408 864 l 308 725 l 161 725 m 408 -14 q 138 76 224 -14 q 51 329 51 165 q 138 583 51 493 q 408 672 225 672 q 680 583 593 672 q 767 329 767 493 q 681 76 767 165 q 408 -14 594 -14 m 408 146 q 538 187 499 146 q 576 329 576 228 q 538 472 576 431 q 408 513 499 513 q 281 472 319 513 q 242 329 242 431 q 281 187 242 228 q 408 146 319 146 z "},"ố":{"ha":818,"x_min":51,"x_max":783,"o":"m 550 886 l 642 1082 l 783 1082 l 682 886 l 550 886 m 163 724 l 338 911 l 481 911 l 656 724 l 504 724 l 410 836 l 317 724 l 163 724 m 408 -14 q 138 76 224 -14 q 51 329 51 165 q 138 583 51 493 q 408 672 225 672 q 680 583 593 672 q 767 329 767 493 q 681 76 767 165 q 408 -14 594 -14 m 408 146 q 538 187 499 146 q 576 329 576 228 q 538 472 576 431 q 408 513 499 513 q 281 472 319 513 q 242 329 242 431 q 281 187 242 228 q 408 146 319 146 z "},"ộ":{"ha":818,"x_min":51,"x_max":767,"o":"m 161 725 l 349 967 l 468 967 l 656 725 l 511 725 l 408 864 l 308 725 l 161 725 m 408 -14 q 138 76 224 -14 q 51 329 51 165 q 138 583 51 493 q 408 672 225 672 q 680 583 593 672 q 767 329 767 493 q 681 76 767 165 q 408 -14 594 -14 m 408 146 q 538 187 499 146 q 576 329 576 228 q 538 472 576 431 q 408 513 499 513 q 281 472 319 513 q 242 329 242 431 q 281 187 242 228 q 408 146 319 146 m 335 -251 l 335 -114 l 483 -114 l 483 -251 l 335 -251 z "},"ồ":{"ha":818,"x_min":35,"x_max":767,"o":"m 136 886 l 35 1082 l 176 1082 l 268 886 l 136 886 m 163 724 l 338 911 l 481 911 l 656 724 l 501 724 l 408 836 l 314 724 l 163 724 m 408 -14 q 138 76 224 -14 q 51 329 51 165 q 138 583 51 493 q 408 672 225 672 q 680 583 593 672 q 767 329 767 493 q 681 76 767 165 q 408 -14 594 -14 m 408 146 q 538 187 499 146 q 576 329 576 228 q 538 472 576 431 q 408 513 499 513 q 281 472 319 513 q 242 329 242 431 q 281 187 242 228 q 408 146 319 146 z "},"ổ":{"ha":818,"x_min":51,"x_max":797,"o":"m 563 856 l 563 953 q 647 967 628 956 q 667 1001 667 979 q 604 1039 667 1039 q 563 1034 582 1039 q 529 1022 544 1029 l 529 1108 q 578 1120 551 1115 q 644 1125 606 1125 q 758 1094 718 1125 q 797 1013 797 1063 q 772 939 797 967 q 692 903 747 911 l 692 856 l 563 856 m 163 724 l 338 911 l 481 911 l 656 724 l 504 724 l 410 836 l 317 724 l 163 724 m 408 -14 q 138 76 224 -14 q 51 329 51 165 q 138 583 51 493 q 408 672 225 672 q 680 583 593 672 q 767 329 767 493 q 681 76 767 165 q 408 -14 594 -14 m 408 146 q 538 187 499 146 q 576 329 576 228 q 538 472 576 431 q 408 513 499 513 q 281 472 319 513 q 242 329 242 431 q 281 187 242 228 q 408 146 319 146 z "},"ỗ":{"ha":818,"x_min":51,"x_max":767,"o":"m 528 932 q 449 946 488 932 q 374 974 410 960 q 304 988 339 988 q 179 936 226 988 l 179 1056 q 231 1087 199 1075 q 300 1099 264 1099 q 379 1085 343 1099 q 450 1057 415 1071 q 524 1043 485 1043 q 639 1096 601 1043 l 639 976 q 596 945 625 958 q 528 932 567 932 m 163 724 l 338 911 l 481 911 l 656 724 l 504 724 l 410 836 l 317 724 l 163 724 m 408 -14 q 138 76 224 -14 q 51 329 51 165 q 138 583 51 493 q 408 672 225 672 q 680 583 593 672 q 767 329 767 493 q 681 76 767 165 q 408 -14 594 -14 m 408 146 q 538 187 499 146 q 576 329 576 228 q 538 472 576 431 q 408 513 499 513 q 281 472 319 513 q 242 329 242 431 q 281 187 242 228 q 408 146 319 146 z "},"ö":{"ha":818,"x_min":51,"x_max":767,"o":"m 199 760 l 199 896 l 346 896 l 346 760 l 199 760 m 471 760 l 471 896 l 618 896 l 618 760 l 471 760 m 408 -14 q 138 76 224 -14 q 51 329 51 165 q 138 583 51 493 q 408 672 225 672 q 680 583 593 672 q 767 329 767 493 q 681 76 767 165 q 408 -14 594 -14 m 408 146 q 538 187 499 146 q 576 329 576 228 q 538 472 576 431 q 408 513 499 513 q 281 472 319 513 q 242 329 242 431 q 281 187 242 228 q 408 146 319 146 z "},"ọ":{"ha":818,"x_min":51,"x_max":767,"o":"m 408 -14 q 138 76 224 -14 q 51 329 51 165 q 138 583 51 493 q 408 672 225 672 q 680 583 593 672 q 767 329 767 493 q 681 76 767 165 q 408 -14 594 -14 m 408 146 q 538 187 499 146 q 576 329 576 228 q 538 472 576 431 q 408 513 499 513 q 281 472 319 513 q 242 329 242 431 q 281 187 242 228 q 408 146 319 146 m 335 -251 l 335 -114 l 483 -114 l 483 -251 l 335 -251 z "},"ò":{"ha":818,"x_min":51,"x_max":767,"o":"m 338 725 l 215 985 l 378 985 l 489 725 l 338 725 m 408 -14 q 138 76 224 -14 q 51 329 51 165 q 138 583 51 493 q 408 672 225 672 q 680 583 593 672 q 767 329 767 493 q 681 76 767 165 q 408 -14 594 -14 m 408 146 q 538 187 499 146 q 576 329 576 228 q 538 472 576 431 q 408 513 499 513 q 281 472 319 513 q 242 329 242 431 q 281 187 242 228 q 408 146 319 146 z "},"ỏ":{"ha":818,"x_min":51,"x_max":767,"o":"m 340 724 l 340 836 q 441 856 417 840 q 465 903 465 872 q 440 944 465 931 q 369 957 414 957 q 325 953 350 957 q 283 942 300 949 l 283 1035 q 422 1053 338 1053 q 558 1017 511 1053 q 604 919 604 981 q 577 831 604 861 q 483 788 550 800 l 483 724 l 340 724 m 408 -14 q 138 76 224 -14 q 51 329 51 165 q 138 583 51 493 q 408 672 225 672 q 680 583 593 672 q 767 329 767 493 q 681 76 767 165 q 408 -14 594 -14 m 408 146 q 538 187 499 146 q 576 329 576 228 q 538 472 576 431 q 408 513 499 513 q 281 472 319 513 q 242 329 242 431 q 281 187 242 228 q 408 146 319 146 z "},"ơ":{"ha":964,"x_min":51,"x_max":946,"o":"m 408 -14 q 138 76 224 -14 q 51 329 51 165 q 138 583 51 493 q 408 672 225 672 q 565 650 499 672 q 674 588 631 628 q 781 624 751 589 q 811 744 811 660 l 946 744 q 897 547 946 610 q 747 468 849 483 q 767 329 767 406 q 681 76 767 165 q 408 -14 594 -14 m 408 146 q 538 187 499 146 q 576 329 576 228 q 538 472 576 431 q 408 513 499 513 q 281 472 319 513 q 242 329 242 431 q 281 187 242 228 q 408 146 319 146 z "},"ớ":{"ha":964,"x_min":51,"x_max":946,"o":"m 340 725 l 451 985 l 614 985 l 492 725 l 340 725 m 408 -14 q 138 76 224 -14 q 51 329 51 165 q 138 583 51 493 q 408 672 225 672 q 565 650 499 672 q 674 588 631 628 q 781 624 751 589 q 811 744 811 660 l 946 744 q 897 547 946 610 q 747 468 849 483 q 767 329 767 406 q 681 76 767 165 q 408 -14 594 -14 m 408 146 q 538 187 499 146 q 576 329 576 228 q 538 472 576 431 q 408 513 499 513 q 281 472 319 513 q 242 329 242 431 q 281 187 242 228 q 408 146 319 146 z "},"ợ":{"ha":964,"x_min":51,"x_max":946,"o":"m 408 -14 q 138 76 224 -14 q 51 329 51 165 q 138 583 51 493 q 408 672 225 672 q 565 650 499 672 q 674 588 631 628 q 781 624 751 589 q 811 744 811 660 l 946 744 q 897 547 946 610 q 747 468 849 483 q 767 329 767 406 q 681 76 767 165 q 408 -14 594 -14 m 408 146 q 538 187 499 146 q 576 329 576 228 q 538 472 576 431 q 408 513 499 513 q 281 472 319 513 q 242 329 242 431 q 281 187 242 228 q 408 146 319 146 m 346 -251 l 346 -114 l 494 -114 l 494 -251 l 346 -251 z "},"ờ":{"ha":964,"x_min":51,"x_max":946,"o":"m 358 725 l 236 985 l 399 985 l 510 725 l 358 725 m 408 -14 q 138 76 224 -14 q 51 329 51 165 q 138 583 51 493 q 408 672 225 672 q 565 650 499 672 q 674 588 631 628 q 781 624 751 589 q 811 744 811 660 l 946 744 q 897 547 946 610 q 747 468 849 483 q 767 329 767 406 q 681 76 767 165 q 408 -14 594 -14 m 408 146 q 538 187 499 146 q 576 329 576 228 q 538 472 576 431 q 408 513 499 513 q 281 472 319 513 q 242 329 242 431 q 281 187 242 228 q 408 146 319 146 z "},"ở":{"ha":964,"x_min":51,"x_max":946,"o":"m 335 724 l 335 836 q 435 856 411 840 q 460 903 460 872 q 434 944 460 931 q 364 957 408 957 q 319 953 344 957 q 278 942 294 949 l 278 1035 q 417 1053 332 1053 q 552 1017 506 1053 q 599 919 599 981 q 572 831 599 861 q 478 788 544 800 l 478 724 l 335 724 m 408 -14 q 138 76 224 -14 q 51 329 51 165 q 138 583 51 493 q 408 672 225 672 q 565 650 499 672 q 674 588 631 628 q 781 624 751 589 q 811 744 811 660 l 946 744 q 897 547 946 610 q 747 468 849 483 q 767 329 767 406 q 681 76 767 165 q 408 -14 594 -14 m 408 146 q 538 187 499 146 q 576 329 576 228 q 538 472 576 431 q 408 513 499 513 q 281 472 319 513 q 242 329 242 431 q 281 187 242 228 q 408 146 319 146 z "},"ỡ":{"ha":964,"x_min":51,"x_max":946,"o":"m 536 738 q 457 751 496 738 q 383 779 418 765 q 313 793 347 793 q 188 742 235 793 l 188 875 q 240 906 207 894 q 308 918 272 918 q 388 904 351 918 q 458 876 424 890 q 532 863 493 863 q 647 915 610 863 l 647 782 q 604 751 633 764 q 536 738 575 738 m 408 -14 q 138 76 224 -14 q 51 329 51 165 q 138 583 51 493 q 408 672 225 672 q 565 650 499 672 q 674 588 631 628 q 781 624 751 589 q 811 744 811 660 l 946 744 q 897 547 946 610 q 747 468 849 483 q 767 329 767 406 q 681 76 767 165 q 408 -14 594 -14 m 408 146 q 538 187 499 146 q 576 329 576 228 q 538 472 576 431 q 408 513 499 513 q 281 472 319 513 q 242 329 242 431 q 281 187 242 228 q 408 146 319 146 z "},"ő":{"ha":818,"x_min":51,"x_max":767,"o":"m 165 724 l 275 968 l 442 968 l 314 724 l 165 724 m 482 724 l 592 968 l 758 968 l 631 724 l 482 724 m 408 -14 q 138 76 224 -14 q 51 329 51 165 q 138 583 51 493 q 408 672 225 672 q 680 583 593 672 q 767 329 767 493 q 681 76 767 165 q 408 -14 594 -14 m 408 146 q 538 187 499 146 q 576 329 576 228 q 538 472 576 431 q 408 513 499 513 q 281 472 319 513 q 242 329 242 431 q 281 187 242 228 q 408 146 319 146 z "},"ō":{"ha":818,"x_min":51,"x_max":767,"o":"m 188 772 l 188 888 l 615 888 l 615 772 l 188 772 m 408 -14 q 138 76 224 -14 q 51 329 51 165 q 138 583 51 493 q 408 672 225 672 q 680 583 593 672 q 767 329 767 493 q 681 76 767 165 q 408 -14 594 -14 m 408 146 q 538 187 499 146 q 576 329 576 228 q 538 472 576 431 q 408 513 499 513 q 281 472 319 513 q 242 329 242 431 q 281 187 242 228 q 408 146 319 146 z "},"ø":{"ha":818,"x_min":51,"x_max":767,"o":"m 197 -74 l 231 15 q 95 131 139 51 q 51 329 51 211 q 138 583 51 493 q 408 672 225 672 q 479 668 446 672 l 504 733 l 611 733 l 578 646 q 720 530 674 611 q 767 329 767 449 q 681 76 767 165 q 408 -14 594 -14 q 367 -12 386 -14 q 328 -8 347 -11 l 304 -74 l 197 -74 m 292 175 l 419 513 l 408 513 q 281 472 319 513 q 242 329 242 431 q 292 175 242 215 m 388 146 l 408 146 q 538 187 499 146 q 576 329 576 228 q 517 488 576 450 l 388 146 z "},"ǿ":{"ha":818,"x_min":51,"x_max":767,"o":"m 299 725 l 410 985 l 572 985 l 450 725 l 299 725 m 197 -74 l 231 15 q 95 131 139 51 q 51 329 51 211 q 138 583 51 493 q 408 672 225 672 q 479 668 446 672 l 504 733 l 611 733 l 578 646 q 720 530 674 611 q 767 329 767 449 q 681 76 767 165 q 408 -14 594 -14 q 367 -12 386 -14 q 328 -8 347 -11 l 304 -74 l 197 -74 m 292 175 l 419 513 l 408 513 q 281 472 319 513 q 242 329 242 431 q 292 175 242 215 m 388 146 l 408 146 q 538 187 499 146 q 576 329 576 228 q 517 488 576 450 l 388 146 z "},"õ":{"ha":818,"x_min":51,"x_max":767,"o":"m 528 756 q 449 769 488 756 q 374 797 410 783 q 304 811 339 811 q 179 760 226 811 l 179 893 q 231 924 199 913 q 300 936 264 936 q 379 922 343 936 q 450 894 415 908 q 524 881 485 881 q 639 933 601 881 l 639 800 q 596 769 625 782 q 528 756 567 756 m 408 -14 q 138 76 224 -14 q 51 329 51 165 q 138 583 51 493 q 408 672 225 672 q 680 583 593 672 q 767 329 767 493 q 681 76 767 165 q 408 -14 594 -14 m 408 146 q 538 187 499 146 q 576 329 576 228 q 538 472 576 431 q 408 513 499 513 q 281 472 319 513 q 242 329 242 431 q 281 187 242 228 q 408 146 319 146 z "},"œ":{"ha":1292,"x_min":51,"x_max":1240,"o":"m 408 -14 q 138 76 224 -14 q 51 329 51 165 q 138 583 51 493 q 408 672 225 672 q 567 650 500 672 q 678 583 633 628 q 781 649 719 626 q 925 672 843 672 q 1159 592 1078 672 q 1240 383 1240 513 l 1240 264 l 764 264 q 837 156 779 185 q 1000 126 894 126 q 1108 136 1053 126 q 1201 161 1163 146 l 1201 28 q 1094 -3 1156 7 q 961 -14 1033 -14 q 802 9 872 -14 q 683 78 732 32 q 408 -14 593 -14 m 931 538 q 801 501 838 538 q 764 385 764 464 l 764 379 l 1076 379 l 1076 415 q 1043 505 1076 472 q 931 538 1010 538 m 408 146 q 538 187 499 146 q 576 329 576 228 q 538 472 576 431 q 408 513 499 513 q 281 472 319 513 q 242 329 242 431 q 281 187 242 228 q 408 146 319 146 z "},"p":{"ha":819,"x_min":79,"x_max":768,"o":"m 79 -300 l 79 658 l 242 658 l 251 597 q 346 653 294 633 q 467 672 397 672 q 690 594 611 672 q 768 338 768 515 q 684 73 768 160 q 456 -14 600 -14 q 267 36 344 -14 l 267 -300 l 79 -300 m 408 124 q 535 175 492 124 q 578 336 578 226 q 539 488 578 442 q 414 535 500 535 q 267 475 328 535 l 267 174 q 328 138 296 151 q 408 124 361 124 z "},"þ":{"ha":819,"x_min":79,"x_max":768,"o":"m 79 -300 l 79 972 l 267 972 l 267 622 q 356 660 306 647 q 463 672 407 672 q 688 590 607 672 q 768 331 768 508 q 684 69 768 153 q 456 -14 600 -14 q 267 36 344 -14 l 267 -300 l 79 -300 m 408 124 q 535 174 492 124 q 578 333 578 224 q 539 487 578 439 q 414 535 500 535 q 267 475 328 535 l 267 174 q 328 138 296 151 q 408 124 361 124 z "},"q":{"ha":804,"x_min":51,"x_max":867,"o":"m 744 -336 q 601 -289 649 -336 q 553 -142 553 -242 l 553 36 q 364 -14 476 -14 q 136 66 221 -14 q 51 324 51 146 q 90 520 51 443 q 198 635 129 597 q 356 672 267 672 q 475 653 425 672 q 568 597 525 633 l 579 658 l 740 658 l 740 -124 q 756 -180 740 -164 q 810 -196 771 -196 q 839 -193 825 -196 q 867 -186 853 -190 l 867 -315 q 812 -331 839 -325 q 744 -336 785 -336 m 411 124 q 492 138 460 124 q 553 174 525 151 l 553 475 q 488 520 522 506 q 408 535 453 535 q 282 483 322 535 q 242 326 242 432 q 285 170 242 217 q 411 124 328 124 z "},"r":{"ha":518,"x_min":79,"x_max":501,"o":"m 79 0 l 79 658 l 253 658 l 261 590 q 372 641 306 618 q 501 672 438 664 l 501 531 q 419 514 464 525 q 335 489 375 503 q 267 460 294 475 l 267 0 l 79 0 z "},"ŕ":{"ha":531,"x_min":85,"x_max":507,"o":"m 153 725 l 264 985 l 426 985 l 304 725 l 153 725 m 85 0 l 85 658 l 258 658 l 267 590 q 377 641 311 618 q 507 672 443 664 l 507 531 q 425 514 469 525 q 340 489 381 503 q 272 460 300 475 l 272 0 l 85 0 z "},"ř":{"ha":525,"x_min":40,"x_max":535,"o":"m 228 725 l 40 967 l 188 967 l 288 828 l 390 967 l 535 967 l 347 725 l 228 725 m 79 0 l 79 658 l 253 658 l 261 590 q 372 641 306 618 q 501 672 438 664 l 501 531 q 419 514 464 525 q 335 489 375 503 q 267 460 294 475 l 267 0 l 79 0 z "},"ŗ":{"ha":525,"x_min":54,"x_max":501,"o":"m 79 0 l 79 658 l 253 658 l 261 590 q 372 641 306 618 q 501 672 438 664 l 501 531 q 419 514 464 525 q 335 489 375 503 q 267 460 294 475 l 267 0 l 79 0 m 54 -331 l 97 -51 l 244 -51 l 175 -331 l 54 -331 z "},"ṛ":{"ha":525,"x_min":79,"x_max":501,"o":"m 79 0 l 79 658 l 253 658 l 261 590 q 372 641 306 618 q 501 672 438 664 l 501 531 q 419 514 464 525 q 335 489 375 503 q 267 460 294 475 l 267 0 l 79 0 m 88 -251 l 88 -114 l 236 -114 l 236 -251 l 88 -251 z "},"ṝ":{"ha":536,"x_min":31,"x_max":513,"o":"m 31 765 l 31 881 l 458 881 l 458 765 l 31 765 m 90 0 l 90 658 l 264 658 l 272 590 q 383 641 317 618 q 513 672 449 664 l 513 531 q 431 514 475 525 q 346 489 386 503 q 278 460 306 475 l 278 0 l 90 0 m 108 -251 l 108 -114 l 257 -114 l 257 -251 l 108 -251 z "},"ṟ":{"ha":525,"x_min":-35,"x_max":501,"o":"m 79 0 l 79 658 l 253 658 l 261 590 q 372 641 306 618 q 501 672 438 664 l 501 531 q 419 514 464 525 q 335 489 375 503 q 267 460 294 475 l 267 0 l 79 0 m -35 -215 l -35 -100 l 393 -100 l 393 -215 l -35 -215 z "},"s":{"ha":654,"x_min":51,"x_max":603,"o":"m 311 -14 q 171 -3 238 -14 q 64 22 104 7 l 64 178 q 174 148 113 158 q 286 138 235 138 q 384 146 356 138 q 413 183 413 154 q 369 232 413 217 q 239 275 325 247 q 100 349 149 306 q 51 476 51 392 q 120 622 51 571 q 342 672 189 672 q 457 663 403 672 q 549 642 511 654 l 549 488 q 463 515 511 506 q 372 524 414 524 q 277 515 313 524 q 242 479 242 507 q 280 436 242 449 q 399 399 318 424 q 522 347 478 375 q 585 281 567 319 q 603 186 603 243 q 311 -14 603 -14 z "},"ś":{"ha":654,"x_min":51,"x_max":603,"o":"m 239 725 l 350 985 l 513 985 l 390 725 l 239 725 m 311 -14 q 171 -3 238 -14 q 64 22 104 7 l 64 178 q 174 148 113 158 q 286 138 235 138 q 384 146 356 138 q 413 183 413 154 q 369 232 413 217 q 239 275 325 247 q 100 349 149 306 q 51 476 51 392 q 120 622 51 571 q 342 672 189 672 q 457 663 403 672 q 549 642 511 654 l 549 488 q 463 515 511 506 q 372 524 414 524 q 277 515 313 524 q 242 479 242 507 q 280 436 242 449 q 399 399 318 424 q 522 347 478 375 q 585 281 567 319 q 603 186 603 243 q 311 -14 603 -14 z "},"š":{"ha":654,"x_min":51,"x_max":603,"o":"m 264 725 l 76 967 l 224 967 l 324 828 l 426 967 l 571 967 l 383 725 l 264 725 m 311 -14 q 171 -3 238 -14 q 64 22 104 7 l 64 178 q 174 148 113 158 q 286 138 235 138 q 384 146 356 138 q 413 183 413 154 q 369 232 413 217 q 239 275 325 247 q 100 349 149 306 q 51 476 51 392 q 120 622 51 571 q 342 672 189 672 q 457 663 403 672 q 549 642 511 654 l 549 488 q 463 515 511 506 q 372 524 414 524 q 277 515 313 524 q 242 479 242 507 q 280 436 242 449 q 399 399 318 424 q 522 347 478 375 q 585 281 567 319 q 603 186 603 243 q 311 -14 603 -14 z "},"ş":{"ha":654,"x_min":51,"x_max":603,"o":"m 300 -333 q 243 -330 276 -333 q 194 -322 210 -326 l 194 -228 q 279 -239 235 -239 q 365 -230 340 -239 q 390 -187 390 -221 q 361 -144 390 -151 q 283 -136 332 -136 l 222 -136 l 258 -12 q 149 0 200 -10 q 64 22 97 10 l 64 178 q 174 148 113 158 q 286 138 235 138 q 384 146 356 138 q 413 183 413 154 q 369 232 413 217 q 239 275 325 247 q 100 349 149 306 q 51 476 51 392 q 120 622 51 571 q 342 672 189 672 q 457 663 403 672 q 549 642 511 654 l 549 488 q 463 515 511 506 q 372 524 414 524 q 277 515 313 524 q 242 479 242 507 q 280 436 242 449 q 399 399 318 424 q 522 347 478 375 q 585 281 567 319 q 603 186 603 243 q 381 -11 603 13 l 364 -62 q 474 -97 438 -62 q 511 -189 511 -131 q 460 -295 511 -257 q 300 -333 410 -333 z "},"ŝ":{"ha":654,"x_min":51,"x_max":603,"o":"m 85 739 l 272 981 l 392 981 l 579 739 l 435 739 l 332 878 l 232 739 l 85 739 m 311 -14 q 171 -3 238 -14 q 64 22 104 7 l 64 178 q 174 148 113 158 q 286 138 235 138 q 384 146 356 138 q 413 183 413 154 q 369 232 413 217 q 239 275 325 247 q 100 349 149 306 q 51 476 51 392 q 120 622 51 571 q 342 672 189 672 q 457 663 403 672 q 549 642 511 654 l 549 488 q 463 515 511 506 q 372 524 414 524 q 277 515 313 524 q 242 479 242 507 q 280 436 242 449 q 399 399 318 424 q 522 347 478 375 q 585 281 567 319 q 603 186 603 243 q 311 -14 603 -14 z "},"ș":{"ha":654,"x_min":51,"x_max":603,"o":"m 311 -14 q 171 -3 238 -14 q 64 22 104 7 l 64 178 q 174 148 113 158 q 286 138 235 138 q 384 146 356 138 q 413 183 413 154 q 369 232 413 217 q 239 275 325 247 q 100 349 149 306 q 51 476 51 392 q 120 622 51 571 q 342 672 189 672 q 457 663 403 672 q 549 642 511 654 l 549 488 q 463 515 511 506 q 372 524 414 524 q 277 515 313 524 q 242 479 242 507 q 280 436 242 449 q 399 399 318 424 q 522 347 478 375 q 585 281 567 319 q 603 186 603 243 q 311 -14 603 -14 m 217 -314 l 257 -65 l 419 -65 l 360 -314 l 217 -314 z "},"ṡ":{"ha":654,"x_min":51,"x_max":603,"o":"m 249 760 l 249 896 l 394 896 l 394 760 l 249 760 m 311 -14 q 171 -3 238 -14 q 64 22 104 7 l 64 178 q 174 148 113 158 q 286 138 235 138 q 384 146 356 138 q 413 183 413 154 q 369 232 413 217 q 239 275 325 247 q 100 349 149 306 q 51 476 51 392 q 120 622 51 571 q 342 672 189 672 q 457 663 403 672 q 549 642 511 654 l 549 488 q 463 515 511 506 q 372 524 414 524 q 277 515 313 524 q 242 479 242 507 q 280 436 242 449 q 399 399 318 424 q 522 347 478 375 q 585 281 567 319 q 603 186 603 243 q 311 -14 603 -14 z "},"ṣ":{"ha":654,"x_min":51,"x_max":603,"o":"m 311 -14 q 171 -3 238 -14 q 64 22 104 7 l 64 178 q 174 148 113 158 q 286 138 235 138 q 384 146 356 138 q 413 183 413 154 q 369 232 413 217 q 239 275 325 247 q 100 349 149 306 q 51 476 51 392 q 120 622 51 571 q 342 672 189 672 q 457 663 403 672 q 549 642 511 654 l 549 488 q 463 515 511 506 q 372 524 414 524 q 277 515 313 524 q 242 479 242 507 q 280 436 242 449 q 399 399 318 424 q 522 347 478 375 q 585 281 567 319 q 603 186 603 243 q 311 -14 603 -14 m 269 -251 l 269 -114 l 418 -114 l 418 -251 l 269 -251 z "},"ß":{"ha":881,"x_min":72,"x_max":829,"o":"m 539 -14 q 339 18 426 -14 l 339 176 q 501 146 408 146 q 601 178 563 146 q 639 269 639 210 q 601 372 639 340 q 486 403 564 403 l 385 403 l 385 547 l 482 547 q 588 582 556 547 q 621 682 621 617 q 581 776 621 739 q 438 813 540 813 q 301 767 353 813 q 250 619 250 721 l 250 0 l 72 0 l 72 622 q 117 801 72 722 q 245 926 163 881 q 438 972 328 972 q 637 931 557 972 q 756 824 717 890 q 796 682 796 758 q 767 554 796 608 q 690 475 738 500 q 792 396 754 453 q 829 260 829 339 q 754 58 829 131 q 539 -14 679 -14 z "},"t":{"ha":504,"x_min":24,"x_max":488,"o":"m 340 -14 q 172 46 226 -14 q 117 208 117 106 l 117 514 l 24 514 l 24 658 l 117 658 l 117 800 l 304 856 l 304 658 l 471 658 l 460 514 l 304 514 l 304 221 q 329 147 304 167 q 407 126 354 126 q 488 140 446 126 l 488 11 q 421 -8 457 -1 q 340 -14 385 -14 z "},"ŧ":{"ha":511,"x_min":24,"x_max":488,"o":"m 24 271 l 24 397 l 117 397 l 117 514 l 24 514 l 24 658 l 117 658 l 117 800 l 304 856 l 304 658 l 471 658 l 460 514 l 304 514 l 304 397 l 472 397 l 472 271 l 304 271 l 304 221 q 329 147 304 167 q 407 126 354 126 q 488 140 446 126 l 488 11 q 421 -8 457 -1 q 340 -14 385 -14 q 172 46 226 -14 q 117 208 117 106 l 117 271 l 24 271 z "},"ť":{"ha":496,"x_min":24,"x_max":640,"o":"m 450 776 l 493 1056 l 640 1056 l 571 776 l 450 776 m 340 -14 q 172 46 226 -14 q 117 208 117 106 l 117 514 l 24 514 l 24 658 l 117 658 l 117 800 l 304 856 l 304 658 l 471 658 l 460 514 l 304 514 l 304 221 q 329 147 304 167 q 407 126 354 126 q 488 140 446 126 l 488 11 q 421 -8 457 -1 q 340 -14 385 -14 z "},"ţ":{"ha":515,"x_min":24,"x_max":519,"o":"m 308 -333 q 251 -330 285 -333 q 203 -322 218 -326 l 203 -228 q 288 -239 243 -239 q 374 -230 349 -239 q 399 -187 399 -221 q 369 -144 399 -151 q 292 -136 340 -136 l 231 -136 l 269 -7 q 154 67 192 11 q 117 208 117 122 l 117 514 l 24 514 l 24 658 l 117 658 l 117 800 l 304 856 l 304 658 l 471 658 l 460 514 l 304 514 l 304 221 q 329 147 304 167 q 407 126 354 126 q 488 140 446 126 l 488 11 q 389 -11 443 -7 l 372 -62 q 483 -97 446 -62 q 519 -189 519 -131 q 469 -295 519 -257 q 308 -333 418 -333 z "},"ț":{"ha":511,"x_min":24,"x_max":488,"o":"m 340 -14 q 172 46 226 -14 q 117 208 117 106 l 117 514 l 24 514 l 24 658 l 117 658 l 117 800 l 304 856 l 304 658 l 471 658 l 460 514 l 304 514 l 304 221 q 329 147 304 167 q 407 126 354 126 q 488 140 446 126 l 488 11 q 421 -8 457 -1 q 340 -14 385 -14 m 204 -344 l 247 -65 l 394 -65 l 325 -344 l 204 -344 z "},"ẗ":{"ha":525,"x_min":36,"x_max":500,"o":"m 38 892 l 38 1028 l 185 1028 l 185 892 l 38 892 m 310 892 l 310 1028 l 457 1028 l 457 892 l 310 892 m 353 -14 q 184 46 239 -14 q 129 208 129 106 l 129 514 l 36 514 l 36 658 l 129 658 l 129 800 l 317 856 l 317 658 l 483 658 l 472 514 l 317 514 l 317 221 q 342 147 317 167 q 419 126 367 126 q 500 140 458 126 l 500 11 q 433 -8 469 -1 q 353 -14 397 -14 z "},"ṭ":{"ha":511,"x_min":24,"x_max":488,"o":"m 340 -14 q 172 46 226 -14 q 117 208 117 106 l 117 514 l 24 514 l 24 658 l 117 658 l 117 800 l 304 856 l 304 658 l 471 658 l 460 514 l 304 514 l 304 221 q 329 147 304 167 q 407 126 354 126 q 488 140 446 126 l 488 11 q 421 -8 457 -1 q 340 -14 385 -14 m 243 -237 l 243 -100 l 392 -100 l 392 -237 l 243 -237 z "},"ṯ":{"ha":522,"x_min":24,"x_max":499,"o":"m 340 -14 q 172 46 226 -14 q 117 208 117 106 l 117 514 l 24 514 l 24 658 l 117 658 l 117 800 l 304 856 l 304 658 l 471 658 l 460 514 l 304 514 l 304 221 q 329 147 304 167 q 407 126 354 126 q 488 140 446 126 l 488 11 q 421 -8 457 -1 q 340 -14 385 -14 m 71 -201 l 71 -86 l 499 -86 l 499 -201 l 71 -201 z "},"u":{"ha":815,"x_min":72,"x_max":735,"o":"m 322 -14 q 138 52 204 -14 q 72 246 72 118 l 72 658 l 260 658 l 260 250 q 292 153 260 183 q 388 124 324 124 q 477 143 436 124 q 547 192 518 163 l 547 658 l 735 658 l 735 0 l 561 0 l 554 63 q 456 8 513 29 q 322 -14 400 -14 z "},"ú":{"ha":815,"x_min":72,"x_max":735,"o":"m 306 725 l 417 985 l 579 985 l 457 725 l 306 725 m 322 -14 q 138 52 204 -14 q 72 246 72 118 l 72 658 l 260 658 l 260 250 q 292 153 260 183 q 388 124 324 124 q 477 143 436 124 q 547 192 518 163 l 547 658 l 735 658 l 735 0 l 561 0 l 554 63 q 456 8 513 29 q 322 -14 400 -14 z "},"ŭ":{"ha":815,"x_min":72,"x_max":735,"o":"m 414 725 q 256 783 317 725 q 196 943 196 842 l 321 943 q 344 867 321 900 q 414 833 367 833 q 486 867 463 833 q 510 943 510 900 l 635 943 q 574 783 635 842 q 414 725 513 725 m 322 -14 q 138 52 204 -14 q 72 246 72 118 l 72 658 l 260 658 l 260 250 q 292 153 260 183 q 388 124 324 124 q 477 143 436 124 q 547 192 518 163 l 547 658 l 735 658 l 735 0 l 561 0 l 554 63 q 456 8 513 29 q 322 -14 400 -14 z "},"ǔ":{"ha":815,"x_min":72,"x_max":735,"o":"m 344 725 l 157 967 l 304 967 l 404 828 l 507 967 l 651 967 l 464 725 l 344 725 m 322 -14 q 138 52 204 -14 q 72 246 72 118 l 72 658 l 260 658 l 260 250 q 292 153 260 183 q 388 124 324 124 q 477 143 436 124 q 547 192 518 163 l 547 658 l 735 658 l 735 0 l 561 0 l 554 63 q 456 8 513 29 q 322 -14 400 -14 z "},"û":{"ha":815,"x_min":72,"x_max":735,"o":"m 156 725 l 343 967 l 463 967 l 650 725 l 506 725 l 403 864 l 303 725 l 156 725 m 322 -14 q 138 52 204 -14 q 72 246 72 118 l 72 658 l 260 658 l 260 250 q 292 153 260 183 q 388 124 324 124 q 477 143 436 124 q 547 192 518 163 l 547 658 l 735 658 l 735 0 l 561 0 l 554 63 q 456 8 513 29 q 322 -14 400 -14 z "},"ü":{"ha":815,"x_min":72,"x_max":735,"o":"m 193 760 l 193 896 l 340 896 l 340 760 l 193 760 m 465 760 l 465 896 l 613 896 l 613 760 l 465 760 m 322 -14 q 138 52 204 -14 q 72 246 72 118 l 72 658 l 260 658 l 260 250 q 292 153 260 183 q 388 124 324 124 q 477 143 436 124 q 547 192 518 163 l 547 658 l 735 658 l 735 0 l 561 0 l 554 63 q 456 8 513 29 q 322 -14 400 -14 z "},"ǘ":{"ha":815,"x_min":72,"x_max":735,"o":"m 324 882 l 406 1061 l 547 1061 l 456 882 l 324 882 m 183 725 l 183 854 l 324 854 l 324 725 l 183 725 m 463 725 l 463 854 l 603 854 l 603 725 l 463 725 m 322 -14 q 138 52 204 -14 q 72 246 72 118 l 72 658 l 260 658 l 260 250 q 292 153 260 183 q 388 124 324 124 q 477 143 436 124 q 547 192 518 163 l 547 658 l 735 658 l 735 0 l 561 0 l 554 63 q 456 8 513 29 q 322 -14 400 -14 z "},"ǚ":{"ha":815,"x_min":72,"x_max":735,"o":"m 344 876 l 188 1044 l 326 1044 l 410 943 l 494 1044 l 631 1044 l 474 876 l 344 876 m 199 724 l 199 853 l 339 853 l 339 724 l 199 724 m 478 724 l 478 853 l 618 853 l 618 724 l 478 724 m 322 -14 q 138 52 204 -14 q 72 246 72 118 l 72 658 l 260 658 l 260 250 q 292 153 260 183 q 388 124 324 124 q 477 143 436 124 q 547 192 518 163 l 547 658 l 735 658 l 735 0 l 561 0 l 554 63 q 456 8 513 29 q 322 -14 400 -14 z "},"ǜ":{"ha":815,"x_min":72,"x_max":735,"o":"m 351 882 l 260 1061 l 401 1061 l 483 882 l 351 882 m 204 725 l 204 854 l 344 854 l 344 725 l 204 725 m 483 725 l 483 854 l 624 854 l 624 725 l 483 725 m 322 -14 q 138 52 204 -14 q 72 246 72 118 l 72 658 l 260 658 l 260 250 q 292 153 260 183 q 388 124 324 124 q 477 143 436 124 q 547 192 518 163 l 547 658 l 735 658 l 735 0 l 561 0 l 554 63 q 456 8 513 29 q 322 -14 400 -14 z "},"ǖ":{"ha":815,"x_min":72,"x_max":735,"o":"m 197 981 l 197 1096 l 625 1096 l 625 981 l 197 981 m 200 746 l 200 882 l 347 882 l 347 746 l 200 746 m 472 746 l 472 882 l 619 882 l 619 746 l 472 746 m 322 -14 q 138 52 204 -14 q 72 246 72 118 l 72 658 l 260 658 l 260 250 q 292 153 260 183 q 388 124 324 124 q 477 143 436 124 q 547 192 518 163 l 547 658 l 735 658 l 735 0 l 561 0 l 554 63 q 456 8 513 29 q 322 -14 400 -14 z "},"ụ":{"ha":815,"x_min":72,"x_max":735,"o":"m 322 -14 q 138 52 204 -14 q 72 246 72 118 l 72 658 l 260 658 l 260 250 q 292 153 260 183 q 388 124 324 124 q 477 143 436 124 q 547 192 518 163 l 547 658 l 735 658 l 735 0 l 561 0 l 554 63 q 456 8 513 29 q 322 -14 400 -14 m 324 -251 l 324 -114 l 472 -114 l 472 -251 l 324 -251 z "},"ù":{"ha":815,"x_min":72,"x_max":735,"o":"m 347 725 l 225 985 l 388 985 l 499 725 l 347 725 m 322 -14 q 138 52 204 -14 q 72 246 72 118 l 72 658 l 260 658 l 260 250 q 292 153 260 183 q 388 124 324 124 q 477 143 436 124 q 547 192 518 163 l 547 658 l 735 658 l 735 0 l 561 0 l 554 63 q 456 8 513 29 q 322 -14 400 -14 z "},"ủ":{"ha":815,"x_min":72,"x_max":735,"o":"m 332 724 l 332 836 q 433 856 408 840 q 457 903 457 872 q 431 944 457 931 q 361 957 406 957 q 317 953 342 957 q 275 942 292 949 l 275 1035 q 414 1053 329 1053 q 549 1017 503 1053 q 596 919 596 981 q 569 831 596 861 q 475 788 542 800 l 475 724 l 332 724 m 322 -14 q 138 52 204 -14 q 72 246 72 118 l 72 658 l 260 658 l 260 250 q 292 153 260 183 q 388 124 324 124 q 477 143 436 124 q 547 192 518 163 l 547 658 l 735 658 l 735 0 l 561 0 l 554 63 q 456 8 513 29 q 322 -14 400 -14 z "},"ư":{"ha":1001,"x_min":72,"x_max":983,"o":"m 322 -14 q 138 52 204 -14 q 72 246 72 118 l 72 658 l 260 658 l 260 250 q 292 153 260 183 q 388 124 324 124 q 477 143 436 124 q 547 192 518 163 l 547 658 l 735 658 l 735 589 q 824 631 800 594 q 849 744 849 667 l 983 744 q 924 533 983 594 q 735 464 865 471 l 735 0 l 561 0 l 554 63 q 456 8 513 29 q 322 -14 400 -14 z "},"ứ":{"ha":1001,"x_min":72,"x_max":983,"o":"m 332 725 l 443 985 l 606 985 l 483 725 l 332 725 m 322 -14 q 138 52 204 -14 q 72 246 72 118 l 72 658 l 260 658 l 260 250 q 292 153 260 183 q 388 124 324 124 q 477 143 436 124 q 547 192 518 163 l 547 658 l 735 658 l 735 589 q 824 631 800 594 q 849 744 849 667 l 983 744 q 924 533 983 594 q 735 464 865 471 l 735 0 l 561 0 l 554 63 q 456 8 513 29 q 322 -14 400 -14 z "},"ự":{"ha":1001,"x_min":72,"x_max":983,"o":"m 322 -14 q 138 52 204 -14 q 72 246 72 118 l 72 658 l 260 658 l 260 250 q 292 153 260 183 q 388 124 324 124 q 477 143 436 124 q 547 192 518 163 l 547 658 l 735 658 l 735 589 q 824 631 800 594 q 849 744 849 667 l 983 744 q 924 533 983 594 q 735 464 865 471 l 735 0 l 561 0 l 554 63 q 456 8 513 29 q 322 -14 400 -14 m 329 -251 l 329 -114 l 478 -114 l 478 -251 l 329 -251 z "},"ừ":{"ha":1001,"x_min":72,"x_max":983,"o":"m 343 725 l 221 985 l 383 985 l 494 725 l 343 725 m 322 -14 q 138 52 204 -14 q 72 246 72 118 l 72 658 l 260 658 l 260 250 q 292 153 260 183 q 388 124 324 124 q 477 143 436 124 q 547 192 518 163 l 547 658 l 735 658 l 735 589 q 824 631 800 594 q 849 744 849 667 l 983 744 q 924 533 983 594 q 735 464 865 471 l 735 0 l 561 0 l 554 63 q 456 8 513 29 q 322 -14 400 -14 z "},"ử":{"ha":1001,"x_min":72,"x_max":983,"o":"m 339 724 l 339 836 q 440 856 415 840 q 464 903 464 872 q 438 944 464 931 q 368 957 413 957 q 324 953 349 957 q 282 942 299 949 l 282 1035 q 421 1053 336 1053 q 556 1017 510 1053 q 603 919 603 981 q 576 831 603 861 q 482 788 549 800 l 482 724 l 339 724 m 322 -14 q 138 52 204 -14 q 72 246 72 118 l 72 658 l 260 658 l 260 250 q 292 153 260 183 q 388 124 324 124 q 477 143 436 124 q 547 192 518 163 l 547 658 l 735 658 l 735 589 q 824 631 800 594 q 849 744 849 667 l 983 744 q 924 533 983 594 q 735 464 865 471 l 735 0 l 561 0 l 554 63 q 456 8 513 29 q 322 -14 400 -14 z "},"ữ":{"ha":1001,"x_min":72,"x_max":983,"o":"m 532 738 q 453 751 492 738 q 378 779 414 765 q 308 793 343 793 q 183 742 231 793 l 183 875 q 235 906 203 894 q 304 918 268 918 q 383 904 347 918 q 454 876 419 890 q 528 863 489 863 q 643 915 606 863 l 643 782 q 600 751 629 764 q 532 738 571 738 m 322 -14 q 138 52 204 -14 q 72 246 72 118 l 72 658 l 260 658 l 260 250 q 292 153 260 183 q 388 124 324 124 q 477 143 436 124 q 547 192 518 163 l 547 658 l 735 658 l 735 589 q 824 631 800 594 q 849 744 849 667 l 983 744 q 924 533 983 594 q 735 464 865 471 l 735 0 l 561 0 l 554 63 q 456 8 513 29 q 322 -14 400 -14 z "},"ű":{"ha":815,"x_min":72,"x_max":735,"o":"m 136 724 l 246 968 l 413 968 l 285 724 l 136 724 m 453 724 l 563 968 l 729 968 l 601 724 l 453 724 m 322 -14 q 138 52 204 -14 q 72 246 72 118 l 72 658 l 260 658 l 260 250 q 292 153 260 183 q 388 124 324 124 q 477 143 436 124 q 547 192 518 163 l 547 658 l 735 658 l 735 0 l 561 0 l 554 63 q 456 8 513 29 q 322 -14 400 -14 z "},"ū":{"ha":815,"x_min":72,"x_max":735,"o":"m 197 772 l 197 888 l 625 888 l 625 772 l 197 772 m 322 -14 q 138 52 204 -14 q 72 246 72 118 l 72 658 l 260 658 l 260 250 q 292 153 260 183 q 388 124 324 124 q 477 143 436 124 q 547 192 518 163 l 547 658 l 735 658 l 735 0 l 561 0 l 554 63 q 456 8 513 29 q 322 -14 400 -14 z "},"ų":{"ha":822,"x_min":72,"x_max":738,"o":"m 322 -14 q 138 52 204 -14 q 72 246 72 118 l 72 658 l 260 658 l 260 250 q 292 153 260 183 q 388 124 324 124 q 477 143 436 124 q 547 192 518 163 l 547 658 l 735 658 l 735 0 l 700 0 q 633 -67 658 -31 q 607 -144 607 -104 q 624 -185 607 -174 q 669 -196 642 -196 q 706 -192 688 -196 q 738 -181 725 -187 l 738 -286 q 687 -300 719 -294 q 619 -306 654 -306 q 508 -274 556 -306 q 460 -179 460 -243 q 486 -80 460 -126 q 561 0 513 -33 l 554 63 q 456 8 513 29 q 322 -14 400 -14 z "},"ů":{"ha":815,"x_min":72,"x_max":735,"o":"m 406 725 q 280 773 326 725 q 233 890 233 821 q 280 1008 233 960 q 406 1057 326 1057 q 533 1008 488 1057 q 579 890 579 960 q 533 773 579 821 q 406 725 488 725 m 406 811 q 466 834 444 811 q 488 890 488 857 q 466 947 488 924 q 406 969 444 969 q 347 947 369 969 q 325 890 325 924 q 347 834 325 857 q 406 811 369 811 m 322 -14 q 138 52 204 -14 q 72 246 72 118 l 72 658 l 260 658 l 260 250 q 292 153 260 183 q 388 124 324 124 q 477 143 436 124 q 547 192 518 163 l 547 658 l 735 658 l 735 0 l 561 0 l 554 63 q 456 8 513 29 q 322 -14 400 -14 z "},"ũ":{"ha":815,"x_min":72,"x_max":735,"o":"m 528 742 q 449 756 488 742 q 374 783 410 769 q 304 797 339 797 q 179 746 226 797 l 179 879 q 231 910 199 899 q 300 922 264 922 q 379 908 343 922 q 450 881 415 894 q 524 867 485 867 q 639 919 601 867 l 639 786 q 596 755 625 768 q 528 742 567 742 m 322 -14 q 138 52 204 -14 q 72 246 72 118 l 72 658 l 260 658 l 260 250 q 292 153 260 183 q 388 124 324 124 q 477 143 436 124 q 547 192 518 163 l 547 658 l 735 658 l 735 0 l 561 0 l 554 63 q 456 8 513 29 q 322 -14 400 -14 z "},"v":{"ha":824,"x_min":51,"x_max":771,"o":"m 311 0 l 51 658 l 247 658 l 411 189 l 576 658 l 771 658 l 513 0 l 311 0 z "},"w":{"ha":1051,"x_min":51,"x_max":1000,"o":"m 225 0 l 51 658 l 239 658 l 339 231 l 449 574 l 449 658 l 592 658 l 717 231 l 814 658 l 1000 658 l 828 0 l 656 0 l 529 385 l 400 0 l 225 0 z "},"ẃ":{"ha":1051,"x_min":51,"x_max":1000,"o":"m 444 725 l 556 985 l 718 985 l 596 725 l 444 725 m 225 0 l 51 658 l 239 658 l 339 231 l 449 574 l 449 658 l 592 658 l 717 231 l 814 658 l 1000 658 l 828 0 l 656 0 l 529 385 l 400 0 l 225 0 z "},"ŵ":{"ha":1051,"x_min":51,"x_max":1000,"o":"m 282 725 l 469 967 l 589 967 l 776 725 l 632 725 l 529 864 l 429 725 l 282 725 m 225 0 l 51 658 l 239 658 l 339 231 l 449 574 l 449 658 l 592 658 l 717 231 l 814 658 l 1000 658 l 828 0 l 656 0 l 529 385 l 400 0 l 225 0 z "},"ẅ":{"ha":1051,"x_min":51,"x_max":1000,"o":"m 319 760 l 319 896 l 467 896 l 467 760 l 319 760 m 592 760 l 592 896 l 739 896 l 739 760 l 592 760 m 225 0 l 51 658 l 239 658 l 339 231 l 449 574 l 449 658 l 592 658 l 717 231 l 814 658 l 1000 658 l 828 0 l 656 0 l 529 385 l 400 0 l 225 0 z "},"ẁ":{"ha":1051,"x_min":51,"x_max":1000,"o":"m 443 725 l 321 985 l 483 985 l 594 725 l 443 725 m 225 0 l 51 658 l 239 658 l 339 231 l 449 574 l 449 658 l 592 658 l 717 231 l 814 658 l 1000 658 l 828 0 l 656 0 l 529 385 l 400 0 l 225 0 z "},"x":{"ha":785,"x_min":36,"x_max":744,"o":"m 36 0 l 289 335 l 46 658 l 249 658 l 390 467 l 532 658 l 735 658 l 493 335 l 744 0 l 540 0 l 390 201 l 240 0 l 36 0 z "},"y":{"ha":851,"x_min":51,"x_max":826,"o":"m 251 -244 q 175 -240 208 -244 q 110 -222 142 -235 l 110 -90 q 153 -101 133 -99 q 194 -104 174 -104 q 283 -78 251 -104 q 346 11 314 -51 l 51 658 l 247 658 l 440 211 l 632 658 l 826 658 l 567 46 q 488 -106 531 -40 q 389 -208 446 -172 q 251 -244 332 -244 z "},"ý":{"ha":851,"x_min":51,"x_max":826,"o":"m 353 725 l 464 985 l 626 985 l 504 725 l 353 725 m 251 -244 q 175 -240 208 -244 q 110 -222 142 -235 l 110 -90 q 153 -101 133 -99 q 194 -104 174 -104 q 283 -78 251 -104 q 346 11 314 -51 l 51 658 l 247 658 l 440 211 l 632 658 l 826 658 l 567 46 q 488 -106 531 -40 q 389 -208 446 -172 q 251 -244 332 -244 z "},"ŷ":{"ha":851,"x_min":51,"x_max":826,"o":"m 194 725 l 382 967 l 501 967 l 689 725 l 544 725 l 442 864 l 342 725 l 194 725 m 251 -244 q 175 -240 208 -244 q 110 -222 142 -235 l 110 -90 q 153 -101 133 -99 q 194 -104 174 -104 q 283 -78 251 -104 q 346 11 314 -51 l 51 658 l 247 658 l 440 211 l 632 658 l 826 658 l 567 46 q 488 -106 531 -40 q 389 -208 446 -172 q 251 -244 332 -244 z "},"ÿ":{"ha":851,"x_min":51,"x_max":826,"o":"m 233 779 l 233 915 l 381 915 l 381 779 l 233 779 m 506 779 l 506 915 l 653 915 l 653 779 l 506 779 m 251 -244 q 175 -240 208 -244 q 110 -222 142 -235 l 110 -90 q 153 -101 133 -99 q 194 -104 174 -104 q 283 -78 251 -104 q 346 11 314 -51 l 51 658 l 247 658 l 440 211 l 632 658 l 826 658 l 567 46 q 488 -106 531 -40 q 389 -208 446 -172 q 251 -244 332 -244 z "},"ẏ":{"ha":851,"x_min":51,"x_max":826,"o":"m 367 760 l 367 896 l 513 896 l 513 760 l 367 760 m 251 -244 q 175 -240 208 -244 q 110 -222 142 -235 l 110 -90 q 153 -101 133 -99 q 194 -104 174 -104 q 283 -78 251 -104 q 346 11 314 -51 l 51 658 l 247 658 l 440 211 l 632 658 l 826 658 l 567 46 q 488 -106 531 -40 q 389 -208 446 -172 q 251 -244 332 -244 z "},"ỵ":{"ha":851,"x_min":51,"x_max":826,"o":"m 251 -244 q 175 -240 208 -244 q 110 -222 142 -235 l 110 -90 q 153 -101 133 -99 q 194 -104 174 -104 q 283 -78 251 -104 q 346 11 314 -51 l 51 658 l 247 658 l 440 211 l 632 658 l 826 658 l 567 46 q 488 -106 531 -40 q 389 -208 446 -172 q 251 -244 332 -244 m 583 -237 l 583 -100 l 732 -100 l 732 -237 l 583 -237 z "},"ỳ":{"ha":851,"x_min":51,"x_max":826,"o":"m 368 725 l 246 985 l 408 985 l 519 725 l 368 725 m 251 -244 q 175 -240 208 -244 q 110 -222 142 -235 l 110 -90 q 153 -101 133 -99 q 194 -104 174 -104 q 283 -78 251 -104 q 346 11 314 -51 l 51 658 l 247 658 l 440 211 l 632 658 l 826 658 l 567 46 q 488 -106 531 -40 q 389 -208 446 -172 q 251 -244 332 -244 z "},"ỷ":{"ha":851,"x_min":51,"x_max":826,"o":"m 371 724 l 371 836 q 472 856 447 840 q 496 903 496 872 q 470 944 496 931 q 400 957 444 957 q 356 953 381 957 q 314 942 331 949 l 314 1035 q 453 1053 368 1053 q 588 1017 542 1053 q 635 919 635 981 q 608 831 635 861 q 514 788 581 800 l 514 724 l 371 724 m 251 -244 q 175 -240 208 -244 q 110 -222 142 -235 l 110 -90 q 153 -101 133 -99 q 194 -104 174 -104 q 283 -78 251 -104 q 346 11 314 -51 l 51 658 l 247 658 l 440 211 l 632 658 l 826 658 l 567 46 q 488 -106 531 -40 q 389 -208 446 -172 q 251 -244 332 -244 z "},"ỹ":{"ha":851,"x_min":51,"x_max":826,"o":"m 557 742 q 478 756 517 742 q 403 783 439 769 q 333 797 368 797 q 208 746 256 797 l 208 879 q 260 910 228 899 q 329 922 293 922 q 408 908 372 922 q 479 881 444 894 q 553 867 514 867 q 668 919 631 867 l 668 786 q 625 755 654 768 q 557 742 596 742 m 251 -244 q 175 -240 208 -244 q 110 -222 142 -235 l 110 -90 q 153 -101 133 -99 q 194 -104 174 -104 q 283 -78 251 -104 q 346 11 314 -51 l 51 658 l 247 658 l 440 211 l 632 658 l 826 658 l 567 46 q 488 -106 531 -40 q 389 -208 446 -172 q 251 -244 332 -244 z "},"z":{"ha":679,"x_min":51,"x_max":628,"o":"m 51 0 l 51 97 l 383 503 l 65 503 l 65 658 l 618 658 l 618 544 l 293 144 l 628 144 l 628 0 l 51 0 z "},"ź":{"ha":679,"x_min":51,"x_max":628,"o":"m 268 725 l 379 985 l 542 985 l 419 725 l 268 725 m 51 0 l 51 97 l 383 503 l 65 503 l 65 658 l 618 658 l 618 544 l 293 144 l 628 144 l 628 0 l 51 0 z "},"ž":{"ha":679,"x_min":51,"x_max":628,"o":"m 282 725 l 94 967 l 242 967 l 342 828 l 444 967 l 589 967 l 401 725 l 282 725 m 51 0 l 51 97 l 383 503 l 65 503 l 65 658 l 618 658 l 618 544 l 293 144 l 628 144 l 628 0 l 51 0 z "},"ż":{"ha":679,"x_min":51,"x_max":628,"o":"m 275 760 l 275 896 l 421 896 l 421 760 l 275 760 m 51 0 l 51 97 l 383 503 l 65 503 l 65 658 l 618 658 l 618 544 l 293 144 l 628 144 l 628 0 l 51 0 z "},"ẓ":{"ha":679,"x_min":51,"x_max":628,"o":"m 51 0 l 51 97 l 383 503 l 65 503 l 65 658 l 618 658 l 618 544 l 293 144 l 628 144 l 628 0 l 51 0 m 267 -251 l 267 -114 l 415 -114 l 415 -251 l 267 -251 z "},"ﬁ":{"ha":760,"x_min":24,"x_max":681,"o":"m 115 0 l 115 514 l 24 514 l 24 658 l 115 658 l 115 724 q 149 847 115 793 q 245 933 182 901 q 394 965 308 965 q 571 938 504 965 l 571 799 q 517 813 553 808 q 453 818 481 818 q 338 794 372 818 q 303 718 303 771 l 303 658 l 681 658 l 681 0 l 493 0 l 493 514 l 303 514 l 303 0 l 115 0 z "},"ﬂ":{"ha":760,"x_min":24,"x_max":681,"o":"m 115 0 l 115 514 l 24 514 l 24 658 l 115 658 l 115 724 q 174 884 115 819 q 340 958 233 949 q 511 938 421 965 l 681 938 l 681 0 l 493 0 l 493 514 l 303 514 l 303 0 l 115 0 m 303 658 l 493 658 l 493 807 q 451 815 476 813 q 407 818 425 818 q 303 717 303 818 l 303 658 z "},"ª":{"ha":472,"x_min":51,"x_max":419,"o":"m 182 528 q 90 554 129 528 q 51 640 51 581 q 201 763 51 763 l 310 763 l 310 769 q 291 812 310 800 q 218 824 272 824 q 99 804 157 824 l 99 885 q 164 902 125 896 q 242 908 203 908 q 372 874 324 908 q 419 767 419 840 l 419 536 l 321 536 l 314 568 q 258 538 289 547 q 182 528 228 528 m 218 603 q 269 613 246 603 q 310 646 293 624 l 310 692 l 225 692 q 173 683 190 692 q 156 646 156 674 q 172 612 156 621 q 218 603 189 603 z "},"º":{"ha":501,"x_min":51,"x_max":450,"o":"m 250 528 q 51 718 51 528 q 250 908 51 908 q 450 718 450 908 q 250 528 450 528 m 250 611 q 317 638 297 611 q 336 718 336 664 q 317 798 336 772 q 250 824 297 824 q 184 798 204 824 q 164 718 164 772 q 183 638 164 664 q 250 611 203 611 z "},"ⁿ":{"ha":492,"x_min":58,"x_max":440,"o":"m 58 536 l 58 900 l 163 900 l 165 867 q 308 907 225 907 q 404 874 368 907 q 440 775 440 840 l 440 536 l 329 536 l 329 756 q 315 807 329 792 q 264 822 300 822 q 214 812 242 822 q 169 786 186 801 l 169 536 l 58 536 z "},"Δ":{"ha":894,"x_min":51,"x_max":843,"o":"m 51 0 l 51 101 l 364 894 l 528 894 l 843 100 l 843 0 l 51 0 m 231 144 l 660 144 l 446 688 l 231 144 z "},"Ω":{"ha":1054,"x_min":51,"x_max":1001,"o":"m 61 0 l 61 139 l 239 139 q 101 290 150 197 q 51 508 51 383 q 108 747 51 644 q 270 908 164 850 q 526 965 376 965 q 783 908 678 965 q 945 747 889 850 q 1001 508 1001 644 q 814 139 1001 256 l 992 139 l 992 0 l 594 0 l 594 143 q 759 294 707 206 q 811 497 811 383 q 776 658 811 589 q 678 767 742 728 q 526 806 615 806 q 375 767 439 806 q 276 658 311 728 q 242 497 242 589 q 294 294 242 383 q 458 143 347 206 l 458 0 l 61 0 z "},"μ":{"ha":822,"x_min":79,"x_max":742,"o":"m 79 -199 l 79 658 l 267 658 l 267 250 q 299 153 267 183 q 394 124 331 124 q 484 143 443 124 q 554 192 525 163 l 554 658 l 742 658 l 742 0 l 568 0 l 561 63 q 463 8 519 29 q 329 -14 407 -14 q 295 -10 313 -14 q 267 -3 278 -7 l 267 -199 l 79 -199 z "},"π":{"ha":939,"x_min":38,"x_max":908,"o":"m 761 -14 q 592 46 647 -14 q 538 208 538 106 l 538 514 l 315 514 l 315 0 l 128 0 l 128 514 l 38 514 l 38 658 l 814 658 l 814 514 l 725 514 l 725 221 q 750 147 725 167 q 828 126 775 126 q 908 140 867 126 l 908 11 q 842 -8 878 -1 q 761 -14 806 -14 z "},"ก":{"ha":864,"x_min":51,"x_max":778,"o":"m 86 0 l 86 239 q 108 352 86 303 q 193 421 129 401 l 51 458 l 51 638 q 203 725 108 686 q 421 764 299 764 q 613 735 533 764 q 735 638 693 706 q 778 453 778 569 l 778 0 l 590 0 l 590 457 q 549 581 590 544 q 411 618 508 618 q 297 600 349 618 q 213 554 244 582 l 213 535 l 367 493 l 367 379 q 292 334 311 365 q 274 238 274 303 l 274 0 l 86 0 z "},"ข":{"ha":826,"x_min":46,"x_max":740,"o":"m 400 -14 q 147 64 232 -14 q 63 276 63 142 l 63 324 q 81 408 63 371 q 122 475 99 446 q 163 529 144 504 q 181 576 181 554 q 171 604 181 597 q 136 611 161 611 l 46 611 l 61 750 l 256 750 q 371 643 371 750 q 353 558 371 596 q 310 485 335 519 q 268 412 286 450 q 250 325 250 374 l 250 265 q 400 132 250 132 q 553 271 553 132 l 553 750 l 740 750 l 740 279 q 650 65 740 144 q 400 -14 560 -14 z "},"ฃ":{"ha":826,"x_min":44,"x_max":740,"o":"m 400 -14 q 147 59 232 -14 q 63 267 63 132 l 63 285 q 86 378 63 333 q 141 463 110 424 q 196 535 172 503 q 219 589 219 567 q 197 615 219 615 q 178 611 188 615 q 163 600 169 607 l 163 543 l 44 543 l 44 750 l 168 750 l 168 711 q 215 739 189 728 q 281 750 242 750 q 392 636 392 750 q 370 542 392 585 q 321 462 349 500 q 272 383 293 424 q 250 296 250 343 l 250 265 q 400 132 250 132 q 553 271 553 132 l 553 750 l 740 750 l 740 279 q 650 65 740 144 q 400 -14 560 -14 z "},"ค":{"ha":872,"x_min":79,"x_max":786,"o":"m 79 0 l 79 465 q 163 683 79 601 q 433 764 247 764 q 703 683 619 764 q 786 465 786 601 l 786 0 l 599 0 l 599 479 q 555 583 599 549 q 433 618 511 618 q 267 479 267 618 l 267 344 q 326 376 293 364 q 397 389 358 389 l 488 389 l 493 240 l 393 240 q 324 230 354 240 q 267 200 293 219 l 267 0 l 79 0 z "},"ฅ":{"ha":872,"x_min":79,"x_max":786,"o":"m 79 0 l 79 536 q 124 701 79 639 q 271 764 169 764 q 359 748 317 764 q 432 693 401 732 q 510 748 463 732 q 601 764 557 764 q 744 706 701 764 q 786 536 786 647 l 786 0 l 600 0 l 600 526 q 588 583 600 563 q 542 604 576 604 q 499 590 515 604 q 471 554 482 576 l 394 554 q 373 590 386 576 q 336 604 360 604 q 283 583 301 604 q 265 526 265 563 l 265 344 q 324 376 292 364 q 396 389 357 389 l 488 389 l 493 240 l 392 240 q 322 230 353 240 q 265 200 292 219 l 265 0 l 79 0 z "},"ฆ":{"ha":858,"x_min":61,"x_max":772,"o":"m 513 -14 q 372 10 435 -14 q 260 74 310 33 l 251 0 l 79 0 l 79 267 q 103 363 79 315 q 158 453 126 410 q 213 532 189 497 q 236 589 236 567 q 214 615 236 615 q 195 611 204 615 q 179 600 186 607 l 179 543 l 61 543 l 61 750 l 185 750 l 185 711 q 232 739 206 728 q 297 750 258 750 q 408 636 408 750 q 387 540 408 585 q 338 453 365 496 q 288 368 310 411 q 267 278 267 325 l 267 210 q 348 154 297 176 q 450 132 399 132 q 551 165 517 132 q 585 274 585 197 l 585 750 l 772 750 l 772 263 q 703 59 772 132 q 513 -14 633 -14 z "},"ง":{"ha":732,"x_min":-4,"x_max":718,"o":"m 361 -14 q 281 -8 324 -14 q 207 7 239 -3 l -4 521 l 178 521 l 343 119 q 494 190 447 119 q 540 399 540 260 q 524 529 540 482 q 472 597 508 576 q 372 617 436 617 l 315 617 l 315 750 l 399 750 q 641 663 564 750 q 718 399 718 576 q 672 162 718 253 q 547 28 626 71 q 361 -14 467 -14 z "},"จ":{"ha":778,"x_min":38,"x_max":726,"o":"m 379 -14 q 309 -8 349 -14 q 246 7 269 -1 l 140 289 l 38 289 l 46 422 l 258 422 l 368 129 q 501 188 454 129 q 549 382 549 247 q 526 524 549 472 q 447 597 503 575 q 296 618 392 618 q 177 609 240 618 q 57 582 114 600 l 57 721 q 188 751 114 739 q 344 764 263 764 q 638 665 550 764 q 726 382 726 567 q 678 165 726 253 q 551 31 631 76 q 379 -14 472 -14 z "},"ฉ":{"ha":826,"x_min":51,"x_max":740,"o":"m 303 -14 q 124 51 188 -14 q 60 246 60 117 l 60 417 l 247 417 l 247 274 q 277 167 247 203 q 379 132 307 132 q 479 153 436 132 q 553 211 522 175 l 553 443 q 501 581 553 543 q 325 618 449 618 q 238 613 288 618 q 140 598 189 607 q 51 576 90 589 l 51 715 q 202 751 117 738 q 374 764 288 764 q 654 683 568 764 q 740 442 740 603 l 740 0 l 568 0 l 560 75 q 451 11 514 36 q 303 -14 389 -14 z "},"ช":{"ha":829,"x_min":49,"x_max":743,"o":"m 403 -14 q 150 64 235 -14 q 65 276 65 142 l 65 324 q 83 408 65 371 q 124 475 101 446 q 165 529 147 504 q 183 576 183 554 q 174 604 183 597 q 139 611 164 611 l 49 611 l 64 750 l 258 750 q 374 643 374 750 q 356 558 374 596 q 313 485 338 519 q 271 412 289 450 q 253 325 253 374 l 253 265 q 403 132 253 132 q 556 271 556 132 l 556 358 q 538 433 556 411 q 474 456 519 456 l 435 456 l 443 586 l 468 586 q 535 610 514 586 q 556 685 556 633 l 556 764 l 743 764 l 743 689 q 724 585 743 625 q 647 521 704 546 q 724 453 706 494 q 743 351 743 413 l 743 279 q 653 65 743 144 q 403 -14 563 -14 z "},"ซ":{"ha":829,"x_min":47,"x_max":743,"o":"m 403 -14 q 150 58 235 -14 q 65 258 65 131 l 65 293 q 89 385 65 342 q 144 467 113 429 q 199 536 175 506 q 222 589 222 567 q 200 615 222 615 q 181 611 190 615 q 165 600 172 607 l 165 543 l 47 543 l 47 750 l 171 750 l 171 711 q 218 739 192 728 q 283 750 244 750 q 394 636 394 750 q 373 542 394 585 q 324 462 351 500 q 274 383 296 424 q 253 296 253 343 l 253 265 q 403 132 253 132 q 556 271 556 132 l 556 358 q 538 433 556 411 q 474 456 519 456 l 435 456 l 443 586 l 468 586 q 535 610 514 586 q 556 685 556 633 l 556 764 l 743 764 l 743 689 q 724 585 743 625 q 647 521 704 546 q 724 453 706 494 q 743 351 743 413 l 743 279 q 653 65 743 144 q 403 -14 563 -14 z "},"ฌ":{"ha":1335,"x_min":51,"x_max":1249,"o":"m 996 -14 q 859 10 918 -14 q 750 74 800 33 l 742 0 l 576 0 l 576 457 q 537 581 576 544 q 411 618 497 618 q 297 600 349 618 q 213 554 244 582 l 213 535 l 367 493 l 367 379 q 292 334 311 365 q 274 238 274 303 l 274 197 q 286 158 274 169 q 325 146 299 146 l 399 146 l 399 0 l 229 0 q 126 42 165 0 q 86 147 86 83 l 86 239 q 108 352 86 303 q 193 421 129 401 l 51 458 l 51 638 q 203 725 108 686 q 421 764 299 764 q 601 735 526 764 q 717 638 676 706 q 757 453 757 569 l 757 210 q 835 154 788 176 q 933 132 882 132 q 1031 165 1000 132 q 1061 274 1061 197 l 1061 750 l 1249 750 l 1249 263 q 1183 59 1249 132 q 996 -14 1117 -14 z "},"ญ":{"ha":1357,"x_min":51,"x_max":1272,"o":"m 931 -99 q 787 -86 867 -99 q 643 -39 707 -74 l 643 106 q 736 72 685 85 q 838 52 788 58 q 924 46 888 46 q 1063 64 1010 46 q 1115 114 1115 82 q 1093 153 1115 139 q 1020 124 1064 136 q 919 111 976 111 q 665 190 754 111 q 576 426 576 268 l 576 457 q 537 581 576 544 q 411 618 497 618 q 297 600 349 618 q 213 554 244 582 l 213 535 l 367 493 l 367 379 q 292 334 311 365 q 274 238 274 303 l 274 197 q 286 158 274 169 q 325 146 299 146 l 399 146 l 399 0 l 229 0 q 126 42 165 0 q 86 147 86 83 l 86 239 q 108 352 86 303 q 193 421 129 401 l 51 458 l 51 638 q 203 725 108 686 q 421 764 299 764 q 601 735 526 764 q 717 638 676 706 q 757 453 757 569 l 757 424 q 796 298 757 339 q 919 257 835 257 q 1043 298 1004 257 q 1082 424 1082 339 l 1082 750 l 1269 750 l 1269 426 q 1214 232 1269 306 q 1256 174 1239 210 q 1272 99 1272 139 q 1181 -47 1272 4 q 931 -99 1089 -99 z "},"ฎ":{"ha":914,"x_min":65,"x_max":826,"o":"m 228 -274 l 228 -131 q 335 -94 276 -107 q 464 -82 393 -82 q 563 -92 517 -82 q 639 -117 610 -101 l 639 457 q 601 581 639 544 q 476 618 563 618 q 362 600 414 618 q 278 554 310 582 l 278 535 l 432 493 l 432 379 q 364 333 379 363 q 349 238 349 303 l 349 186 q 301 44 349 88 q 165 0 254 0 l 65 0 l 65 146 l 111 146 q 149 157 139 146 q 158 196 158 168 l 158 239 q 176 350 158 303 q 258 421 194 397 l 117 458 l 117 638 q 269 725 174 686 q 486 764 364 764 q 735 693 644 764 q 826 453 826 622 l 826 -269 l 639 -269 q 442 -228 564 -228 q 328 -241 388 -228 q 228 -274 268 -254 z "},"ฏ":{"ha":914,"x_min":65,"x_max":826,"o":"m 604 -271 q 509 -253 553 -271 q 442 -204 465 -235 q 395 -251 425 -233 q 315 -269 365 -269 l 171 -269 l 179 -128 l 281 -128 q 342 -114 321 -128 q 376 -67 364 -100 l 496 -67 q 521 -115 504 -97 q 572 -133 538 -133 q 639 -62 639 -133 l 639 457 q 601 581 639 544 q 476 618 563 618 q 362 600 414 618 q 278 554 310 582 l 278 535 l 432 493 l 432 379 q 364 333 379 363 q 349 238 349 303 l 349 186 q 301 44 349 88 q 165 0 254 0 l 65 0 l 65 146 l 111 146 q 149 157 139 146 q 158 196 158 168 l 158 239 q 176 350 158 303 q 258 421 194 397 l 117 458 l 117 638 q 269 725 174 686 q 486 764 364 764 q 735 693 644 764 q 826 453 826 622 l 826 -65 q 767 -215 826 -160 q 604 -271 707 -271 z "},"ฐ":{"ha":832,"x_min":38,"x_max":801,"o":"m 379 -14 q 309 -8 349 -14 q 246 7 269 -1 l 140 289 l 38 289 l 46 422 l 258 422 l 368 129 q 501 188 454 129 q 549 382 549 247 q 526 524 549 472 q 447 597 503 575 q 296 618 392 618 q 177 609 240 618 q 57 582 114 600 l 57 721 q 188 751 114 739 q 344 764 263 764 q 419 760 385 764 q 485 750 454 757 l 801 750 l 792 607 l 669 607 q 712 510 697 563 q 726 382 726 458 q 678 165 726 253 q 551 31 631 76 q 379 -14 472 -14 m 482 -290 q 388 -272 426 -290 q 325 -224 349 -254 q 278 -271 308 -253 q 199 -289 249 -289 l 74 -289 l 82 -147 l 164 -147 q 226 -133 204 -147 q 260 -86 247 -119 l 379 -86 q 407 -135 388 -117 q 465 -153 426 -153 q 542 -82 542 -153 l 542 -50 l 697 -50 l 697 -85 q 644 -235 697 -179 q 482 -290 590 -290 z "},"ฑ":{"ha":850,"x_min":47,"x_max":764,"o":"m 103 0 l 103 274 q 121 365 103 321 q 163 451 139 410 q 204 527 186 492 q 222 589 222 563 q 200 615 222 615 q 181 611 190 615 q 165 600 172 607 l 165 543 l 47 543 l 47 750 l 171 750 l 171 711 q 215 739 192 728 q 278 750 239 750 q 361 710 332 750 q 438 749 393 733 q 533 764 483 764 q 708 699 653 764 q 764 507 764 635 l 764 0 l 576 0 l 576 501 q 557 590 576 563 q 485 618 538 618 q 433 608 463 618 q 386 583 403 599 q 372 509 386 544 q 338 438 357 474 q 305 361 319 403 q 290 268 290 319 l 290 0 l 103 0 z "},"ฒ":{"ha":1379,"x_min":51,"x_max":1293,"o":"m 365 -14 q 204 25 275 -14 q 92 147 133 64 q 51 360 51 229 q 117 661 51 558 q 297 764 183 764 q 390 744 357 764 q 446 693 424 725 q 519 744 474 725 q 617 764 565 764 q 758 704 715 764 q 801 547 801 644 l 801 210 q 879 154 832 176 q 978 132 926 132 q 1075 165 1044 132 q 1106 274 1106 197 l 1106 750 l 1293 750 l 1293 263 q 1227 59 1293 132 q 1040 -14 1161 -14 q 903 10 963 -14 q 794 74 844 33 l 786 0 l 621 0 l 621 518 q 611 592 621 567 q 564 618 601 618 q 519 602 539 618 q 490 554 499 586 l 400 554 q 371 602 386 586 q 326 618 356 618 q 248 547 267 618 q 229 360 229 475 q 274 183 229 233 q 399 132 318 132 q 451 135 425 132 q 494 143 476 138 l 494 6 q 439 -9 469 -4 q 365 -14 408 -14 z "},"ณ":{"ha":1342,"x_min":51,"x_max":1256,"o":"m 829 -14 q 642 59 708 -14 q 576 263 576 132 l 576 457 q 537 581 576 544 q 411 618 497 618 q 297 600 349 618 q 213 554 244 582 l 213 535 l 367 493 l 367 379 q 292 334 311 365 q 274 238 274 303 l 274 197 q 286 158 274 169 q 325 146 299 146 l 399 146 l 399 0 l 229 0 q 126 42 165 0 q 86 147 86 83 l 86 239 q 108 352 86 303 q 193 421 129 401 l 51 458 l 51 638 q 203 725 108 686 q 421 764 299 764 q 601 735 526 764 q 717 638 676 706 q 757 453 757 569 l 757 274 q 791 165 757 197 q 892 132 825 132 q 991 154 944 132 q 1068 210 1038 176 l 1068 750 l 1256 750 l 1256 0 l 1083 0 l 1075 74 q 967 8 1028 31 q 829 -14 907 -14 z "},"ด":{"ha":907,"x_min":51,"x_max":821,"o":"m 365 -14 q 204 25 275 -14 q 92 147 133 64 q 51 360 51 229 q 151 658 51 551 q 443 764 250 764 q 661 719 578 764 q 783 603 744 674 q 821 453 821 532 l 821 0 l 633 0 l 633 440 q 617 533 633 493 q 558 595 600 572 q 440 618 515 618 q 229 360 229 618 q 274 183 229 233 q 399 132 318 132 q 451 135 425 132 q 494 143 476 138 l 494 6 q 439 -9 469 -4 q 365 -14 408 -14 z "},"ต":{"ha":915,"x_min":51,"x_max":829,"o":"m 365 -14 q 204 25 275 -14 q 92 147 133 64 q 51 360 51 229 q 122 661 51 558 q 311 764 192 764 q 404 744 371 764 q 460 693 438 725 q 537 744 488 725 q 638 764 586 764 q 783 704 736 764 q 829 547 829 644 l 829 0 l 642 0 l 642 518 q 628 592 642 567 q 578 618 615 618 q 533 602 553 618 q 504 554 513 586 l 414 554 q 385 602 400 586 q 340 618 369 618 q 252 547 275 618 q 229 360 229 475 q 274 183 229 233 q 399 132 318 132 q 451 135 425 132 q 494 143 476 138 l 494 6 q 439 -9 469 -4 q 365 -14 408 -14 z "},"ถ":{"ha":864,"x_min":51,"x_max":778,"o":"m 229 0 q 126 42 165 0 q 86 147 86 83 l 86 239 q 108 352 86 303 q 193 421 129 401 l 51 458 l 51 638 q 203 725 108 686 q 421 764 299 764 q 613 735 533 764 q 735 638 693 706 q 778 453 778 569 l 778 0 l 590 0 l 590 457 q 549 581 590 544 q 411 618 508 618 q 297 600 349 618 q 213 554 244 582 l 213 535 l 367 493 l 367 379 q 292 334 311 365 q 274 238 274 303 l 274 197 q 286 158 274 169 q 325 146 299 146 l 399 146 l 399 0 l 229 0 z "},"ท":{"ha":858,"x_min":79,"x_max":772,"o":"m 79 0 l 79 750 l 251 750 l 260 676 q 376 740 310 717 q 519 764 442 764 q 705 692 638 764 q 772 493 772 619 l 772 0 l 585 0 l 585 482 q 551 586 585 554 q 450 618 517 618 q 348 596 399 618 q 267 540 297 574 l 267 0 l 79 0 z "},"ธ":{"ha":747,"x_min":51,"x_max":696,"o":"m 381 -14 q 203 3 286 -14 q 65 44 121 21 l 65 324 l 238 324 l 238 153 q 299 138 263 143 q 369 132 335 132 q 483 153 443 132 q 522 232 522 175 q 494 294 522 272 q 414 329 465 315 q 292 360 363 343 q 172 397 226 376 q 84 455 117 418 q 51 556 51 492 q 137 710 51 656 q 386 764 222 764 q 543 753 468 764 q 658 729 618 743 l 658 579 q 544 608 613 599 q 411 618 476 618 q 327 614 369 618 q 257 598 285 610 q 229 561 229 586 q 260 517 229 532 q 344 491 292 501 q 458 463 397 481 q 585 418 532 443 q 667 350 638 393 q 696 232 696 307 q 612 49 696 113 q 381 -14 528 -14 z "},"น":{"ha":858,"x_min":79,"x_max":772,"o":"m 339 -14 q 149 59 218 -14 q 79 263 79 132 l 79 750 l 267 750 l 267 274 q 301 165 267 197 q 401 132 335 132 q 504 154 454 132 q 585 210 554 176 l 585 750 l 772 750 l 772 0 l 600 0 l 592 74 q 479 10 542 33 q 339 -14 417 -14 z "},"บ":{"ha":879,"x_min":79,"x_max":793,"o":"m 436 -14 q 175 65 271 -14 q 79 301 79 143 l 79 750 l 267 750 l 267 299 q 436 132 267 132 q 606 299 606 132 l 606 750 l 793 750 l 793 301 q 697 65 793 143 q 436 -14 601 -14 z "},"ป":{"ha":879,"x_min":79,"x_max":793,"o":"m 436 -14 q 175 65 271 -14 q 79 301 79 143 l 79 750 l 267 750 l 267 299 q 436 132 267 132 q 606 299 606 132 l 606 972 l 793 972 l 793 301 q 697 65 793 143 q 436 -14 601 -14 z "},"ผ":{"ha":903,"x_min":79,"x_max":817,"o":"m 79 0 l 79 607 q 112 710 79 669 q 210 750 144 750 l 378 750 l 386 611 l 315 611 q 257 549 257 611 l 257 247 l 414 521 l 483 521 l 640 247 l 640 750 l 817 750 l 817 0 l 636 0 l 449 339 l 260 0 l 79 0 z "},"ฝ":{"ha":903,"x_min":79,"x_max":817,"o":"m 79 0 l 79 607 q 112 710 79 669 q 210 750 144 750 l 378 750 l 386 611 l 315 611 q 257 549 257 611 l 257 247 l 414 521 l 483 521 l 640 247 l 640 972 l 817 972 l 817 0 l 636 0 l 449 339 l 260 0 l 79 0 z "},"พ":{"ha":1007,"x_min":38,"x_max":969,"o":"m 213 0 l 38 750 l 218 750 l 317 268 l 431 631 l 431 750 l 561 750 l 694 268 l 790 750 l 969 750 l 794 0 l 632 0 l 508 429 l 375 0 l 213 0 z "},"ฟ":{"ha":1007,"x_min":38,"x_max":1006,"o":"m 213 0 l 38 750 l 218 750 l 317 268 l 431 631 l 431 750 l 561 750 l 694 268 l 826 972 l 1006 972 l 794 0 l 632 0 l 508 429 l 375 0 l 213 0 z "},"ภ":{"ha":913,"x_min":65,"x_max":826,"o":"m 65 0 l 65 146 l 111 146 q 149 157 139 146 q 158 196 158 168 l 158 239 q 176 350 158 303 q 258 421 194 397 l 117 458 l 117 638 q 269 725 174 686 q 486 764 364 764 q 735 693 644 764 q 826 453 826 622 l 826 0 l 639 0 l 639 457 q 601 581 639 544 q 476 618 563 618 q 362 600 414 618 q 278 554 310 582 l 278 535 l 432 493 l 432 379 q 364 333 379 363 q 349 238 349 303 l 349 186 q 301 44 349 88 q 165 0 254 0 l 65 0 z "},"ม":{"ha":858,"x_min":79,"x_max":772,"o":"m 513 -14 q 372 10 435 -14 q 260 74 310 33 l 251 0 l 79 0 l 79 750 l 267 750 l 267 210 q 348 154 297 176 q 450 132 399 132 q 551 165 517 132 q 585 274 585 197 l 585 750 l 772 750 l 772 263 q 703 59 772 132 q 513 -14 633 -14 z "},"ย":{"ha":843,"x_min":42,"x_max":757,"o":"m 401 -14 q 221 8 303 -14 q 90 84 139 31 q 42 228 42 138 q 65 320 42 276 q 136 390 88 364 q 70 447 96 408 q 44 542 44 486 q 114 708 44 651 q 293 764 183 764 q 367 759 336 764 q 422 744 397 754 l 422 607 q 326 618 382 618 q 249 601 275 618 q 222 542 222 583 q 251 478 222 496 q 339 461 281 461 l 417 461 l 424 324 l 338 324 q 219 228 219 324 q 262 156 219 181 q 393 132 304 132 q 526 169 483 132 q 569 278 569 207 l 569 750 l 757 750 l 757 294 q 665 59 757 132 q 401 -14 572 -14 z "},"ร":{"ha":699,"x_min":51,"x_max":647,"o":"m 332 -14 q 183 -3 254 -14 q 67 26 111 8 l 67 178 q 183 144 119 156 q 297 132 246 132 q 428 146 388 132 q 469 203 469 160 q 448 254 469 236 q 382 287 426 272 q 268 325 338 301 q 109 406 167 361 q 51 540 51 451 q 129 702 51 640 q 364 764 207 764 q 494 754 429 764 q 601 731 560 744 l 601 581 q 497 609 556 600 q 390 618 438 618 q 277 603 325 618 q 229 544 229 589 q 253 500 229 517 q 323 469 278 483 q 431 433 368 456 q 556 378 508 407 q 626 307 604 349 q 647 203 647 265 q 563 40 647 93 q 332 -14 479 -14 z "},"ฤ":{"ha":864,"x_min":51,"x_max":778,"o":"m 590 -222 l 590 457 q 549 581 590 544 q 411 618 508 618 q 297 600 349 618 q 213 554 244 582 l 213 535 l 367 493 l 367 379 q 292 334 311 365 q 274 238 274 303 l 274 197 q 286 158 274 169 q 325 146 299 146 l 399 146 l 399 0 l 229 0 q 126 42 165 0 q 86 147 86 83 l 86 239 q 108 352 86 303 q 193 421 129 401 l 51 458 l 51 638 q 203 725 108 686 q 421 764 299 764 q 613 735 533 764 q 735 638 693 706 q 778 453 778 569 l 778 -222 l 590 -222 z "},"ล":{"ha":838,"x_min":56,"x_max":751,"o":"m 317 -14 q 186 9 246 -14 q 91 84 126 32 q 56 222 56 136 q 132 395 56 335 q 351 456 208 456 l 564 456 l 564 492 q 525 590 564 561 q 388 618 486 618 q 259 609 319 618 q 139 581 199 600 l 139 721 q 271 751 196 739 q 418 764 346 764 q 669 693 586 764 q 751 472 751 622 l 751 0 l 564 0 l 564 318 l 363 318 q 268 297 303 318 q 233 222 233 276 q 264 151 233 171 q 367 132 294 132 q 419 135 393 132 q 463 143 444 138 l 463 6 q 398 -8 436 -3 q 317 -14 360 -14 z "},"ฦ":{"ha":914,"x_min":65,"x_max":826,"o":"m 639 -222 l 639 457 q 601 581 639 544 q 476 618 563 618 q 362 600 414 618 q 278 554 310 582 l 278 535 l 432 493 l 432 379 q 364 333 379 363 q 349 238 349 303 l 349 186 q 301 44 349 88 q 165 0 254 0 l 65 0 l 65 146 l 111 146 q 149 157 139 146 q 158 196 158 168 l 158 239 q 176 350 158 303 q 258 421 194 397 l 117 458 l 117 638 q 269 725 174 686 q 486 764 364 764 q 735 693 644 764 q 826 453 826 622 l 826 -222 l 639 -222 z "},"ว":{"ha":682,"x_min":29,"x_max":644,"o":"m 268 -14 q 29 31 133 -14 l 29 174 q 122 144 72 156 q 224 132 172 132 q 410 186 354 132 q 467 375 467 240 q 410 564 467 510 q 224 618 354 618 q 122 607 172 618 q 29 576 72 596 l 29 719 q 268 764 133 764 q 551 665 458 764 q 644 375 644 565 q 551 85 644 185 q 268 -14 458 -14 z "},"ศ":{"ha":908,"x_min":79,"x_max":857,"o":"m 79 0 l 79 465 q 163 683 79 601 q 433 764 247 764 q 503 760 471 764 q 565 750 536 757 l 857 750 l 847 607 l 749 607 q 777 544 768 582 q 786 465 786 506 l 786 0 l 599 0 l 599 479 q 555 583 599 549 q 433 618 511 618 q 267 479 267 618 l 267 344 q 326 376 293 364 q 397 389 358 389 l 488 389 l 493 240 l 393 240 q 324 230 354 240 q 267 200 293 219 l 267 0 l 79 0 z "},"ษ":{"ha":889,"x_min":79,"x_max":872,"o":"m 436 -14 q 175 65 271 -14 q 79 301 79 143 l 79 750 l 267 750 l 267 299 q 436 132 267 132 q 606 299 606 132 l 606 383 l 446 383 l 446 521 l 606 521 l 606 750 l 793 750 l 793 521 l 872 521 l 860 383 l 793 383 l 793 301 q 697 65 793 143 q 436 -14 601 -14 z "},"ส":{"ha":864,"x_min":56,"x_max":813,"o":"m 317 -14 q 186 9 246 -14 q 91 84 126 32 q 56 222 56 136 q 132 395 56 335 q 351 456 208 456 l 564 456 l 564 492 q 525 590 564 561 q 388 618 486 618 q 259 609 319 618 q 139 581 199 600 l 139 721 q 271 751 196 739 q 418 764 346 764 q 489 760 456 764 q 551 750 522 757 l 813 750 l 803 607 l 718 607 q 743 546 735 581 q 751 472 751 511 l 751 0 l 564 0 l 564 318 l 363 318 q 268 297 303 318 q 233 222 233 276 q 264 151 233 171 q 367 132 294 132 q 419 135 393 132 q 463 143 444 138 l 463 6 q 398 -8 436 -3 q 317 -14 360 -14 z "},"ห":{"ha":847,"x_min":79,"x_max":767,"o":"m 79 0 l 79 750 l 267 750 l 267 522 l 453 522 q 552 553 525 522 q 579 649 579 585 l 579 750 l 767 750 l 767 656 q 744 533 767 586 q 660 456 721 479 q 740 387 718 433 q 761 279 761 340 l 761 0 l 574 0 l 574 258 q 547 357 574 329 q 449 385 519 385 l 267 385 l 267 0 l 79 0 z "},"ฬ":{"ha":1007,"x_min":38,"x_max":1006,"o":"m 213 0 l 38 750 l 218 750 l 317 268 l 431 575 l 431 694 l 561 694 l 694 268 l 765 596 q 761 685 779 660 q 697 711 743 711 l 642 711 l 665 847 l 729 847 q 803 865 778 847 q 838 929 828 883 l 847 972 l 1006 972 l 992 904 q 956 818 981 849 q 885 776 931 788 q 928 607 956 735 l 793 0 l 632 0 l 508 388 l 375 0 l 213 0 z "},"อ":{"ha":797,"x_min":51,"x_max":746,"o":"m 361 -14 q 188 3 268 -14 q 51 44 107 21 l 51 439 l 369 439 l 378 301 l 229 301 l 229 150 q 292 137 256 142 q 363 132 329 132 q 522 186 476 132 q 568 372 568 240 q 544 520 568 467 q 465 596 519 574 q 315 618 410 618 q 188 609 254 618 q 61 581 122 600 l 61 721 q 204 753 124 742 q 361 764 285 764 q 655 663 564 764 q 746 372 746 563 q 655 86 746 186 q 361 -14 564 -14 z "},"ฮ":{"ha":853,"x_min":51,"x_max":801,"o":"m 361 -14 q 188 3 268 -14 q 51 44 107 21 l 51 439 l 369 439 l 378 301 l 229 301 l 229 150 q 292 137 256 142 q 363 132 329 132 q 522 186 476 132 q 568 372 568 240 q 544 520 568 467 q 465 596 519 574 q 315 618 410 618 q 188 609 254 618 q 61 581 122 600 l 61 721 q 204 753 124 742 q 361 764 285 764 q 431 760 399 764 q 494 750 464 757 l 801 750 l 792 607 l 688 607 q 731 503 717 564 q 746 372 746 443 q 655 86 746 186 q 361 -14 564 -14 z "},"ะ":{"ha":449,"x_min":51,"x_max":403,"o":"m 51 447 l 51 653 l 210 653 l 210 585 l 403 585 l 397 447 l 51 447 m 51 75 l 51 281 l 210 281 l 210 213 l 403 213 l 397 75 l 51 75 z "},"า":{"ha":618,"x_min":10,"x_max":532,"o":"m 344 0 l 344 461 q 315 577 344 536 q 199 618 286 618 q 101 608 153 618 q 10 582 50 597 l 10 719 q 113 751 51 739 q 235 764 174 764 q 463 697 393 764 q 532 488 532 629 l 532 0 l 344 0 z "},"ำ":{"ha":618,"x_min":-343,"x_max":532,"o":"m -175 815 q -294 860 -244 815 q -343 975 -343 906 q -294 1090 -343 1044 q -175 1136 -244 1136 q -57 1090 -106 1136 q -8 975 -8 1044 q -57 860 -8 906 q -175 815 -106 815 m -175 914 q -132 933 -150 914 q -114 975 -114 951 q -132 1019 -114 1000 q -175 1038 -150 1038 q -219 1019 -200 1038 q -237 975 -237 1000 q -219 933 -237 951 q -175 914 -200 914 m 344 0 l 344 461 q 315 577 344 536 q 199 618 286 618 q 101 608 153 618 q 10 582 50 597 l 10 719 q 113 751 51 739 q 235 764 174 764 q 463 697 393 764 q 532 488 532 629 l 532 0 l 344 0 z "},"เ":{"ha":428,"x_min":83,"x_max":375,"o":"m 247 0 q 120 38 157 0 q 83 156 83 75 l 83 750 l 271 750 l 271 204 q 328 146 271 146 l 375 146 l 375 0 l 247 0 z "},"แ":{"ha":781,"x_min":83,"x_max":731,"o":"m 603 0 q 476 38 513 0 q 439 156 439 75 l 439 750 l 626 750 l 626 204 q 683 146 626 146 l 731 146 l 731 0 l 603 0 m 247 0 q 120 38 157 0 q 83 156 83 75 l 83 750 l 271 750 l 271 204 q 328 146 271 146 l 375 146 l 375 0 l 247 0 z "},"โ":{"ha":435,"x_min":-11,"x_max":443,"o":"m 290 0 q 163 38 200 0 q 126 156 126 75 l 126 765 q 92 896 126 850 q -11 965 58 942 l -11 1103 l 443 1103 l 443 957 l 225 957 q 292 885 269 931 q 314 771 314 839 l 314 204 q 371 146 314 146 l 418 146 l 418 0 l 290 0 z "},"ใ":{"ha":417,"x_min":-18,"x_max":407,"o":"m 224 0 q 97 38 133 0 q 60 156 60 75 l 60 594 q 83 707 60 661 q 135 785 106 753 q 188 844 165 818 q 211 897 211 871 q 192 947 211 932 q 129 961 172 961 q -18 919 54 961 l -18 1054 q 83 1093 25 1079 q 197 1107 142 1107 q 407 947 407 1107 q 391 867 407 901 q 351 801 375 832 q 303 740 328 771 q 263 673 279 710 q 247 588 247 636 l 247 204 q 304 146 247 146 l 351 146 l 351 0 l 224 0 z "},"ไ":{"ha":428,"x_min":-25,"x_max":417,"o":"m 263 0 q 135 38 172 0 q 99 156 99 75 l 99 753 q 124 877 99 826 q 190 957 149 928 l -25 957 l -25 1103 l 417 1103 l 417 967 q 317 888 347 942 q 286 744 286 835 l 286 204 q 343 146 286 146 l 390 146 l 390 0 l 263 0 z "},"ๅ":{"ha":618,"x_min":10,"x_max":532,"o":"m 344 -222 l 344 461 q 315 577 344 536 q 199 618 286 618 q 101 608 153 618 q 10 582 50 597 l 10 719 q 113 751 51 739 q 235 764 174 764 q 463 697 393 764 q 532 488 532 629 l 532 -222 l 344 -222 z "},"ℊ":{"ha":821,"x_min":51,"x_max":740,"o":"m 360 -244 q 303 -242 338 -244 q 235 -237 268 -240 q 182 -229 201 -233 l 182 -86 q 255 -99 211 -94 q 329 -104 299 -104 q 492 -78 431 -104 q 553 15 553 -51 l 553 50 q 364 0 478 0 q 201 30 271 0 q 91 128 131 60 q 51 313 51 196 q 93 512 51 432 q 206 632 135 592 q 364 672 276 672 q 479 653 433 672 q 568 597 525 633 l 579 658 l 740 658 l 740 46 q 700 -103 740 -37 q 576 -207 660 -169 q 360 -244 492 -244 m 411 138 q 492 151 458 138 q 553 188 525 164 l 553 475 q 488 520 522 506 q 408 535 453 535 q 280 477 318 535 q 242 314 242 419 q 260 203 242 242 q 315 151 278 165 q 411 138 353 138 z "},"₀":{"ha":500,"x_min":46,"x_max":454,"o":"m 250 -178 q 97 -125 147 -178 q 46 19 46 -72 q 94 173 46 118 q 250 228 143 228 q 406 173 357 228 q 454 19 454 118 q 404 -125 454 -72 q 250 -178 354 -178 m 250 -78 q 313 -54 296 -78 q 331 19 331 -31 q 315 103 331 78 q 250 128 299 128 q 186 103 203 128 q 169 19 169 78 q 187 -54 169 -31 q 250 -78 204 -78 z "},"₁":{"ha":300,"x_min":21,"x_max":246,"o":"m 117 -167 l 117 104 l 21 85 l 21 183 l 246 228 l 246 -167 l 117 -167 z "},"₂":{"ha":421,"x_min":51,"x_max":368,"o":"m 51 -167 l 51 -106 q 97 -53 74 -74 q 151 -7 121 -32 q 217 47 197 31 q 236 83 236 63 q 219 117 236 107 q 164 128 203 128 q 112 122 139 128 q 61 106 85 115 l 61 204 q 126 220 85 213 q 207 228 167 228 q 325 194 285 228 q 365 111 365 160 q 350 46 365 72 q 299 -14 335 19 q 267 -41 279 -32 q 238 -67 256 -50 l 368 -67 l 368 -167 l 51 -167 z "},"₃":{"ha":425,"x_min":51,"x_max":374,"o":"m 189 -178 q 114 -172 156 -178 q 51 -158 72 -167 l 51 -71 q 103 -85 76 -81 q 156 -90 131 -90 q 219 -82 200 -90 q 239 -53 239 -74 q 167 -12 239 -12 l 108 -12 l 115 65 l 163 65 q 231 107 231 65 q 210 132 231 125 q 156 139 189 139 q 103 133 129 139 q 58 119 78 128 l 58 208 q 115 222 78 215 q 190 228 151 228 q 325 196 285 228 q 365 115 365 164 q 353 63 365 86 q 314 26 342 39 q 360 -5 346 17 q 374 -58 374 -26 q 189 -178 374 -178 z "},"₄":{"ha":411,"x_min":24,"x_max":386,"o":"m 217 -167 l 217 -97 l 24 -97 l 24 -12 l 213 228 l 344 228 l 344 -8 l 386 -8 l 386 -97 l 344 -97 l 344 -167 l 217 -167 m 149 -7 l 246 -7 l 246 121 l 149 -7 z "},"₅":{"ha":421,"x_min":51,"x_max":368,"o":"m 181 -178 q 110 -174 147 -178 q 51 -160 74 -169 l 51 -68 q 102 -82 74 -78 q 153 -86 131 -86 q 223 -76 201 -86 q 244 -43 244 -65 q 226 -8 244 -17 q 167 1 208 1 l 53 1 l 53 72 l 63 214 l 342 214 l 335 126 l 174 126 l 169 79 l 225 79 q 368 -44 368 79 q 322 -140 368 -101 q 181 -178 275 -178 z "},"₆":{"ha":444,"x_min":51,"x_max":393,"o":"m 225 -178 q 99 -140 146 -178 q 51 -22 51 -101 l 51 60 q 102 183 51 138 q 242 228 153 228 q 304 224 274 228 q 354 213 335 219 l 354 122 q 307 133 336 129 q 250 138 278 138 q 183 121 207 138 q 158 78 158 104 l 158 69 q 203 92 178 85 q 253 99 228 99 q 362 64 331 99 q 393 -40 393 29 q 353 -141 393 -104 q 225 -178 313 -178 m 222 -93 q 269 -79 256 -93 q 282 -39 282 -65 q 270 0 282 -12 q 225 13 258 13 q 190 6 207 13 q 158 -11 174 0 l 158 -33 q 173 -78 158 -62 q 222 -93 188 -93 z "},"₇":{"ha":403,"x_min":38,"x_max":364,"o":"m 100 -167 l 222 117 l 38 117 l 38 214 l 364 214 l 364 136 l 233 -167 l 100 -167 z "},"₈":{"ha":461,"x_min":51,"x_max":410,"o":"m 231 -178 q 101 -148 151 -178 q 51 -62 51 -118 q 111 31 51 3 q 74 66 85 44 q 63 114 63 88 q 108 199 63 169 q 231 228 153 228 q 353 199 308 228 q 399 114 399 169 q 388 65 399 88 q 349 26 378 43 q 396 -10 382 13 q 410 -62 410 -32 q 360 -148 410 -118 q 231 -178 310 -178 m 244 61 q 279 80 271 71 q 288 111 288 89 q 231 153 288 153 q 174 111 174 153 q 181 83 174 93 q 210 68 189 72 l 244 61 m 231 -103 q 297 -60 297 -103 q 287 -32 297 -40 q 249 -17 276 -24 l 211 -7 q 176 -24 189 -14 q 164 -58 164 -35 q 231 -103 164 -103 z "},"₉":{"ha":444,"x_min":51,"x_max":393,"o":"m 203 -178 q 141 -174 172 -178 q 90 -162 110 -169 l 90 -72 q 138 -83 110 -79 q 194 -87 167 -87 q 263 -71 239 -87 q 286 -28 286 -54 l 286 -19 q 199 -49 247 -49 q 87 -14 122 -49 q 51 90 51 21 q 92 191 51 154 q 219 228 132 228 q 393 72 393 228 l 393 -10 q 342 -132 393 -86 q 203 -178 292 -178 m 219 38 q 255 44 238 38 q 286 61 272 51 l 286 83 q 272 128 286 113 q 222 143 257 143 q 176 129 189 143 q 163 89 163 115 q 174 50 163 63 q 219 38 186 38 z "},"⁰":{"ha":500,"x_min":46,"x_max":454,"o":"m 250 503 q 97 556 147 503 q 46 700 46 608 q 94 853 46 799 q 250 908 143 908 q 406 853 357 908 q 454 700 454 799 q 404 556 454 608 q 250 503 354 503 m 250 603 q 313 626 296 603 q 331 700 331 650 q 315 783 331 758 q 250 808 299 808 q 186 783 203 808 q 169 700 169 758 q 187 626 169 650 q 250 603 204 603 z "},"¹":{"ha":269,"x_min":21,"x_max":246,"o":"m 117 514 l 117 785 l 21 765 l 21 864 l 246 908 l 246 514 l 117 514 z "}}}
